
<svg width="3000px" height="697px" viewBox="0 0 3000 697" version="1.1" xmlns="http://www.w3.org/2000/svg" xmlns:xlink="http://www.w3.org/1999/xlink">
    <!-- Generator: Sketch 47.1 (45422) - http://www.bohemiancoding.com/sketch -->
    <desc>Created with Sketch.</desc>
    <defs>
        <path d="M2975.6375,469.735123 C2558.55,174.035208 2047.7625,0 1495.9875,0 C946.8375,0 438.2875,172.361435 22.2875,465.519694 C17.2125,469.412767 8.9625,476.033469 0,483.683232 L0,599 L3000,599 L3000,490.130358 C2990.3,481.56312 2981.825,474.458883 2975.6375,469.735123 Z" id="path-1"></path>
        <filter x="-14.6%" y="-54.7%" width="129.2%" height="246.1%" filterUnits="objectBoundingBox" id="filter-2">
            <feMorphology radius="60" operator="dilate" in="SourceAlpha" result="shadowSpreadOuter1"></feMorphology>
            <feOffset dx="0" dy="110" in="shadowSpreadOuter1" result="shadowOffsetOuter1"></feOffset>
            <feGaussianBlur stdDeviation="67.5" in="shadowOffsetOuter1" result="shadowBlurOuter1"></feGaussianBlur>
            <feColorMatrix values="0 0 0 0 0.823529412   0 0 0 0 0.823529412   0 0 0 0 0.823529412  0 0 0 0.5 0" type="matrix" in="shadowBlurOuter1"></feColorMatrix>
        </filter>
    </defs>
    <g id="Page-1" stroke="none" stroke-width="1" fill="none" fill-rule="evenodd">
        <g id="Desktop" transform="translate(0.000000, -5023.000000)">
            <g id="footer" transform="translate(0.000000, 5131.000000)">
                <g id="Fill-147">
                    <use fill="black" fill-opacity="1" filter="url(#filter-2)" xlink:href="#path-1"></use>
                    <use fill="#53453D" fill-rule="evenodd" xlink:href="#path-1"></use>
                </g>
                <path d="M999.901356,220.870873 C1002.54942,239.504949 951.558767,261.868262 886.022228,270.828117 C820.485689,279.80008 765.233498,271.954153 762.597749,253.332184 C759.962,234.698108 810.952654,212.334795 876.476876,203.37494 C942.013415,194.415085 997.265607,202.248904 999.901356,220.870873" id="Fill-148" fill="#332921" fill-rule="evenodd"></path>
                <path d="M2199.51363,286.171995 C2193.63006,304.924362 2135.91501,303.748388 2070.59717,283.529213 C2005.27932,263.335328 1957.1028,231.7484 1962.98637,212.996032 C1968.86994,194.243664 2026.59772,195.419639 2091.90283,215.626169 C2157.22068,235.832698 2205.3972,267.419627 2199.51363,286.171995" id="Fill-149" fill="#332921" fill-rule="evenodd"></path>
                <path d="M1624.99431,469.914966 C1625.6295,490.449024 1572.98184,509.024937 1507.39823,511.393234 C1441.81463,513.774761 1388.14088,499.048984 1387.50569,478.514926 C1386.8705,457.980868 1439.51816,439.391725 1505.10177,437.023428 C1570.68537,434.641901 1624.35912,449.367678 1624.99431,469.914966" id="Fill-150" fill="#332921" fill-rule="evenodd"></path>
                <path d="M1385.47835,201.266464 C1376.80334,217.939874 1342.69289,227.946322 1309.30436,223.6158 C1275.89176,219.291285 1255.8466,202.257499 1264.52161,185.590096 C1273.20864,168.910681 1307.30706,158.904233 1340.70763,163.240761 C1374.1082,167.565276 1394.15335,184.593055 1385.47835,201.266464" id="Fill-279" fill="#332921" fill-rule="evenodd" transform="translate(1325.000000, 193.427083) rotate(-3.000000) translate(-1325.000000, -193.427083) "></path>
                <path d="M1277.13086,212.145833 C1265.08879,205.179487 1259.68594,195.76757 1263.93899,186.367411 C1263.93899,186.355654 1263.95135,186.343896 1263.95135,186.332138 C1263.97608,186.273351 1264.0008,186.220442 1264.02553,186.161654 C1264.0379,186.144018 1264.05026,186.120503 1264.06262,186.102866 C1264.07499,186.073472 1264.08735,186.044079 1264.09971,186.014685 C1264.12444,185.967654 1264.1368,185.926503 1264.16153,185.885352 C1264.17389,185.861837 1264.18626,185.838321 1264.19862,185.814806 C1264.21098,185.779534 1264.23571,185.738382 1264.24808,185.70311 C1264.26044,185.679595 1264.28517,185.650201 1264.29753,185.626686 C1264.30989,185.585534 1264.33462,185.544383 1264.35935,185.503231 C1264.35935,185.485595 1264.37171,185.473837 1264.38407,185.456201 C1264.4088,185.403292 1264.43353,185.350383 1264.45826,185.297474 C1264.47062,185.285717 1264.48298,185.26808 1264.48298,185.256323 C1264.52007,185.203414 1264.5448,185.144626 1264.56953,185.091717 C1264.61898,185.003536 1264.66843,184.921233 1264.71789,184.833051 C1264.74262,184.797779 1264.75498,184.756627 1264.77971,184.715476 C1272.544,171.206054 1298.28484,162.264439 1326.4984,162.229167 C1326.56021,162.229167 1326.60967,162.229167 1326.67148,162.229167 C1326.68385,162.229167 1326.68385,162.229167 1326.69621,162.229167 C1331.77762,162.229167 1336.93321,162.517227 1342.07643,163.12274 C1342.21243,163.140377 1342.36079,163.152134 1342.49679,163.16977 C1342.62042,163.187407 1342.74406,163.199164 1342.85533,163.216801 C1342.97897,163.228558 1343.09024,163.246195 1343.20151,163.257952 C1343.2386,163.263831 1343.27569,163.26971 1343.31278,163.275588 C1343.42405,163.287346 1343.52296,163.299103 1343.62187,163.310861 C1343.67132,163.31674 1343.72078,163.328497 1343.7826,163.334376 C1343.83205,163.340255 1343.8815,163.346134 1343.94332,163.352012 C1344.16586,163.381406 1344.38841,163.416679 1344.61095,163.446073 C1344.62331,163.446073 1344.63568,163.446073 1344.64804,163.451952 C1365.45584,166.320793 1380.94733,173.804472 1387.5,182.934207 C1379.17935,178.119492 1367.70601,174.457016 1354.05668,172.775687 C1348.6291,172.105506 1343.20151,171.788053 1337.86047,171.788053 C1309.32547,171.788053 1283.27553,180.900152 1275.77088,194.644724 C1272.49454,200.646952 1273.21163,206.69621 1277.13086,212.145833" id="Fill-281" fill="#080605" fill-rule="evenodd" transform="translate(1325.000000, 187.187500) rotate(-3.000000) translate(-1325.000000, -187.187500) "></path>
            </g>
        </g>
    </g>
</svg>