
<svg width="393px" height="282px" viewBox="0 0 393 282" version="1.1" xmlns="http://www.w3.org/2000/svg" xmlns:xlink="http://www.w3.org/1999/xlink">
    <!-- Generator: Sketch 47.1 (45422) - http://www.bohemiancoding.com/sketch -->
    <desc>Created with Sketch.</desc>
    <defs></defs>
    <g id="Page-1" stroke="none" stroke-width="1" fill="none" fill-rule="evenodd">
        <g id="FoDig_rgb" transform="translate(0.000000, -228.000000)">
            <path d="M203.382,245.035 L128.089,320.327 C124.277,324.139 118.098,324.139 114.286,320.327 C110.475,316.516 110.475,310.336 114.286,306.524 L189.579,231.232 C193.391,227.42 199.57,227.42 203.382,231.232 C207.193,235.043 207.193,241.223 203.382,245.035" id="Fill-1" fill="#0A0B09"></path>
            <path d="M228.479,270.132 L153.187,345.425 C149.375,349.236 143.196,349.236 139.384,345.425 C135.572,341.613 135.572,335.434 139.384,331.622 L214.677,256.329 C218.488,252.518 224.668,252.518 228.479,256.329 C232.291,260.141 232.291,266.32 228.479,270.132" id="Fill-2" fill="#0A0B09"></path>
            <path d="M253.577,295.23 L178.284,370.522 C174.473,374.334 168.293,374.334 164.481,370.522 C160.669,366.71 160.669,360.531 164.481,356.719 L239.773,281.427 C243.586,277.615 249.765,277.615 253.577,281.427 C257.389,285.239 257.389,291.418 253.577,295.23" id="Fill-3" fill="#0A0B09"></path>
            <path d="M278.674,320.327 L203.382,395.62 C199.57,399.432 193.391,399.432 189.579,395.62 C185.767,391.808 185.767,385.629 189.579,381.816 L264.871,306.524 C268.683,302.712 274.862,302.712 278.674,306.524 C282.486,310.336 282.486,316.516 278.674,320.327" id="Fill-4" fill="#EDAA2C"></path>
            <polyline id="Fill-5" fill="#0A0B09" points="0.414 436.69 37.135 436.69 37.135 446.851 13.375 446.851 13.375 461.971 32.175 461.971 32.175 471.731 13.375 471.731 13.375 493.892 0.414 493.892 0.414 436.69"></polyline>
            <path d="M70.782,473.251 L70.782,472.691 C70.782,464.691 67.021,459.891 60.542,459.891 C54.142,459.891 50.301,464.531 50.301,472.531 L50.301,473.171 C50.301,481.171 53.981,485.972 60.542,485.972 C67.021,485.972 70.782,481.171 70.782,473.251 Z M38.461,473.411 L38.461,472.771 C38.461,459.65 47.981,451.091 60.542,451.091 C73.102,451.091 82.542,459.491 82.542,472.531 L82.542,473.171 C82.542,486.371 73.022,494.771 60.461,494.771 C47.981,494.771 38.461,486.451 38.461,473.411 L38.461,473.411 Z" id="Fill-6" fill="#0A0B09"></path>
            <path d="M88.581,479.012 L88.581,452.051 L100.101,452.051 L100.101,477.411 C100.101,483.092 102.421,485.812 107.381,485.812 C112.261,485.812 116.102,482.771 116.102,476.611 L116.102,452.051 L127.622,452.051 L127.622,493.892 L116.102,493.892 L116.102,487.331 C113.941,491.571 109.701,494.771 102.821,494.771 C94.661,494.771 88.581,489.972 88.581,479.012" id="Fill-7" fill="#0A0B09"></path>
            <path d="M135.301,452.051 L146.901,452.051 L146.901,460.051 C149.541,454.451 153.621,451.49 160.421,451.41 L160.421,462.211 C151.861,462.131 146.901,464.931 146.901,472.931 L146.901,493.892 L135.301,493.892 L135.301,452.051" id="Fill-8" fill="#0A0B09"></path>
            <path d="M204.06,483.812 C215.58,483.812 221.02,477.331 221.02,465.491 L221.02,464.851 C221.02,453.091 215.979,446.771 203.899,446.771 L198.779,446.771 L198.779,483.812 L204.06,483.812 Z M185.819,436.69 L204.54,436.69 C224.62,436.69 234.54,447.57 234.54,464.691 L234.54,465.331 C234.54,482.451 224.54,493.892 204.46,493.892 L185.819,493.892 L185.819,436.69 L185.819,436.69 Z" id="Fill-9" fill="#0A0B09"></path>
            <path d="M241.013,493.892 L252.533,493.892 L252.533,452.051 L241.013,452.051 L241.013,493.892 Z M240.133,440.051 C240.133,436.45 243.013,433.73 246.692,433.73 C250.453,433.73 253.333,436.45 253.333,440.051 C253.333,443.65 250.453,446.37 246.692,446.37 C243.013,446.37 240.133,443.65 240.133,440.051 L240.133,440.051 Z" id="Fill-10" fill="#0A0B09"></path>
            <path d="M290.836,471.891 L290.836,471.331 C290.836,464.211 287.076,459.891 280.756,459.891 C274.276,459.891 270.676,464.531 270.676,471.411 L270.676,472.051 C270.676,479.012 274.756,483.331 280.516,483.331 C286.597,483.331 290.836,479.012 290.836,471.891 Z M259.155,494.771 L270.676,494.771 C271.396,498.452 274.036,500.852 279.956,500.852 C286.996,500.852 290.517,497.172 290.517,490.611 L290.517,484.291 C288.196,488.371 283.236,492.052 277.076,492.052 C266.916,492.052 258.836,484.451 258.836,472.051 L258.836,471.491 C258.836,459.491 266.836,451.091 277.236,451.091 C284.036,451.091 288.116,454.051 290.517,458.291 L290.517,452.051 L302.036,452.051 L302.036,490.611 C301.957,503.012 293.717,509.332 279.956,509.332 C266.436,509.332 260.275,503.412 259.155,494.771 L259.155,494.771 Z" id="Fill-11" fill="#0A0B09"></path>
            <path d="M310.082,493.892 L321.603,493.892 L321.603,452.051 L310.082,452.051 L310.082,493.892 Z M309.202,440.051 C309.202,436.45 312.082,433.73 315.762,433.73 C319.522,433.73 322.402,436.45 322.402,440.051 C322.402,443.65 319.522,446.37 315.762,446.37 C312.082,446.37 309.202,443.65 309.202,440.051 L309.202,440.051 Z" id="Fill-12" fill="#0A0B09"></path>
            <path d="M332.666,481.491 L332.666,460.291 L327.306,460.291 L327.306,452.051 L332.666,452.051 L332.666,443.011 L344.187,443.011 L344.187,452.051 L352.986,452.051 L352.986,460.291 L344.187,460.291 L344.187,480.451 C344.187,483.812 345.866,485.411 348.826,485.411 C350.586,485.411 351.866,485.172 353.227,484.611 L353.227,493.571 C351.626,494.132 349.307,494.691 346.187,494.691 C337.386,494.691 332.666,490.212 332.666,481.491" id="Fill-13" fill="#0A0B09"></path>
            <path d="M356.706,480.771 L367.506,480.771 C367.986,484.531 369.826,486.691 374.866,486.691 C379.346,486.691 381.426,485.012 381.426,482.131 C381.426,479.251 378.946,478.051 372.946,477.171 C361.826,475.491 357.506,472.291 357.506,464.131 C357.506,455.411 365.506,451.091 374.066,451.091 C383.347,451.091 390.307,454.451 391.347,464.051 L380.706,464.051 C380.066,460.611 378.146,459.011 374.146,459.011 C370.386,459.011 368.226,460.771 368.226,463.331 C368.226,465.971 370.226,467.011 376.306,467.891 C386.786,469.411 392.547,472.051 392.547,481.012 C392.547,490.052 385.986,494.771 374.946,494.771 C363.666,494.771 357.105,489.812 356.706,480.771" id="Fill-14" fill="#0A0B09"></path>
        </g>
    </g>
</svg>