<svg xmlns="http://www.w3.org/2000/svg" viewBox="0 0 165 111"><g fill="none" fill-rule="evenodd"><g><g><path fill="#E9842C" d="M126.217 0L8.153 80.39c-.894.505-1.754 1.1-2.563 1.793-6.704 5.736-7.49 15.82-1.753 22.524 5.735 6.704 15.82 7.488 22.523 1.752.81-.693 1.532-1.45 2.168-2.255L126.218 0"/><path fill="#F1AE2B" d="M113.606 11L10.122 81.52c-.78.44-1.532.962-2.24 1.566-5.856 5.012-6.54 13.822-1.53 19.678 5.01 5.857 13.82 6.543 19.678 1.532.707-.605 1.338-1.266 1.893-1.97L113.606 11"/><path fill="#FAD26E" d="M10.403 85.233c-.59.333-1.158.726-1.692 1.183-4.45 3.807-4.97 10.5-1.163 14.95 3.807 4.45 10.5 4.972 14.95 1.164.535-.457 1.01-.957 1.43-1.488L88.624 32l-78.22 53.233z"/><path fill="#FFFFFE" d="M23.226 88.828c2.902 3.393 2.505 8.496-.887 11.4-3.393 2.9-8.497 2.504-11.4-.888-2.9-3.393-2.504-8.496.888-11.398 3.392-2.903 8.496-2.506 11.398.886"/><path fill="#E9842C" d="M78.92 85.373c-.65.365-1.273.8-1.86 1.3-4.87 4.166-5.438 11.488-1.274 16.356 4.165 4.867 11.487 5.437 16.355 1.272.59-.503 1.113-1.052 1.575-1.637L164.648 27 78.92 85.373z"/><path fill="#F1AE2B" d="M154.312 36l-75.14 51.206c-.568.32-1.114.698-1.626 1.137-4.253 3.64-4.75 10.036-1.113 14.29 3.64 4.252 10.037 4.75 14.29 1.11.512-.44.97-.92 1.374-1.43L154.312 36"/><path fill="#FAD26E" d="M136.72 51L79.922 89.652c-.428.243-.84.528-1.228.86-3.23 2.764-3.61 7.624-.846 10.856 2.764 3.23 7.624 3.61 10.856.845.387-.332.733-.695 1.04-1.08L136.718 51"/><path fill="#FFFFFE" d="M89.33 92.054c2.107 2.464 1.82 6.17-.644 8.276-2.464 2.108-6.17 1.82-8.276-.644-2.108-2.463-1.82-6.17.644-8.276 2.463-2.107 6.168-1.82 8.275.644"/></g></g></g></svg>