<svg xmlns="http://www.w3.org/2000/svg" viewBox="0 0 143 143"><g fill="none" fill-rule="evenodd" opacity=".571"><g><g><path fill="#5FA0CA" d="M141.818 81.66c-5.726 38.95-41.943 65.883-80.893 60.158C21.975 136.092-4.96 99.876.767 60.925 6.492 21.975 42.707-4.96 81.66.767c38.95 5.725 65.883 41.94 60.158 80.892"/><path fill="#5FA0CA" d="M141.818 81.66c-5.726 38.95-41.943 65.883-80.893 60.158C21.975 136.092-4.96 99.876.767 60.925 6.492 21.975 42.707-4.96 81.66.767c38.95 5.725 65.883 41.94 60.158 80.892"/><path fill="#41839F" d="M142.14 69.064c-.033-1.362-.1-2.717-.208-4.064l-1.932.917 2.14 3.147M40.31 24.41c1.177.514 2.26.867 3.242 1.07l1.41-1.503L40.63 18 37 19.723l3.145 4.625.164.062M89.988 72.502c-.313 4.53-3.8 5.302-9.14 2.974-5.343-2.328-13.17 3.28-14.18 7.307 0 0-.197 4.066-.648 9.145-.45 5.078 6.76 3.7 9.785.18 3.023-3.523 4.98-6.74 8.316-7.054 3.34-.315 7.406 1.002 11.278 1.973 3.87.972 1.074-11.17-1.305-15.142-2.378-3.97-3.79-3.914-4.105.617M128.658 90.732c-.603 8.712-7.306 10.196-17.578 5.72-6.583-2.87-15.123.533-20.923 5.38l-.275-.33-13.492 7.107L66 119.25l7.29 11.255 4.97 5.665-3.05 5.635c12.907-.723 25.09-4.948 35.45-11.853l-8.014-3.017c5.123-6.16 8.79-11.504 14.73-12.065 2.818-.266 5.906.074 9.114.695 5.192-6.38 9.324-13.714 12.083-21.772-.663-1.667-1.35-3.126-2.02-4.246-4.575-7.635-7.293-7.526-7.895 1.185M96.038 25.588c1.1-4.39-10.05-12.628-13.862-14.99-3.813-2.364-9.6 2.96-10.394 4.24-3.48 5.606 5.722 10.248 6.636 11.772.913 1.525 16.52 3.367 17.62-1.022M86.286 48.28c-1.92 2.805 6.467 4.788 6.467 4.788s6.384 2.697 8.876.522c2.492-2.174.006-7.788-4.316-9.97-4.322-2.178-9.108 1.855-11.028 4.66M48.315 80.62c-4.322-2.178-9.108 1.855-11.03 4.66-1.92 2.805 6.47 4.788 6.47 4.788s6.383 2.696 8.876.522c2.494-2.174.007-7.79-4.315-9.97"/><path fill="#41839F" d="M114.314 78.62c-4.322-2.178-9.108 1.855-11.028 4.66s6.468 4.788 6.468 4.788 6.383 2.696 8.876.522c2.493-2.174.007-7.79-4.316-9.97M120.63 37.59c2.494-2.174.007-7.79-4.315-9.968-4.322-2.18-9.108 1.853-11.03 4.658-1.92 2.805 6.47 4.788 6.47 4.788s6.382 2.696 8.875.522M59.315 55.62c-4.322-2.178-9.108 1.855-11.03 4.66-1.92 2.805 6.47 4.788 6.47 4.788s6.382 2.696 8.876.522c2.494-2.174.007-7.79-4.315-9.97M21.717 55C12.43 55.096 7.83 66.19 7.03 72.66c-.803 6.474 15.24 2.458 15.24 2.458s13.256-1.03 15.59-6.933c2.33-5.903-6.856-13.28-16.143-13.184M38.02 124.415l8.316 2.086 1.95-2.52 6.15-1.277 1.918 2.103 3.393-3.03-3.09-7.922-3.406-2.17-7.215 4.02-9.82-5.096-2.657 4.6-3.137-6.994 6.55-.614 6.28 3.456 3.322-1.988 8.804.892-5.08-8.987-7.964-1.998-4.473 4.333-2.165-4.87L28.122 96C21.597 98.697 15.49 102.327 10 106.763c5.276 9.156 12.555 17.097 21.332 23.155l.62-.817 6.068-4.685M133.914 46.242l5.394 5.49-.8 3.187-10.044.3-.8 6.947-4.495-4.584-6.17 2.85 2.12 5.798 4.953 1.996 10.403-4.726 1.678 3.806s-2.525 3.317-1.243 4.955c1.162 1.485 6.355 4.596 7.33 5.172.237-2.686.32-5.352.26-7.993l-2.14-3.148 1.93-.917c-.665-8.203-2.746-16.09-6.025-23.375l-2.35 4.242M40.253 17.764l4.332 5.977-1.41 1.505c-.983-.204-2.065-.557-3.243-1.07l-.164-.063-3.145-4.625 3.63-1.723zm-9.513-1.07l1.68 3.807s-2.526 3.318-1.244 4.956l.008.01c-2.735 1.614-4.928 4.01-5.43 6.016 0 0-.198 4.066-.65 9.144-.45 5.078 6.762 3.7 9.786.18 3.023-3.522 4.98-6.738 8.316-7.053 3.338-.315 7.405 1.002 11.277 1.973 3.87.97 1.074-11.17-1.305-15.142-.204-.34-.398-.64-.588-.922-.162-.616-.344-1.226-.52-1.837 4.93.576 11.553.317 12.256-2.487.915-3.65-6.633-9.956-11.398-13.338C40.342 5.334 28.965 12.06 20 21.284l.338.136 10.402-4.726z"/><path fill="#1D2533" d="M72.18 142.816c31.283-.473 58.87-21.544 67.424-51.816-8.553 30.274-36.138 51.346-67.424 51.816m-11.525-.76l-.1-.014.1.015m-.134-.02l-.073-.01.074.01m-.105-.016l-.204-.03.205.03m-.236-.035c-.026-.004-.052-.008-.077-.01l.076.01m-.105-.016l-.208-.033c.07.01.137.02.208.032m-.234-.038l-.078-.012.08.012m-.11-.017l-.1-.016.1.015m-.1-.016l-.106-.018c.035.006.07.01.105.017m-.128-.022l-.084-.014.084.014m-.107-.018c-.07-.01-.142-.023-.212-.035l.212.035m-.23-.038l-.085-.014.086.014m-.113-.02c-.07-.01-.14-.023-.208-.035l.208.036m-.23-.04l-.085-.014.086.014m-.108-.02c-.034-.005-.067-.01-.1-.017l.1.018m-.104-.018l-.108-.02.108.02m-.123-.022l-.09-.016.09.015m-.114-.02l-.098-.018.098.018m-.102-.02c-.038-.005-.07-.012-.108-.018l.108.02m-.122-.023c-.032-.006-.06-.01-.092-.017.03.006.06.01.092.017m-.113-.02l-.097-.018c.032.006.064.01.096.017m-.105-.02c-.037-.006-.07-.012-.107-.02.037.008.07.014.107.02m-.12-.02l-.09-.018c.03.005.06.01.09.017m-.114-.022l-.094-.018.095.018m-.102-.02l-.106-.02.106.02m-.124-.023c-.028-.006-.057-.01-.085-.017.027.006.056.01.084.017m-.112-.022l-.083-.016.082.015m-.104-.02l-.1-.02.1.02m-.125-.025l-.077-.015.077.015m-.11-.022l-.08-.016.08.016m-.1-.02l-.102-.02.103.02m-.122-.024l-.083-.017c.028.005.057.01.084.017m-.11-.023c-.027-.004-.053-.01-.08-.016l.08.017m-.103-.02l-.1-.02.1.02m-.12-.025c-.028-.006-.055-.01-.08-.017l.08.017m-.116-.024l-.07-.014.07.015m-.1-.02l-.097-.02.098.02m-.123-.026l-.075-.016.075.016m-.11-.024l-.072-.015.072.015m-.1-.02c-.034-.01-.064-.015-.097-.022l.097.02m-.128-.027l-.07-.014.07.015m-.11-.023l-.064-.014.065.014m-.098-.02c-.032-.008-.064-.016-.095-.022l.095.02m-.125-.027l-.07-.016.07.016m-.108-.024l-.065-.015.064.014m-.103-.023l-.092-.02.092.02m-.126-.028c-.02-.005-.04-.01-.063-.014l.064.014m-.11-.025l-.05-.012.05.012m-.097-.023c-.02-.004-.04-.01-.06-.013l.06.014m-.136-.03c-.015-.005-.034-.01-.05-.012l.05.01m-.1-.022c-.016-.004-.03-.008-.047-.01.016.002.03.006.047.01m-.097-.023l-.05-.012.05.012m-.142-.034l-.04-.01.04.01m-.097-.023l-.036-.01.037.01m-.093-.023l-.036-.008c.012 0 .025.005.037.007m-.146-.035l-.03-.007.03.007m-.09-.022l-.034-.008.033.008m-.096-.024l-.023-.005.024.006m-.157-.038c-.004 0-.01-.003-.014-.004.004 0 .01.002.014.004m-.084-.02c-.006-.003-.015-.005-.022-.007l.023.007m-.09-.023l-.012-.003.012.004m-.24-.06l-.017-.005.016.003m-.088-.023c-.002 0-.005 0-.007-.002l.007.002m-.244-.063c-.004 0-.005 0-.008-.002l.008.002"/><path fill="#548FB5" d="M71.187 141.998c-3.45 0-6.942-.25-10.456-.767l-.1-.014-.033-.005-.074-.01-.032-.005-.203-.03-.032-.006-.076-.012-.03-.005c-.07-.01-.136-.02-.207-.032-.008 0-.017-.002-.026-.004l-.08-.012c-.008 0-.02-.003-.028-.005l-.102-.017c-.036-.006-.07-.01-.106-.017-.007 0-.017-.003-.024-.004l-.084-.014c-.01 0-.014-.002-.023-.004-.07-.01-.14-.023-.21-.035l-.018-.004-.086-.014-.027-.005-.21-.036c-.006 0-.013 0-.02-.002l-.086-.015c-.007 0-.015-.003-.022-.004l-.1-.02h-.004l-.108-.018-.015-.003-.09-.017c-.008 0-.014-.003-.023-.004l-.098-.02h-.004l-.108-.02c-.004 0-.01 0-.014-.002-.03-.006-.06-.01-.092-.017-.007 0-.013 0-.02-.003-.033-.006-.065-.01-.097-.017l-.01-.002-.106-.02-.013-.002-.09-.017-.023-.006-.095-.018h-.008l-.106-.022c-.007 0-.01-.002-.018-.003l-.085-.016c-.01 0-.018-.003-.027-.005l-.083-.017c-.007 0-.014-.003-.02-.004-.033-.008-.07-.015-.1-.02l-.026-.006-.078-.015-.033-.008-.08-.016c-.008 0-.014-.002-.02-.004l-.103-.02-.02-.004-.084-.017c-.01 0-.017-.003-.026-.005-.028-.005-.055-.01-.082-.017-.007 0-.015-.003-.022-.004l-.1-.02-.02-.005-.08-.018-.036-.007-.072-.015-.028-.006-.098-.02-.027-.006-.075-.016-.035-.008-.072-.015c-.007-.003-.02-.005-.027-.007l-.097-.02-.03-.008-.07-.015-.04-.01-.064-.013-.034-.007c-.033-.008-.063-.014-.095-.02-.01-.004-.02-.006-.03-.008l-.07-.016-.038-.008-.064-.015-.037-.008-.092-.02-.033-.01c-.02-.003-.043-.01-.064-.013l-.046-.01-.052-.013-.046-.012c-.022-.004-.04-.01-.062-.013l-.075-.018c-.016-.004-.033-.008-.05-.01-.016-.006-.033-.01-.05-.013-.017-.004-.03-.008-.047-.01-.017-.005-.033-.01-.05-.013l-.05-.01-.092-.023-.04-.01-.057-.013-.037-.01c-.02-.003-.038-.008-.057-.013-.012 0-.025-.005-.036-.007l-.11-.027-.03-.007c-.022-.007-.04-.01-.062-.016l-.033-.008-.062-.016-.023-.005c-.045-.01-.09-.022-.134-.033l-.014-.004c-.025-.006-.047-.01-.07-.017-.01-.002-.014-.002-.023-.005l-.07-.017-.01-.003c-.076-.02-.154-.04-.23-.058l-.016-.004-.072-.02h-.007c-.078-.02-.157-.04-.236-.062h-.008c-16.49-4.288-30.352-14.186-39.798-27.288 4.75 6.584 10.613 12.358 17.365 17.018l.62-.817 6.068-4.686 8.317 2.086 1.95-2.52 6.15-1.278 1.918 2.103 3.393-3.03-3.09-7.922-.405-.257h.57c6.26 0 12.382-.825 18.24-2.387l-8.426 8.63 7.29 11.254 4.97 5.665-3.05 5.635c12.907-.723 25.09-4.948 35.45-11.853l-8.014-3.017c5.123-6.16 8.79-11.504 14.73-12.065.66-.062 1.337-.09 2.025-.09 2.247 0 4.633.31 7.09.785 5.19-6.38 9.323-13.714 12.082-21.772-.663-1.667-1.35-3.126-2.02-4.246-2.197-3.667-3.966-5.548-5.277-5.548-1.42 0-2.305 2.204-2.618 6.732-.385 5.562-3.256 8.177-7.954 8.178-2.66 0-5.908-.84-9.623-2.458-1.668-.727-3.463-1.052-5.306-1.052-1.026 0-2.068.1-3.112.29 2.8-2.415 5.417-5.048 7.82-7.878 1.2.394 3.03.886 4.687.886 1.115 0 2.152-.222 2.868-.847 1.924-1.678.882-5.406-1.68-8.022 2.512-3.967 4.65-8.212 6.356-12.7l1.28.516L134.345 63l1.678 3.806s-2.525 3.317-1.243 4.955c1.16 1.485 6.353 4.596 7.327 5.172.238-2.686.322-5.352.26-7.993l-2.14-3.148 2.14 3.147c-.028-1.176-.08-2.345-.166-3.51.376 5.118.2 10.355-.576 15.642-.458 3.114-1.11 6.152-1.944 9.102-8.553 30.272-36.14 51.343-67.424 51.816-.356.005-.712.008-1.07.008m-25.84-26.802l-9.82-5.096-2.657 4.6-2.942-6.558c4.97 1.952 10.24 3.372 15.748 4.182 1.33.195 2.655.352 3.977.473l-4.307 2.4m-32.1-2.85l-.018-.024c.006.01.012.016.018.024m-3.934-6.092C6.09 100.665 3.616 94.623 2 88.28c4.204 4.893 9.074 9.226 14.5 12.847-2.494 1.563-4.895 3.275-7.188 5.128"/><path fill="#3C768F" d="M142.14 69.064L140 65.917l1.93-.917c.016.186.03.37.044.556.085 1.164.138 2.333.166 3.508M75.21 141.805l3.05-5.635-4.97-5.665L66 119.25l8.425-8.63c10.486-2.794 20.13-7.944 28.236-14.93 1.045-.19 2.087-.29 3.114-.29 1.843 0 3.638.325 5.306 1.052 3.715 1.618 6.962 2.458 9.624 2.458 4.698 0 7.57-2.616 7.954-8.178.313-4.528 1.198-6.732 2.618-6.732 1.31 0 3.08 1.88 5.276 5.547.67 1.12 1.358 2.58 2.02 4.246-2.758 8.058-6.89 15.392-12.082 21.772-2.456-.476-4.842-.786-7.09-.786-.687 0-1.363.028-2.023.09-5.94.56-9.608 5.904-14.73 12.065l8.014 3.017c-10.36 6.905-22.543 11.13-35.45 11.853M115.687 88.87c-1.658 0-3.488-.493-4.687-.887 2.13-2.51 4.097-5.178 5.874-7.983 2.563 2.616 3.605 6.344 1.68 8.022-.715.625-1.752.847-2.867.847M31.33 129.283c-6.75-4.66-12.615-10.434-17.364-17.018l-.032-.045-.018-.024c-1.405-1.953-2.713-3.98-3.916-6.068 2.293-1.853 4.694-3.565 7.188-5.128 4.166 2.782 8.66 5.143 13.428 7.015l2.94 6.558 2.66-4.6 9.818 5.096 4.307-2.4c1.984.18 3.95.276 5.91.292l.405.257 3.09 7.922-3.392 3.03-1.917-2.104-6.152 1.278-1.95 2.52-8.315-2.086-6.068 4.686-.62.817"/><path fill="#548FB5" d="M127.39 62.445l-2.37-2.416c.583-2.315 1.053-4.677 1.408-7.087 1.414-9.62.833-19.074-1.428-27.943 4.46 5.19 8.17 11.012 10.992 17.278l-2.35 4.242 5.393 5.49-.8 3.187-10.044.3-.8 6.948m12.626-8.702v-.004.003m-.06-.227c0-.007-.002-.013-.003-.02 0 .007.003.014.004.02m-.027-.103l-.01-.037.01.037m-.027-.103l-.01-.044.01.044m-.025-.098l-.036-.13.036.13m-.038-.14l-.02-.078.02.078m-.026-.097l-.02-.08.02.08m-.025-.093c-.84-3.095-1.884-6.118-3.12-9.047 1.237 2.93 2.28 5.95 3.12 9.047m-3.125-9.06l-.022-.052.022.052m-.044-.104c-.004-.013-.01-.025-.015-.038l.016.038m-.047-.115l-.008-.018.008.018"/><path fill="#3C768F" d="M142.448 77.432c-.974-.576-6.167-3.687-7.328-5.17-1.282-1.64 1.243-4.956 1.243-4.956l-1.678-3.806-10.403 4.726L123 67.71c.98-2.575 1.82-5.235 2.503-7.96l2.37 2.417.8-6.947 10.045-.3.8-3.187-5.395-5.49 2.35-4.243c.196.433.387.87.574 1.307l.008.018.032.077.016.038.022.052.022.052.006.013c1.235 2.93 2.28 5.952 3.118 9.047l.005.014.02.08.006.018.022.078.002.01.036.13.014.054c.004.014.008.03.01.044l.02.066.008.037.023.084c0 .005.003.01.004.018l.057.223v.005c.997 3.868 1.673 7.852 2.002 11.91l-1.932.917 2.14 3.147c.062 2.64-.022 5.306-.26 7.992"/></g></g></g></svg>