<svg xmlns="http://www.w3.org/2000/svg" viewBox="0 0 1492 1492"><g fill="none" fill-rule="evenodd"><g><g><path fill="#DE4D52" d="M1467.62 933.31c-103.51 398.607-510.565 637.83-909.182 534.32-398.606-103.52-637.83-510.575-534.32-909.18C127.642 159.83 534.705-79.39 933.312 24.12c398.607 103.52 637.83 510.574 534.31 909.19"/><path fill="#D9444E" d="M14.758 893.29c212.01 7.106 787.627-13.043 1443.468-368.064-25.49-82.022-64.936-158.98-116.31-227.415C1128.907 444.354 641.78 716.32 3.205 678.163-3.55 751.29.674 823.652 14.758 893.29M1467.62 933.31c19.83-76.34 27.042-152.99 23.01-227.755-168.31 126.213-684.362 460.607-1384.564 423.256 32.458 54.224 71.734 104.373 117.053 148.99 221.18 1.436 686.648-32.128 1226.382-285.053 6.788-19.383 12.873-39.202 18.117-59.436M693.45 1489.81c176.67 12.65 348-38.606 486.425-137.584-139.5 57.51-303.128 108.51-486.426 137.585M1204.758 157.917C1126.736 96.97 1035.248 50.597 933.31 24.12c-358.467-93.086-723.7 91.03-868.935 418.935 244.436-8.36 663.585-61.117 1140.383-285.138"/><path fill="#C6394A" d="M1197.885 542.502c-19.65 75.67-96.925 121.096-172.606 101.436-75.67-19.66-121.086-96.936-101.437-172.606 19.66-75.68 96.936-121.096 172.606-101.436 75.67 19.66 121.095 96.936 101.435 172.606"/><path fill="#D44348" d="M923.428 472.98c.01-.03.01-.073.02-.105-.01.042-.01.063-.02.106m.127-.51c.01-.042.022-.074.032-.117-.01.043-.02.075-.032.117m.128-.51c.01-.043.02-.085.032-.128-.01.043-.02.096-.032.128m.84-3.15c17.394-62.297 74.075-103.446 136.118-103.49-62.042.055-118.723 41.193-136.116 103.49m202.5-87.084c-.01 0-.022-.01-.022-.01s.01.01.022.01m-.97-.51c-.04-.022-.094-.044-.137-.065.053.022.085.044.138.065m-.436-.213c-.065-.042-.14-.074-.213-.117.063.043.148.075.212.117m-.416-.213c-.085-.054-.18-.096-.266-.14.086.044.17.086.266.14m-.35-.18c-8.458-4.278-17.48-7.757-26.98-10.33 9.51 2.563 18.522 6.052 26.98 10.33m-27.14-10.374c-.105-.032-.19-.053-.297-.085.107.033.202.054.298.086m-.532-.15c-.085-.02-.16-.04-.245-.062.086.02.16.042.245.063m-36.383-4.766h-.042.042"/><path fill="#B13544" d="M951.534 596.81c-27.415-33.393-39.234-78.818-28.106-123.83.01-.042.01-.063.02-.105.033-.14.065-.266.107-.405.01-.042.022-.074.032-.117l.096-.393c.01-.032.02-.085.032-.128.043-.16.085-.33.128-.5.223-.84.447-1.68.68-2.52 17.394-62.3 74.075-103.437 136.118-103.49h.16c11.755 0 23.734 1.478 35.65 4.574.16.042.33.085.488.128.086.02.16.042.245.063.075.022.16.043.234.064.107.033.192.054.298.086.053.01.106.022.16.043 9.5 2.573 18.52 6.052 26.978 10.33.032.01.054.02.085.04.086.044.18.086.266.14.064.03.128.063.203.095.074.043.148.075.212.117.106.043.2.096.297.15.043.02.096.042.138.063.31.17.628.34.947.5 0 0 .01.01.022.01 32.414 17.096 56.372 45.958 67.86 79.628-18.34-22.35-43.637-39.308-73.754-47.138-11.936-3.096-23.904-4.574-35.68-4.574-62.926 0-120.373 42.277-136.926 106.01-7.224 27.83-5.628 55.852 3.01 81.16"/><path fill="#C6394A" d="M731.907 859.79c-13.405 51.606-66.096 82.574-117.692 69.17-51.606-13.405-82.574-66.096-69.17-117.692 13.393-51.606 66.096-82.574 117.69-69.17 51.608 13.394 82.576 66.085 69.172 117.69"/><path fill="#C13D48" d="M544.417 813.82v-.02.02m.256-1.094v-.01.01m.085-.33c0-.032.01-.064.02-.096-.01.032-.02.064-.02.096m.085-.35c.01-.033.01-.065.02-.097-.01.03-.01.063-.02.095m.085-.35c.01-.033.02-.065.02-.097 0 .032-.01.064-.02.096m.298-1.128c11.51-43.032 50.425-71.542 93.053-71.596-42.63.054-81.544 28.564-93.054 71.596m120.925-67.52h-.01.01m-1.105-.32c-.02-.01-.043-.01-.053-.022.01.01.032.01.053.022m-.372-.107c-.01-.01-.032-.01-.054-.022.02.01.03.01.053.02m-.777-.21c-.02-.012-.043-.012-.064-.023.02.01.043.01.064.022m-.35-.096l-.097-.03.095.03m-.362-.095c-.032-.01-.064-.02-.096-.032.032.01.064.02.096.032m-24.745-3.245h-.03.03"/><path fill="#B13544" d="M563.917 896.81c-18.393-22.403-26.49-52.765-19.5-82.99v-.02c.085-.362.17-.713.256-1.074v-.01c.03-.107.053-.214.085-.32 0-.032.01-.064.02-.096l.065-.255c.01-.032.01-.064.02-.096l.065-.256c.01-.032.02-.064.02-.096.033-.106.065-.223.097-.33.053-.234.117-.468.18-.702 11.51-43.032 50.426-71.542 93.054-71.596h.157c8.023 0 16.182 1.01 24.3 3.128.116.02.233.053.35.085.032.01.064.02.096.032.085.02.17.043.266.064l.095.03c.096.022.19.054.287.075.02.01.043.01.064.022.245.063.48.127.723.19.02.012.042.012.053.022.106.03.212.052.32.084.01.01.03.01.052.022.362.106.734.212 1.096.32h.01c30.916 9.233 53.937 32.765 63.703 61.414-12.5-15.245-29.755-26.81-50.287-32.15-8.138-2.106-16.298-3.116-24.33-3.116-42.904 0-82.074 28.83-93.36 72.287-4.927 18.97-3.842 38.075 2.04 55.33"/><path fill="#C6394A" d="M1063.396 204.172c-8.713 33.543-42.968 53.67-76.51 44.97-33.554-8.725-53.682-42.98-44.97-76.523 8.714-33.543 42.97-53.682 76.512-44.958 33.542 8.702 53.67 42.968 44.968 76.51"/><path fill="#C13D48" d="M939.896 187.758v-.075.075m0-.373c0-.053.01-.117.01-.17 0 .053-.01.117-.01.17m.01-.32c0-.095 0-.19.01-.286-.01.095-.01.19-.01.286m.01-.383c0-.096 0-.19.012-.287-.01.096-.01.19-.01.287m.01-.34c0-.117.01-.234.01-.362 0 .13-.01.246-.01.363m.01-.394c.17-4.288.788-8.607 1.883-12.916-1.094 4.31-1.71 8.628-1.882 12.915m1.883-12.958c.033-.117.065-.245.097-.373-.032.127-.064.255-.096.372m.097-.373c.064-.245.128-.48.202-.724-.075.245-.14.48-.203.723m.32-1.17c.03-.118.074-.246.106-.363-.032.117-.075.245-.107.362m.16-.565c7.904-27.234 32.798-45.19 60.053-45.255-27.256.064-52.15 18.02-60.054 45.255m83.51-40.787c-.01 0-.03-.01-.042-.01.01 0 .032.01.043.01m-.437-.17c-.02-.01-.042-.01-.063-.02.02.01.042.01.063.02m-.266-.107c-.02 0-.053-.01-.074-.02.02.01.053.02.074.02m-.414-.148c-.043-.02-.075-.03-.118-.042.043.01.075.02.118.042m-.298-.117c-.085-.02-.16-.053-.245-.085.085.032.16.064.245.085m-.415-.148c-.053-.022-.107-.032-.16-.054.053.022.107.032.16.054m-.362-.128c-.064-.022-.138-.054-.213-.076.075.022.15.054.213.075m-.362-.13c-.074-.02-.15-.052-.223-.073.074.02.15.053.223.074m-.372-.126c-.084-.032-.148-.054-.233-.075.085.02.15.042.234.074m-.36-.117c-.096-.043-.192-.064-.288-.107.096.032.192.064.287.107m-.405-.14c-.074-.02-.15-.052-.223-.073.074.02.15.053.223.074m-.33-.106c-.106-.032-.212-.064-.32-.107.107.043.214.075.32.107m-.404-.128c-.095-.032-.19-.064-.276-.085.096.02.18.052.277.084m-.35-.106c-.106-.032-.213-.075-.32-.096l.32.096m-.415-.128l-.32-.096.32.096m-.394-.117c-.084-.032-.18-.053-.275-.085.096.032.19.053.276.085m-.36-.106c-.107-.032-.224-.064-.33-.096.106.033.223.065.33.097m-.415-.117c-.096-.032-.192-.053-.287-.085.095.032.19.053.287.085m-.35-.096c-.108-.032-.225-.064-.342-.096.117.032.234.064.34.096m-.414-.117c-.118-.032-.235-.064-.352-.085.117.032.234.053.35.085m-.797-.202c-.052-.01-.105-.032-.17-.043.065.01.118.032.17.043m-15.34-1.915h-.03.03"/><path fill="#B13544" d="M954.194 228.247c-9.224-11.234-14.458-25.532-14.298-40.49v-.074-.298c0-.053.01-.117.01-.17v-.15c0-.095 0-.19.01-.286v-.097c0-.096 0-.19.012-.287v-.053c0-.117.01-.234.01-.362v-.03c.17-4.288.788-8.607 1.883-12.916v-.042c.033-.117.065-.245.097-.373.064-.245.128-.48.202-.724.03-.15.074-.298.116-.447.032-.118.075-.246.107-.363.02-.063.032-.138.053-.202 7.904-27.234 32.798-45.19 60.053-45.255h.19c5.01 0 10.107.606 15.17 1.872.065.01.118.032.17.043.15.032.3.074.448.117.117.02.234.053.35.085.022.01.054.02.075.02.117.033.234.065.34.097.022 0 .043.01.065.01.095.033.19.054.287.086.032.01.064.01.085.02.106.033.223.065.33.097.032.01.053.01.085.02.096.033.19.054.276.086.033.01.055.01.076.02l.32.097c.03.01.063.02.095.032.107.02.214.064.32.096.032 0 .053.01.074.02.086.022.18.054.277.086.033.01.065.01.086.02.106.044.213.076.32.108l.106.032c.074.02.15.053.223.074.043.01.085.02.117.032.096.043.192.064.287.107.042.01.084.02.127.042.085.02.15.042.234.074.044.01.097.03.15.053.074.02.15.053.223.074.054.022.096.033.15.054.074.022.148.054.212.075.075.02.138.04.202.073.053.022.107.032.16.054.064.02.117.042.17.063.085.032.16.064.245.085.063.022.117.054.18.075.043.01.075.02.118.042.117.043.223.086.34.128.02.01.053.02.074.02.064.033.14.065.203.087.02.01.042.01.063.02.128.054.256.107.394.16.01 0 .032.01.043.01 17.446 6.937 30.372 21.14 36.16 38.097-8.13-9.894-19.352-17.426-32.703-20.894-5.287-1.372-10.585-2.02-15.81-2.02-27.892 0-53.36 18.733-60.7 47-3.192 12.318-2.49 24.744 1.34 35.967"/><path fill="#C6394A" d="M376.98 767.62c-13.393 51.606-66.095 82.574-117.69 69.17-51.607-13.405-82.575-66.096-69.17-117.692 13.404-51.606 66.095-82.574 117.69-69.17 51.607 13.393 82.575 66.085 69.17 117.69"/><path fill="#C13D48" d="M187.194 737.28v-.012.01m.053-.7c0-.044 0-.086.01-.118-.01.042-.01.074-.01.117m.02-.32c0-.063.012-.127.012-.19 0 .063-.012.127-.012.19m.022-.297c.01-.075.01-.16.02-.234-.01.074-.01.16-.02.234m.02-.288c.426-5.19 1.267-10.414 2.575-15.638-1.308 5.224-2.15 10.447-2.574 15.638m2.586-15.712c.02-.075.042-.16.064-.234-.022.085-.043.16-.064.234m.096-.34c.01-.075.032-.14.042-.203-.01.064-.032.138-.042.202"/><path fill="#D44348" d="M210.715 679.97c18.085-20.755 44.553-33.138 72.638-33.17-28.085.032-54.553 12.415-72.638 33.17"/><path fill="#C13D48" d="M190.3 718.396c3.936-14.68 11.053-27.68 20.415-38.426-9.362 10.745-16.48 23.745-20.415 38.426"/><path fill="#D44348" d="M308.96 650.226h-.01.01m-.35-.096c-.023 0-.044-.01-.076-.02.032.01.053.02.075.02m-.363-.096c-.02 0-.043-.01-.074-.02.02.01.053.02.074.02m-24.734-3.234h-.032.033"/><path fill="#B13544" d="M208.992 804.64c-15.213-18.53-23.383-42.52-21.798-67.36v-.012c.02-.234.032-.457.053-.69 0-.044 0-.076.01-.118 0-.064 0-.14.01-.202 0-.064.012-.128.012-.192 0-.042.01-.074.01-.106.01-.075.01-.16.02-.234v-.054c.426-5.19 1.267-10.414 2.575-15.638 0-.02.01-.053.01-.074.022-.075.043-.15.065-.234.01-.032.02-.075.032-.107.01-.065.032-.14.042-.203.032-.106.064-.223.085-.32.063-.233.127-.467.18-.7 3.936-14.682 11.053-27.682 20.415-38.427 18.085-20.755 44.553-33.138 72.638-33.17h.161c8.02 0 16.18 1.01 24.298 3.128.128.02.245.053.363.085.03.01.053.02.074.02.096.033.19.054.287.076.032.01.053.02.075.02.116.032.233.064.34.096h.01c32.053 8.744 55.968 32.723 65.978 62.053-12.51-15.235-29.755-26.81-50.297-32.14-8.138-2.116-16.287-3.116-24.33-3.116-42.903 0-82.074 28.83-93.36 72.287-4.926 18.97-3.84 38.075 2.042 55.33"/><path fill="#C6394A" d="M712.577 1318.28c-13.404 51.595-66.096 82.563-117.702 69.17-51.596-13.395-82.564-66.097-69.16-117.703 13.394-51.596 66.085-82.553 117.692-69.16 51.595 13.394 82.563 66.085 69.17 117.692M1069.8 1257.736c-13.393 51.607-66.096 82.575-117.702 69.17-51.596-13.404-82.564-66.095-69.16-117.68 13.405-51.607 66.096-82.575 117.692-69.17 51.596 13.393 82.564 66.095 69.17 117.68M1312.12 903.61c-7.682 29.54-37.84 47.265-67.362 39.594-29.543-7.68-47.256-37.83-39.596-67.36 7.68-29.533 37.83-47.257 67.372-39.586 29.52 7.67 47.245 37.83 39.585 67.35M622.14 263.162c-7.67 29.532-37.83 47.255-67.35 39.585-29.543-7.66-47.266-37.83-39.596-67.35 7.68-29.544 37.83-47.267 67.36-39.586 29.533 7.66 47.257 37.82 39.587 67.352"/><path fill="#C13D48" d="M514.65 237.704c0-.02.012-.042.012-.063 0 .022-.01.043-.01.064m.074-.372c.01-.032.02-.074.032-.106l-.032.106m.064-.266c.02-.085.03-.16.053-.234-.022.075-.032.15-.053.234m.085-.362c.01-.063.032-.138.042-.202-.01.064-.032.14-.042.202m.085-.34c.01-.075.032-.15.053-.223-.02.075-.043.15-.053.224m.074-.31c.02-.094.043-.19.064-.286-.02.096-.043.192-.064.287m.085-.36c.03-.097.053-.203.074-.3-.02.097-.043.203-.075.3m.074-.3c.042-.16.085-.308.127-.467-.04.16-.084.308-.126.468m.18-.68c6.68-24.448 28.83-40.64 53.107-40.692-24.276.063-46.425 16.244-53.105 40.69m68.723-38.478c-.01-.01-.02-.01-.032-.01.01 0 .02 0 .032.01m-.606-.18c-.054-.01-.096-.022-.14-.032.044.01.086.02.14.03m-.277-.073c-.085-.02-.17-.042-.266-.063.095.02.18.043.265.064m-.362-.095c-.095-.02-.19-.053-.298-.074.107.022.203.054.298.075m-.606-.16c-.117-.03-.245-.053-.362-.084.117.032.245.054.362.086m-13.596-1.702h-.02.02"/><path fill="#B13544" d="M526.002 284.353c-10.36-12.606-15.01-29.638-11.35-46.65 0-.02.01-.04.01-.062.02-.106.042-.202.064-.308.01-.032.02-.074.032-.106.01-.054.02-.107.032-.16.02-.085.03-.16.053-.234.01-.043.02-.085.032-.128.01-.063.032-.138.042-.202.01-.042.032-.095.043-.138.01-.075.032-.15.053-.223 0-.03.01-.053.02-.085l.065-.287c.01-.02.02-.053.02-.074.033-.096.055-.202.076-.298.042-.16.085-.31.127-.468.023-.064.033-.14.055-.213 6.68-24.447 28.83-40.628 53.106-40.69H568.65c4.374 0 8.81.52 13.235 1.616.117.032.245.054.362.086.106.032.213.053.308.085.107.022.203.054.298.075l.096.032c.095.02.18.043.265.064.043.012.085.033.138.044.043.01.085.02.14.03.19.055.382.118.573.172.01 0 .02 0 .032.01 17.904 5.192 31.234 18.734 36.872 35.256-7.16-8.713-17.032-15.34-28.776-18.383-4.67-1.214-9.34-1.79-13.936-1.79-24.554 0-46.968 16.49-53.426 41.363-2.82 10.862-2.202 21.81 1.17 31.67"/><path fill="#C6394A" d="M265.45 332.992c-4.033 15.52-19.863 24.83-35.384 20.797-15.51-4.022-24.808-19.873-20.787-35.373 4.02-15.51 19.87-24.82 35.382-20.787 15.51 4.02 24.82 19.862 20.787 35.362"/><path fill="#C13D48" d="M211.332 338.524c0-.01-.01-.022-.01-.032 0 .01.01.02.01.032m-.085-.17c-.01-.022-.02-.043-.02-.054 0 .01.01.032.02.053m-.074-.17c-.01-.02-.032-.042-.043-.074.01.03.032.052.043.073m-.075-.138c-.064-.138-.128-.277-.19-.415.062.138.126.277.19.415m-.19-.415c-2.384-5.287-3.214-11.32-2.044-17.383-1.17 6.053-.34 12.085 2.043 17.383m-2.043-17.394c.01-.053.02-.106.032-.15l-.032.15m.043-.202l.03-.15-.03.15m.042-.19c.01-.044.02-.097.03-.15-.01.053-.02.106-.03.15m.03-.182c.022-.096.044-.192.065-.277-.02.085-.043.18-.064.277m.075-.34c.01-.043.022-.075.032-.118-.01.043-.02.075-.032.117m.054-.2c0-.033.01-.065.02-.107-.01.042-.02.074-.02.106m.04-.203c.012-.032.023-.064.023-.096 0 .033-.01.065-.022.097m.054-.223c.01-.022.01-.043.022-.075-.01.02-.01.052-.022.074m.075-.277c3.382-13.01 15.073-21.66 27.914-21.723-12.84.064-24.532 8.713-27.915 21.723m35.616-20.723h-.01.01m-.52-.14c-.225-.052-.438-.105-.66-.147.222.042.435.095.66.148m-6.99-.86h-.043.042"/><path fill="#B13544" d="M214.95 344.13c-1.416-1.723-2.63-3.606-3.618-5.606 0-.01-.01-.022-.01-.032-.032-.043-.054-.096-.075-.14-.01-.02-.02-.04-.02-.052-.023-.042-.044-.074-.054-.117-.01-.02-.032-.042-.043-.074-.01-.023-.02-.044-.032-.065-.064-.138-.128-.277-.19-.415-2.384-5.298-3.214-11.33-2.044-17.383v-.01c.01-.054.02-.107.032-.15 0-.02.01-.042.01-.053.01-.053.022-.096.032-.15 0-.01 0-.02.01-.04.012-.044.022-.097.033-.15v-.032c.022-.096.044-.192.065-.277 0-.02.01-.042.01-.064.01-.04.022-.073.032-.116 0-.02.01-.053.022-.085 0-.033.01-.065.02-.107.01-.032.02-.064.02-.096.012-.032.023-.064.023-.096l.03-.126c.012-.022.012-.053.023-.075.02-.065.032-.128.053-.203 3.382-13.01 15.073-21.66 27.914-21.723h.19c2.086 0 4.203.234 6.33.713.224.042.437.095.66.148.096.032.192.054.288.075.074.02.15.042.223.064h.01c9.692 2.595 16.916 9.82 19.937 18.68-3.755-4.585-8.947-8.063-15.117-9.66-2.447-.637-4.904-.946-7.32-.946-12.893 0-24.66 8.67-28.063 21.734-1.48 5.702-1.15 11.447.617 16.628"/><path fill="#C6394A" d="M1449.087 729.747c-4.02 15.51-19.86 24.83-35.372 20.798-15.51-4.02-24.82-19.873-20.787-35.383 4.02-15.5 19.862-24.82 35.383-20.787 15.5 4.032 24.81 19.86 20.777 35.372M220.82 984.917c-4.03 15.51-19.87 24.82-35.382 20.787-15.51-4.02-24.82-19.86-20.787-35.383 4.033-15.5 19.863-24.807 35.384-20.775 15.5 4.02 24.81 19.862 20.787 35.372"/><path fill="#D44348" d="M163.747 976.236v-.02.02m.01-.202v-.032.032m.01-.234v-.01.01m.023-.223v-.01.01m.01-.192v-.074.075m.01-.213c.01-.02.01-.042.01-.074 0 .032 0 .053-.01.074m.022-.202c0-.02.01-.053.01-.074 0 .02-.01.053-.01.074m.02-.202c0-.032.012-.064.012-.096 0 .032-.01.064-.01.096m.03-.266c0-.032 0-.074.012-.106-.01.032-.01.074-.01.106m.02-.202c0-.032 0-.064.01-.106-.01.042-.01.074-.01.106m.022-.19c0-.044.01-.076.01-.118 0 .042-.01.074-.01.117m.02-.203c.012-.032.012-.075.022-.107-.01.032-.01.075-.02.107m.03-.192l.065-.447c-.02.15-.043.298-.064.447m.065-.49c.01-.042.02-.095.02-.138 0 .054-.01.096-.02.14m.042-.203c0-.043.01-.086.01-.128 0 .042-.01.085-.01.128m.022-.192c.01-.043.02-.085.03-.138l-.03.138m.03-.17l.064-.32c-.02.107-.042.213-.063.32m.064-.34c.01-.043.01-.086.022-.128-.01.042-.01.085-.022.127m.032-.19c.01-.043.022-.085.032-.117-.01.032-.02.074-.032.117m.043-.202c.01-.043.02-.085.02-.128 0 .043-.01.085-.02.128m.04-.192c.012-.042.012-.085.023-.127-.01.04-.01.084-.022.126m.044-.19c.01-.086.032-.16.043-.235-.01.075-.032.16-.043.235m.064-.32c.01-.03.02-.074.02-.106 0 .03-.01.074-.02.106m.042-.202l.032-.096c-.01.032-.02.064-.032.096m.054-.203c.01-.03.02-.062.02-.094 0 .032-.01.063-.02.095m.053-.21c.01-.033.01-.055.02-.086-.01.03-.01.053-.02.085m.33-1.225c3.69-12.49 15.127-20.723 27.648-20.787-12.52.074-23.957 8.298-27.648 20.787m35.585-19.723h-.01.01m-.213-.053c-.012 0-.022-.012-.033-.012.01 0 .02.01.032.01m-7.522-1.01h-.054.054"/><path fill="#B13544" d="M170.332 996.045c-4.49-5.458-6.947-12.49-6.585-19.81v-.02c0-.064 0-.128.01-.18V976c0-.074.01-.138.01-.202v-.01c.012-.075.012-.14.023-.213v-.01c0-.065 0-.13.01-.182v-.074c.01-.042.01-.084.01-.138.01-.02.01-.042.01-.074 0-.043.012-.085.012-.128 0-.02.01-.053.01-.074 0-.043.01-.085.01-.128 0-.032.012-.064.012-.096 0-.053.01-.106.02-.17 0-.032 0-.074.012-.106 0-.032 0-.064.01-.096 0-.032 0-.064.01-.106 0-.032.012-.053.012-.085 0-.044.01-.076.01-.118.01-.032.01-.054.01-.085.012-.032.012-.075.022-.107 0-.032 0-.053.01-.085l.065-.447v-.042c.01-.043.02-.085.02-.14.012-.02.012-.04.022-.062 0-.043.01-.086.01-.128.012-.02.012-.043.012-.064l.03-.138v-.032l.064-.32v-.02c.01-.043.01-.086.022-.128.01-.022.01-.043.01-.064.01-.043.022-.085.032-.117 0-.032.01-.064.01-.085.012-.043.022-.085.022-.128.01-.02.01-.042.02-.064.012-.042.012-.085.023-.127.01-.023.01-.044.02-.065.012-.075.033-.16.044-.234.01-.03.02-.052.02-.084.01-.032.022-.075.022-.107.01-.033.02-.065.02-.096l.032-.096c.01-.043.01-.075.022-.107.01-.03.02-.062.02-.094.01-.043.022-.085.033-.117.01-.033.01-.055.02-.086.022-.064.033-.128.054-.203.076-.307.17-.626.257-.935 3.69-12.49 15.127-20.713 27.648-20.787H192.758c2.393.01 4.84.31 7.276.947.064.01.14.032.213.053.01 0 .02.01.032.01.063.01.127.033.2.054h.012c9.574 2.65 16.712 9.84 19.712 18.617-3.755-4.586-8.946-8.054-15.117-9.66-2.446-.64-4.904-.937-7.32-.937-12.892 0-24.67 8.66-28.063 21.724-1.478 5.702-1.15 11.446.628 16.638"/><path fill="#C6394A" d="M431.587 1248.172c-4.032 15.51-19.872 24.82-35.383 20.798-15.51-4.032-24.82-19.872-20.797-35.383 4.03-15.51 19.872-24.82 35.383-20.787 15.51 4.02 24.82 19.862 20.797 35.372"/><path fill="#1C2432" d="M746.385 1491.747h-.032.032m.16 0c329.213-.096 629.904-219.82 719.32-551.81.01-.02.01-.04.02-.052.064-.244.128-.5.192-.734.01-.01.01-.01.01-.02-89.16 332.457-390.042 552.553-719.542 552.617M557.12 1467.28c-.128-.033-.267-.065-.394-.097l.393.096m-1.34-.352c-.15-.043-.31-.085-.46-.117.15.033.31.075.46.118m-1.384-.362c-.128-.042-.255-.074-.394-.106.15.032.256.064.394.106m-1.532-.415c-.074-.02-.117-.03-.19-.052.04.02.137.043.19.053m-1.532-.403c-.085-.032-.19-.053-.287-.085.096.032.19.053.287.085m-1.32-.362c-.137-.042-.276-.074-.414-.117.128.032.287.085.415.117m-1.372-.372c-.127-.032-.265-.075-.382-.106.127.03.255.074.383.106m-1.49-.415c-.073-.02-.137-.032-.212-.053.075.02.14.032.213.053m-2.924-.81c-.085-.03-.18-.052-.277-.084.095.032.18.054.276.085m-1.35-.383c-.108-.032-.203-.054-.31-.086.128.033.192.055.31.087m-1.46-.415c-.052-.01-.116-.032-.18-.054.054.022.14.043.18.054m-2.935-.84c-.042-.01-.073-.022-.116-.033l.117.03m-1.35-.392c-.075-.022-.138-.043-.213-.064.075.02.15.042.213.064m-1.436-.415c-.053-.022-.075-.022-.117-.043.053.02.064.02.117.043M1467.62 933.31l.223-.86c-.075.276-.15.584-.224.86m.35-1.33v-.01l.096-.383c-.032.14-.064.245-.096.394m.277-1.084c0-.02 0-.02.01-.043.01-.053.022-.095.033-.15-.01.055-.032.14-.043.193m.15-.596c.04-.16.073-.308.116-.457v-.01c-.032.16-.075.308-.117.467m.223-.872c.042-.16.084-.32.116-.48-.032.16-.074.32-.117.48m.233-.915l.01-.053c.033-.128.065-.266.097-.394-.032.138-.075.31-.107.447m.192-.777c.01-.042.02-.074.032-.117.02-.096.042-.192.074-.288.012-.053.033-.117.044-.18-.053.2-.096.382-.15.584m.214-.85c.032-.128.074-.277.106-.416.01-.02.02-.095.032-.117-.043.18-.096.362-.138.532m.223-.893l.16-.64-.16.64m.235-.915c.01-.075.032-.128.043-.202.042-.15.074-.298.117-.447-.064.223-.107.415-.16.65m.18-.757c.012-.04.022-.084.033-.126l.127-.522c.043-.17.086-.33.117-.49.032-.095.054-.212.086-.307-.117.478-.245.968-.362 1.446m.404-1.626c0-.022.01-.043.01-.064.033-.138.075-.277.107-.415.043-.17.085-.35.128-.52-.085.34-.17.67-.245 1m.266-1.086c.053-.246.096-.438.16-.682.01-.053.032-.117.042-.17.022-.096.043-.192.075-.288-.096.373-.192.766-.277 1.14m.277-1.15l.127-.522c0-.03.01-.063.022-.085.032-.17.063-.308.106-.478-.085.35-.17.723-.255 1.085m.298-1.234c.17-.734.352-1.48.522-2.213-.17.745-.35 1.468-.52 2.213m.552-2.362c.085-.34.15-.638.234-.98-.075.342-.15.65-.234.98m.266-1.138c.18-.724.35-1.468.52-2.202l-.52 2.202m.553-2.35c.074-.342.16-.704.245-1.044-.086.35-.16.692-.245 1.043m.255-1.107c.085-.393.17-.755.266-1.15-.096.395-.18.757-.266 1.15m.266-1.16c.085-.36.16-.7.245-1.074-.086.362-.17.724-.246 1.075m.277-1.235c.17-.756.33-1.48.5-2.234-.16.745-.33 1.49-.5 2.235m.522-2.32l.234-1.074c-.074.363-.15.724-.234 1.075m.255-1.138c.16-.755.33-1.49.49-2.245-.16.756-.32 1.49-.49 2.245m.522-2.383c.084-.372.148-.702.233-1.074-.075.35-.16.712-.234 1.074m.243-1.106c.075-.383.16-.745.245-1.14-.085.395-.17.757-.245 1.14m.256-1.224c.073-.32.148-.66.21-.978-.073.33-.137.65-.21.978m.265-1.202c.15-.734.297-1.415.446-2.15-.148.725-.296 1.427-.445 2.15m.5-2.393c.063-.29.117-.544.17-.842-.053.287-.117.564-.17.84m.234-1.106c.073-.372.137-.68.21-1.053-.073.35-.137.69-.21 1.052m.243-1.18c.064-.32.117-.596.18-.905-.063.31-.116.585-.18.904m.245-1.233c.064-.287.117-.532.17-.82-.053.267-.106.554-.17.82m.223-1.053c.065-.34.14-.702.204-1.042-.064.33-.14.702-.203 1.042m.257-1.287l.16-.81c-.054.267-.107.544-.16.81m.234-1.138c.054-.32.118-.618.182-.927-.064.32-.128.606-.18.926m.2-1.044c.065-.34.13-.67.203-1.01-.074.34-.138.68-.202 1.01m.277-1.383l.127-.67c-.042.234-.085.436-.127.67m.202-1.074c.063-.31.127-.63.18-.938-.053.32-.117.628-.18.937m.255-1.32c.043-.213.096-.458.138-.68-.053.233-.095.456-.138.68m.213-1.096c.042-.213.085-.447.127-.67-.042.234-.085.446-.127.67m.202-1.043c.053-.307.117-.616.17-.935-.053.32-.117.628-.17.936m.255-1.382c.043-.202.075-.383.107-.574-.032.19-.064.372-.107.574m.202-1.074c.042-.192.074-.415.116-.607-.042.192-.074.415-.117.607m.244-1.31c.032-.2.074-.403.106-.595-.032.19-.074.393-.106.595m.202-1.117l.096-.51c-.032.16-.064.35-.096.51m.192-1.053c.02-.074.042-.202.053-.266-.02.084-.03.18-.052.265m.287-1.553c.01-.075.02-.16.042-.234-.02.064-.032.16-.042.234m.16-.936c.02-.075.03-.17.042-.245-.01.075-.02.182-.043.246m.447-2.532c.012-.053.022-.107.033-.16-.01.053-.02.107-.032.16"/><path fill="#D44348" d="M746.385 1491.747h-.032c-62.042 0-125.063-7.798-187.915-24.117-.446-.117-.872-.234-1.32-.35-.126-.033-.265-.065-.392-.097-.31-.085-.628-.17-.947-.255-.15-.043-.31-.085-.46-.117-.307-.084-.605-.16-.924-.244-.138-.042-.245-.074-.394-.106-.372-.096-.766-.202-1.138-.31-.053-.01-.15-.03-.19-.052l-1.342-.35c-.096-.033-.19-.054-.287-.086-.34-.085-.692-.18-1.032-.277-.128-.032-.287-.085-.415-.117-.33-.085-.638-.17-.957-.255-.127-.032-.255-.075-.382-.106-.373-.107-.734-.203-1.107-.31-.073-.02-.137-.03-.212-.052-.457-.128-.925-.256-1.383-.383-.446-.128-.882-.255-1.33-.373-.095-.032-.18-.054-.276-.086-.352-.095-.724-.202-1.075-.297-.117-.032-.18-.054-.31-.086-.382-.105-.765-.222-1.148-.328-.042-.01-.127-.032-.18-.054-.916-.255-1.84-.52-2.756-.787-.042-.01-.073-.02-.116-.03-.415-.128-.82-.235-1.234-.362-.064-.022-.138-.043-.213-.064-.393-.117-.83-.234-1.223-.35-.053-.023-.064-.023-.117-.044-121.617-35.67-227.596-99.947-312.447-183.5 4.298.032 8.723.043 13.213.043 74.372 0 173.787-4.01 292.595-18.224-1.17 3.084-2.19 6.244-3.063 9.5-.054.212-.107.414-.16.627-.032.117-.064.223-.085.33-.01.053-.02.095-.043.138-.01.064-.032.138-.042.202-.01.053-.032.096-.043.15-.01.063-.032.116-.042.18-.01.053-.032.106-.043.17-.01.053-.02.107-.042.16-.01.053-.022.117-.043.17-.01.064-.032.138-.042.202-.022.095-.043.18-.064.276-.022.053-.032.106-.043.16-.02.063-.032.138-.053.2 0 .044-.01.076-.02.118-.023.075-.033.14-.055.203 0 .053-.01.095-.02.138-.022.064-.033.127-.054.19-.01.044-.01.097-.02.14-.022.063-.032.127-.053.19 0 .033-.01.065-.01.097l-.097.415c-.01.042-.02.085-.032.127-.01.064-.02.117-.032.18-.01.054-.02.108-.032.15-.02.064-.03.117-.042.18-.01.054-.02.097-.032.15-.01.064-.02.128-.043.19-.01.055-.01.097-.02.15-.022.054-.033.117-.043.18-.022.086-.032.182-.054.267-.01.054-.02.108-.032.16-.01.086-.03.15-.042.224-.01.043-.02.085-.02.128-.023.074-.033.138-.044.213l-.032.138c-.01.074-.02.15-.042.223 0 .032-.01.075-.022.107-.01.095-.032.202-.053.298v.032c-.053.235-.096.48-.128.713-.01.01-.01.022-.01.032-.02.117-.043.213-.053.33-.01.01-.01.02-.01.032-8.405 48.924 21.967 96.967 70.893 109.67 8.138 2.105 16.298 3.116 24.33 3.116 42.904 0 82.085-28.83 93.372-72.287 7.84-30.214.478-60.788-17.32-83.64 61.203-11.042 125.852-24.744 193.49-41.702-2.202 4.777-4.043 9.798-5.48 15.043-.116.416-.222.83-.33 1.246-.03.106-.062.223-.084.33-.01.042-.02.085-.032.116-.02.075-.04.15-.052.213-.01.053-.032.096-.042.14-.01.073-.032.137-.043.2-.01.054-.032.096-.042.15-.01.063-.03.127-.042.19-.01.054-.02.097-.032.14-.032.095-.053.19-.074.287l-.032.138c-.022.085-.032.16-.053.234-.01.053-.032.106-.043.16l-.032.17c-.02.053-.032.106-.042.17-.01.053-.032.117-.043.18-.01.054-.02.097-.032.14-.02.074-.032.148-.053.223-.01.042-.01.074-.02.117-.023.106-.055.212-.076.33-.01.02-.01.053-.02.074-.012.096-.033.18-.054.266-.01.032-.022.074-.022.106-.02.085-.032.16-.053.234-.01.043-.01.075-.02.117-.022.076-.033.16-.054.235 0 .032-.01.075-.022.117-.02.085-.04.18-.052.277-.01.01-.01.03-.01.04-.054.246-.096.48-.15.714v.032l-.063.32c0 .02-.01.03-.01.042l-.065.34v.01c-9.276 49.426 21.213 98.3 70.628 111.13 8.138 2.116 16.298 3.126 24.34 3.126 42.905 0 82.075-28.83 93.362-72.298 9.926-38.202-4.49-77.02-33.596-100.032-.01-.01-.02-.02-.042-.032-.064-.053-.128-.095-.192-.148-.053-.043-.095-.075-.15-.117-.02-.022-.052-.043-.073-.064-1.65-1.277-3.34-2.51-5.075-3.692 131.926-39.988 272.628-92.392 418.83-160.903 6.043-17.266 11.532-34.862 16.362-52.81-89.415 331.99-390.106 551.714-719.32 551.81h-.16m433.49-139.52c-139.5 57.51-303.127 108.51-486.425 137.584 17.712 1.267 35.382 1.894 52.946 1.894 157.755 0 308.925-50.425 433.48-139.478m-965.32-220.522c-35.68 0-71.777-.936-108.49-2.893-23.67-39.574-43.69-81.318-59.755-124.7 64.788 53.7 139.51 97.073 222.288 126.87-17.872.48-35.894.724-54.043.724m834.054-174.16c87.616-87.244 154.584-197.34 190.573-324.265 71.713-32.033 144.872-67.905 219.043-108.054-20-64.373-48.607-125.628-84.82-182.085 97.958 152.68 140.277 340.447 107.277 529.894-.01.053-.02.107-.032.16-.126.755-.265 1.532-.403 2.287-.01.075-.02.17-.043.246l-.117.702c-.02.074-.032.16-.042.234-.075.415-.16.862-.234 1.287-.01.063-.03.19-.052.265-.032.202-.064.34-.096.543l-.096.51c-.032.18-.064.34-.096.52-.032.193-.074.395-.106.597-.043.245-.085.458-.128.702-.042.192-.074.415-.117.607-.033.16-.065.34-.096.5-.032.19-.064.372-.107.574-.02.16-.053.287-.085.447-.053.32-.117.628-.17.936-.02.108-.053.267-.075.374-.042.223-.085.457-.127.67-.022.138-.053.276-.075.415-.042.222-.095.467-.138.68-.02.127-.043.255-.075.382-.053.31-.117.628-.18.937-.022.126-.054.275-.075.403l-.127.67c-.032.128-.054.255-.075.372-.074.34-.138.67-.202 1.01-.01.033-.01.076-.02.118-.065.31-.13.606-.182.926-.02.105-.052.233-.074.328-.053.277-.106.543-.16.81-.02.084-.03.16-.052.244-.064.34-.14.702-.203 1.042-.02.085-.03.138-.052.234-.053.287-.106.532-.17.82l-.064.33c-.064.308-.117.584-.18.903-.01.033-.022.097-.033.13-.073.37-.137.68-.21 1.052-.023.085-.044.18-.065.266-.053.298-.107.553-.17.84-.022.075-.032.17-.054.245-.148.734-.296 1.415-.445 2.15-.022.063-.043.148-.054.223-.062.32-.137.66-.21.978 0 .022-.012.075-.012.085-.085.393-.17.755-.245 1.138l-.01.032c-.085.372-.15.702-.234 1.074-.012.053-.023.085-.033.138-.16.756-.33 1.49-.49 2.245-.01.02-.01.053-.02.064l-.235 1.075c-.01.032-.01.054-.02.086-.17.756-.33 1.48-.5 2.235-.012.053-.022.106-.033.16-.086.372-.16.712-.246 1.074v.01c-.096.393-.18.755-.266 1.148 0 .01-.01.043-.01.064-.086.34-.17.702-.245 1.043-.01.053-.02.095-.032.15-.17.733-.34 1.477-.52 2.2l-.032.16c-.085.34-.15.64-.234.98 0 .03-.022.116-.032.148-.17.734-.35 1.48-.52 2.213-.023.053-.023.095-.044.15-.043.17-.074.307-.106.477 17.266-71.883 23.425-143.925 19.638-214.298-13.053 9.788-28.223 20.852-45.383 32.873 1.702-2.596 3.02-5.5 3.84-8.68 3.075-11.83-1.606-23.852-10.883-30.67-.01-.012-.01-.012-.02-.012-.043-.042-.097-.074-.15-.106-.01-.01-.02-.022-.042-.032-.043-.032-.075-.064-.117-.085-.022-.022-.043-.032-.054-.043-.04-.032-.084-.064-.126-.085-.043-.032-.085-.064-.14-.096-.01-.01-.03-.022-.04-.043-.044-.022-.086-.053-.13-.075-.01-.01-.02-.02-.03-.02-2.533-1.735-5.384-3.086-8.49-3.958h-.02c-.054-.022-.097-.032-.15-.043-.022-.01-.053-.01-.075-.02-.043-.01-.075-.022-.118-.032-.064-.02-.127-.032-.19-.053-.235-.054-.47-.117-.693-.17-2.203-.51-4.416-.767-6.586-.767h-.192c-12.457.064-23.83 8.213-27.584 20.564-.054.16-.107.33-.15.49-.063.223-.127.446-.18.67-.02.074-.043.138-.053.213-.01.01-.01.032-.01.042-.022.053-.033.107-.044.16 0 .02-.01.042-.01.053-.01.053-.03.106-.042.16 0 .02-.01.03-.01.053-3.586 15.287 5.67 30.734 20.957 34.702 2.447.638 4.894.947 7.31.947 2.17 0 4.307-.245 6.382-.724-39.17 26.787-87.277 57.564-143.575 89.777-3.425-1.745-7.085-3.17-10.957-4.192-.117-.032-.234-.064-.34-.095-.107-.022-.203-.054-.3-.075-4.552-1.16-9.116-1.713-13.605-1.713h-.17c-24.5.064-46.84 16.543-53.298 41.373-.02.095-.053.19-.075.298-.01.022-.01.054-.02.086-.022.085-.043.18-.065.266-.01.042-.02.085-.032.127-.01.042-.02.095-.042.148-.01.085-.032.17-.053.256-.01.03-.022.063-.022.095-.563 2.393-.957 4.787-1.202 7.16-47.382 24.616-99.18 49.403-155.04 73.265m417.275-17.66l.192-.734c-.064.235-.128.49-.192.735m2.075-7.86c0-.023 0-.033.01-.055v.01c-.01.012-.01.022-.01.044m.223-.883c.02-.095.053-.202.075-.287-.01.022-.01.022-.01.043-.022.085-.044.15-.065.245m.33-1.297v-.01.01m.32-1.256l.03-.127-.01.053c-.01.032-.01.032-.02.074m.244-.968c.02-.096.042-.192.074-.288-.03.096-.052.192-.073.287m.287-1.15c.01-.063.032-.117.043-.18-.01.03 0 .03-.01.063-.012.022-.022.096-.033.117m.32-1.298c.03-.095.052-.19.074-.297-.01.074-.032.127-.043.202-.01.02-.02.085-.032.095m.245-.978l.127-.522-.127.522m.244-1.01c.054-.182.096-.373.14-.554 0 .02-.012.042-.012.064-.02.053-.032.127-.042.18-.032.096-.054.213-.086.31m.245-.97c.107-.425.202-.85.31-1.286-.065.244-.108.436-.16.68-.012.033-.022.054-.022.086-.043.17-.085.35-.128.52m.35-1.456c.065-.277.13-.543.203-.82l-.127.522c-.01.01 0-.01 0 .01-.032.096-.053.192-.075.288m-207.404-571.564c-6.66-61.256-20.883-120.958-41.947-177.862 45.234 37.49 85.607 80.01 120.5 126.48-23.02 15.84-49.276 33.158-78.553 51.382m109.947-6.202c-.106-.17-.223-.35-.33-.522.107.17.224.35.33.522"/><path fill="#C13D48" d="M1239.183 633.28c1.52-5.395 3-10.83 4.415-16.278 23.383-90.042 29.266-180.51 19.766-267.808 29.277-18.224 55.532-35.543 78.553-51.383 10.798 14.394 21.085 29.17 30.82 44.288l.244.372c.107.17.224.35.33.522.022.042.065.106.097.15 36.212 56.456 64.82 117.71 84.82 182.084-74.172 40.15-147.33 76.02-219.044 108.053M236.343 1277.843c-4.49 0-8.915-.01-13.224-.043-45.31-44.628-84.596-94.766-117.043-148.99 36.702 1.958 72.798 2.894 108.478 2.894 18.15 0 36.17-.244 54.043-.723 21.415 7.714 43.362 14.512 65.82 20.34 62.84 16.32 125.893 24.118 187.935 24.118 199.394 0 388.362-80.595 526.256-217.893 55.86-23.862 107.658-48.65 155.04-73.266-2.67 26.637 14.384 51.978 41.108 58.924 4.65 1.213 9.32 1.788 13.914 1.788 24.554 0 46.98-16.5 53.447-41.383 6.297-24.257-4.543-48.938-24.98-61.225-.042-.032-.095-.053-.138-.085-.032-.02-.064-.032-.095-.053-.086-.053-.17-.106-.256-.15l-.02-.02c-.915-.532-1.85-1.043-2.798-1.532 56.298-32.213 104.404-62.99 143.575-89.777 7.255-1.65 13.69-6.053 17.84-12.34 17.16-12.02 32.33-23.085 45.383-32.873 3.787 70.373-2.372 142.415-19.638 214.298-.01.022-.022.054-.022.085-.074.277-.138.543-.202.82-.01.053-.032.117-.042.17-.107.436-.202.86-.31 1.287-.03.138-.073.277-.105.415-.042.18-.084.372-.138.553-.03.16-.074.32-.117.49l-.127.52c-.01.043-.02.086-.032.128-.01.033-.01.065-.02.108-.044.15-.076.298-.118.447-.022.106-.043.202-.075.297-.01.075-.02.117-.042.18l-.16.64-.073.297c-.01.063-.032.117-.043.18-.032.14-.074.288-.106.415-.022.096-.043.18-.064.266-.01.065-.032.13-.043.182-.03.096-.052.192-.073.287-.01.042-.022.074-.032.116-.02.107-.053.224-.085.33l-.096.394c-.01.042-.02.085-.032.127-.032.117-.064.234-.096.362-.032.16-.074.318-.117.478-.033.127-.075.276-.107.404v.01c-.043.15-.075.3-.117.458-.032.138-.064.266-.106.404-.01.054-.022.096-.032.15-.022.084-.054.19-.075.287-.032.14-.074.298-.117.447l-.096.383c-.01.022-.01.032-.01.054-.043.138-.075.287-.117.425l-.224.86c-.5 1.948-1.01 3.884-1.533 5.82 0 .01 0 .01-.01.02l-.192.735c-.01.01-.01.032-.02.053-4.83 17.947-10.32 35.543-16.363 52.81-146.202 68.51-286.904 120.914-418.83 160.903-8.744-5.956-18.627-10.563-29.425-13.435-.01 0-.02-.01-.043-.01l-.255-.064c-.107-.03-.214-.063-.32-.085-8.128-2.117-16.277-3.127-24.298-3.127h-.202c-37.223.064-71.606 21.83-87.383 56.01-67.638 16.958-132.287 30.66-193.49 41.703-11.02-14.16-26.063-25.35-43.978-31.648-.012-.01-.022-.01-.044-.01-.095-.044-.202-.075-.308-.118-.01 0-.032-.01-.053-.01-.107-.043-.234-.086-.34-.128-.118-.032-.235-.075-.352-.117-.032-.012-.053-.023-.085-.033-.085-.022-.17-.053-.245-.075-.042-.01-.085-.032-.127-.042-.075-.022-.14-.053-.213-.075-.043-.01-.085-.02-.128-.042-.085-.022-.17-.054-.255-.075-.064-.032-.138-.053-.213-.074-.064-.022-.117-.043-.17-.053l-.192-.063c-.053-.01-.095-.032-.138-.043-.064-.02-.138-.042-.202-.064-.042-.01-.085-.02-.117-.042-.074-.022-.138-.043-.213-.064-.01 0-.02-.01-.032-.01-.16-.043-.32-.096-.478-.15-.043-.01-.064-.02-.107-.032-.074-.02-.15-.042-.213-.063-.042-.012-.074-.023-.117-.033-.063-.022-.138-.043-.212-.064-.032-.01-.085-.02-.117-.032-.246-.073-.49-.148-.735-.212-.032-.01-.064-.02-.096-.032-.076-.02-.14-.042-.214-.064l-.128-.03c-.074-.023-.138-.044-.202-.055-.053-.02-.095-.032-.15-.042-.094-.032-.19-.053-.286-.085-.074-.022-.138-.032-.202-.053-.064-.022-.117-.032-.17-.043-.064-.02-.128-.032-.18-.053-.054-.01-.118-.03-.17-.042-.065-.02-.13-.032-.203-.053-.043-.01-.085-.02-.128-.032-.117-.032-.234-.064-.34-.096l-.49-.127c-.16-.032-.308-.075-.457-.107-7.82-1.947-15.65-2.883-23.362-2.883h-.202c-39.415.064-75.638 24.447-89.958 62.15-118.808 14.212-218.223 18.223-292.595 18.223m138.15-38.128c-.544 13.35 8.243 25.755 21.71 29.255 2.438.628 4.895.937 7.3.937 12.904 0 24.68-8.67 28.084-21.735 3.15-12.138-1.86-24.468-11.617-31.19-.02-.012-.042-.022-.053-.033-.032-.022-.074-.054-.106-.075-.03-.022-.052-.032-.084-.054-.022-.01-.043-.03-.064-.04-2.49-1.67-5.287-2.98-8.33-3.83 0 0 0-.012-.01-.012-.043-.01-.096-.02-.15-.042-.02 0-.042-.01-.063-.01-.044-.01-.086-.022-.13-.033-.063-.02-.127-.042-.19-.053l-.362-.096c-.107-.02-.224-.053-.33-.074-2.202-.52-4.404-.766-6.585-.777h-.193c-12.658.075-24.2 8.48-27.765 21.18-.053.182-.095.363-.148.554-.01.064-.032.128-.043.202-.01.02-.02.053-.02.074-.012.043-.023.074-.033.117-.01.033-.02.065-.02.097l-.032.106c0 .032-.01.075-.022.106-.01.03-.01.053-.02.074-.012.043-.022.085-.022.128-.01.01-.01.02-.01.042-.022.096-.054.202-.075.31v.02c-.012.043-.023.096-.033.15 0 .01-.01.02-.01.04-.012.044-.022.097-.033.14 0 .02 0 .042-.01.064 0 .042-.01.085-.022.138 0 .01-.01.02-.01.032l-.128.69v.023c-.01.054-.01.107-.02.16 0 .01-.012.02-.012.032-.032.234-.064.457-.096.702 0 0-.01 0-.01.01 0 .043-.01.097-.01.15-.012.01-.012.032-.012.042-.01.053-.01.096-.02.15v.042c-.01.053-.01.096-.022.15v.04c-.02.15-.043.31-.053.46v.063c-.012.043-.012.086-.023.118v.085c0 .032-.01.074-.01.106 0 .03-.01.063-.01.095s0 .074-.012.106v.097c-.01.032-.01.064-.01.096 0 .063-.01.127-.01.19 0 .033-.01.054-.01.076v.126c-.012.032-.012.053-.012.085v.13c-.01.02-.01.042-.01.074v.148c-.01.022-.01.032-.01.043M746.396 1491.704c-17.564 0-35.234-.627-52.947-1.893 183.297-29.074 346.925-80.074 486.425-137.584-124.554 89.053-275.724 139.478-433.48 139.478"/><path fill="#B13544" d="M619.204 1390.566c-8.03 0-16.19-1.01-24.33-3.117-48.925-12.703-79.297-60.746-70.893-109.67-4.87 28.382 3.32 56.478 20.607 77.53-5.893-17.265-6.978-36.372-2.053-55.34 11.287-43.457 50.458-72.287 93.362-72.287 8.032 0 16.202 1.01 24.34 3.128 20.532 5.33 37.788 16.905 50.288 32.128-9.298-27.234-30.575-49.86-59.245-59.946 17.914 6.297 32.956 17.49 43.978 31.65 17.797 22.85 25.16 53.424 17.32 83.637-11.288 43.456-50.47 72.286-93.374 72.286m-95.212-112.82c.01-.116.032-.212.053-.33-.02.108-.043.225-.053.33m.063-.36c.032-.235.075-.48.128-.714-.053.235-.096.48-.128.713m.128-.744c.02-.095.043-.202.053-.297-.01.095-.032.202-.053.298m.075-.404c.02-.074.032-.15.042-.223-.01.074-.02.15-.042.223m.074-.36c.01-.076.02-.14.043-.214-.022.074-.032.138-.043.213m.064-.34c.01-.075.032-.14.042-.224-.01.086-.03.15-.042.224m.074-.383c.022-.084.032-.18.054-.265-.022.085-.032.18-.054.266m.096-.446c.01-.053.01-.095.02-.15-.01.055-.01.097-.02.15m.064-.34c.01-.053.02-.096.032-.15-.01.054-.02.107-.032.15m.074-.33c.01-.042.022-.096.032-.15-.01.054-.02.108-.032.15m.064-.33l.032-.127c-.01.042-.02.085-.032.127m.128-.542c0-.032.01-.064.01-.096 0 .032-.01.064-.01.096m.064-.287c.01-.043.01-.096.02-.14 0 .044-.02.097-.02.14m.074-.33c.01-.043.02-.085.02-.14-.01.055-.01.097-.02.14m.075-.34c.01-.043.02-.075.02-.118 0 .043-.01.075-.02.117m.073-.32c.01-.052.02-.105.043-.158-.022.053-.032.106-.043.16m.107-.437c.01-.065.03-.14.042-.203-.01.064-.032.128-.042.202m.085-.373c.02-.053.032-.107.042-.16-.01.053-.02.107-.042.16m.085-.33c.01-.064.032-.117.042-.18-.01.063-.032.116-.042.18m.085-.33c.01-.064.032-.138.042-.202-.01.064-.032.138-.042.202m.085-.34c.02-.107.053-.213.085-.33.053-.213.106-.415.16-.628-.054.212-.107.414-.16.627-.032.117-.064.223-.085.33m125.606-67.096c-.106-.042-.202-.073-.308-.116.106.043.213.074.308.117m-.36-.127c-.118-.042-.225-.085-.342-.127.107.042.234.085.34.127m-.34-.127c-.117-.032-.234-.075-.35-.117.116.04.233.084.35.116m-.436-.15c-.085-.02-.17-.052-.245-.074.075.022.16.053.245.075m-.372-.117c-.075-.022-.14-.053-.213-.075.074.022.138.053.213.075m-.34-.117c-.086-.022-.17-.054-.256-.075.085.02.17.053.255.075m-.468-.15c-.053-.02-.117-.042-.17-.052.053.01.106.032.17.054m-.362-.117c-.042-.01-.095-.032-.138-.043.043.01.085.032.138.043m-.34-.107c-.042-.01-.074-.02-.117-.042.032.02.075.032.117.042m-.33-.106c-.01 0-.02-.01-.032-.01.01 0 .022.01.032.01m-.51-.16c-.032-.01-.075-.02-.107-.032.043.01.064.022.107.032m-.32-.095c-.042-.012-.074-.023-.117-.033.043.01.075.02.117.032m-.33-.097c-.03-.01-.074-.02-.116-.032.03.012.084.022.116.033m-.85-.245c-.033-.01-.065-.02-.097-.032l.095.032m-.31-.096l-.127-.03.128.03m-.33-.085c-.053-.02-.095-.032-.15-.042.055.01.097.02.15.042m-.436-.127c-.074-.022-.138-.032-.202-.053.064.02.128.03.202.053m-.372-.096c-.064-.02-.128-.032-.18-.053.052.022.116.033.18.054m-.35-.096c-.065-.02-.13-.032-.203-.053.074.02.138.032.202.053m-.33-.085c-.117-.032-.234-.064-.34-.096l-.49-.127.49.127c.106.032.223.064.34.096m-1.287-.33c-7.81-1.947-15.65-2.883-23.362-2.883 7.713 0 15.543.937 23.362 2.883m-23.564-2.883h.17-.17"/><path fill="#BE3E42" d="M523.98 1277.78c0-.012 0-.022.012-.033 0 .01-.01.02-.01.032m.063-.363c0-.01 0-.02.01-.032-.01.01-.01.022-.01.032m.138-.745v-.03.03m.053-.33c.01-.03.022-.074.022-.106 0 .032-.01.075-.022.107m.064-.33c.01-.053.02-.096.032-.138l-.032.138m.075-.35c0-.044.01-.086.02-.13-.01.044-.02.086-.02.13m.063-.352l.032-.16c-.01.054-.02.108-.032.16m.086-.425c.01-.064.02-.127.042-.18-.02.053-.032.116-.042.18m.063-.33c.022-.063.032-.127.043-.19-.01.063-.02.127-.043.19m.075-.34c.01-.064.02-.117.042-.18-.01.063-.03.127-.042.18m.074-.33c.01-.064.022-.117.032-.18-.01.063-.02.127-.032.18m.064-.308l.096-.415-.096.415m.107-.51c.02-.065.03-.13.053-.192-.022.063-.032.127-.053.19m.074-.33c.022-.063.033-.126.054-.19-.02.064-.032.127-.053.19m.075-.328c.022-.064.032-.128.054-.203-.023.064-.033.14-.055.203m.075-.32c.02-.063.032-.138.053-.202-.02.064-.032.14-.053.202m.096-.36c.02-.097.042-.182.064-.278-.022.095-.043.19-.064.276m.106-.48c.02-.052.032-.116.043-.17-.01.054-.022.107-.043.17m.085-.33c.01-.063.032-.116.043-.17-.01.054-.032.107-.043.17m.085-.35c.01-.053.032-.096.043-.15-.01.044-.032.097-.043.15m.085-.35c.022-.044.032-.086.043-.14-.01.054-.02.096-.043.14m.288-1.097c.872-3.256 1.893-6.416 3.063-9.5-1.17 3.084-2.19 6.244-3.063 9.5"/><path fill="#AD3942" d="M528.938 1259.62c14.32-37.703 50.543-62.086 89.958-62.15-39.404.064-75.638 24.447-89.958 62.15m122.34-56.628c-.01-.01-.02-.01-.042-.01.022 0 .032 0 .043.01m-.352-.128c-.02 0-.032-.01-.053-.01.02 0 .042.01.053.01m-.745-.255c-.02-.012-.064-.023-.085-.033.032.01.053.02.085.032m-.33-.108c-.042-.01-.085-.032-.127-.042.042.01.085.032.127.042m-.34-.117c-.043-.01-.085-.02-.128-.042.043.02.085.032.128.042m-.383-.117c-.064-.032-.138-.053-.213-.074.075.02.15.042.213.074m-.383-.127l-.192-.063c.064.02.128.042.192.064m-.33-.106c-.064-.02-.138-.042-.202-.064.064.022.138.043.202.064m-.32-.106c-.073-.022-.137-.043-.212-.064.075.02.14.043.213.064m-.245-.075c-.16-.042-.32-.095-.478-.15.16.055.32.108.478.15m-.585-.18c-.074-.022-.15-.043-.213-.064.064.02.14.04.213.062m-.33-.095c-.063-.022-.138-.043-.212-.064.074.02.15.042.212.064m-.33-.096c-.244-.073-.49-.148-.733-.212.244.064.49.14.734.213m-.83-.244c-.076-.02-.14-.042-.214-.064.075.022.138.043.213.064m-.342-.095c-.063-.02-.138-.042-.202-.053.064.01.128.032.202.054m-.35-.095c-.096-.032-.192-.053-.288-.085.096.032.192.053.287.085m-.49-.14c-.063-.02-.116-.03-.17-.04.054.01.107.02.17.042m-.35-.096c-.053-.01-.117-.03-.17-.042.053.01.117.032.17.043m-.372-.095c-.043-.01-.085-.02-.128-.032.043.01.085.02.128.032m-.958-.255c-.16-.032-.308-.075-.457-.107.15.032.298.075.457.107m-23.82-2.99h-.03.03"/><path fill="#9E2F3D" d="M544.587 1355.31c-17.287-21.052-25.478-49.148-20.606-77.53 0-.012.012-.022.012-.033.01-.106.032-.223.053-.33 0-.01 0-.02.01-.032.032-.234.075-.478.128-.713v-.03c.02-.097.043-.204.053-.3.01-.03.022-.074.022-.106.02-.074.032-.15.042-.223.01-.053.02-.096.032-.138.01-.075.02-.14.043-.213 0-.043.01-.085.02-.128.012-.074.033-.138.043-.223l.032-.16c.022-.084.032-.18.054-.265.01-.064.02-.127.042-.18.01-.054.01-.096.02-.15.023-.063.033-.127.044-.19l.032-.15c.01-.053.032-.117.042-.18.01-.043.022-.097.032-.15.01-.053.022-.117.032-.18l.032-.128.096-.415c0-.032.01-.064.01-.096.022-.064.032-.128.054-.19 0-.044.02-.097.02-.14.022-.064.033-.127.054-.19.01-.044.01-.086.02-.14.023-.063.033-.138.055-.202.01-.042.02-.074.02-.117.02-.063.032-.138.053-.202.01-.053.02-.106.043-.16l.064-.276c.01-.075.03-.14.042-.203.02-.064.032-.117.043-.17.02-.053.032-.107.042-.16.01-.064.032-.117.043-.17.01-.064.032-.117.042-.18.01-.054.032-.107.043-.15.01-.064.032-.138.042-.202.022-.043.032-.085.043-.138.02-.107.053-.213.085-.33.053-.213.106-.415.16-.628.872-3.256 1.893-6.416 3.063-9.5 14.32-37.703 50.554-62.086 89.958-62.15h.202c7.713 0 15.553.937 23.362 2.883.15.032.298.075.457.107l.49.127c.106.032.223.064.34.096.043.01.085.02.128.032.074.02.138.032.202.053.053.01.117.032.17.043.053.022.117.033.18.054.054.01.107.02.17.043.065.02.13.03.203.053.096.032.192.053.287.085.054.01.096.02.15.042.063.01.138.032.2.054l.13.032c.074.022.137.043.212.064l.095.032c.244.064.49.14.734.213.04.012.084.022.116.033.074.02.15.042.212.064.043.01.075.02.117.032.064.02.14.04.213.062l.107.032c.16.054.32.107.478.15.01 0 .022.01.032.01.075.02.14.043.213.064.043.02.075.032.117.042.064.022.138.043.202.064.043.01.096.032.138.043.064.02.128.042.192.064.053.01.117.032.17.054.075.02.15.042.213.074.085.02.17.053.255.075.043.02.085.032.128.042.074.022.138.053.213.075.042.01.085.032.127.042.075.022.16.053.245.075.02.01.064.02.085.032.117.04.234.084.35.116.118.042.225.085.342.127.02 0 .032.01.053.01.106.043.202.075.308.118.022 0 .032 0 .043.012 28.67 10.085 49.946 32.712 59.244 59.946-12.5-15.223-29.756-26.797-50.288-32.127-8.138-2.116-16.308-3.127-24.34-3.127-42.904 0-82.075 28.83-93.362 72.287-4.925 18.968-3.84 38.075 2.053 55.34"/><path fill="#B13544" d="M976.438 1330.034c-8.042 0-16.202-1.01-24.34-3.128-49.415-12.83-79.904-61.702-70.628-111.127-5.415 28.87 2.756 57.563 20.34 79-5.882-17.256-6.978-36.373-2.042-55.342 11.277-43.457 50.458-72.287 93.362-72.287 8.043 0 16.19 1.012 24.33 3.118 20.542 5.34 37.787 16.904 50.287 32.14-5.968-17.512-16.894-33.108-31.543-44.704 29.107 23.01 43.522 61.83 33.596 100.032-11.287 43.468-50.457 72.298-93.362 72.298m-94.968-114.266c.022-.117.043-.223.064-.34-.02.117-.042.223-.064.34m.075-.383c.02-.106.042-.213.064-.32-.023.107-.044.214-.065.32m.064-.35c.052-.235.094-.47.148-.714-.054.246-.096.48-.15.714m.16-.755c.01-.097.032-.193.053-.278-.02.085-.04.18-.052.277m.075-.395c.02-.074.032-.16.053-.234-.02.076-.032.15-.053.235m.074-.35c.02-.075.032-.15.053-.235-.02.085-.032.16-.053.234m.075-.34c.02-.085.042-.17.053-.266-.01.096-.032.18-.053.266m.074-.34c.02-.118.053-.224.075-.33-.02.106-.053.212-.074.33m.096-.447c.02-.075.032-.15.053-.224-.02.075-.032.15-.053.224m.085-.362c.01-.064.032-.128.043-.18-.01.052-.032.116-.043.18m.085-.35c.01-.065.02-.118.032-.17l-.032.17m.075-.33c.02-.076.03-.15.053-.235-.022.085-.032.16-.053.234m.085-.372c.02-.096.042-.192.074-.288-.032.096-.053.192-.074.288m.106-.426c.01-.064.032-.128.043-.19-.01.062-.03.126-.042.19m.085-.34c.01-.064.032-.128.043-.202-.01.063-.032.138-.043.202m.085-.34c.01-.065.032-.14.053-.214-.02.075-.04.15-.052.213m.085-.33c.022-.106.054-.223.085-.33.107-.414.213-.83.33-1.244-.117.416-.223.83-.33 1.246-.03.106-.063.212-.085.33m153.31-51.884c-.065-.053-.13-.095-.193-.148.064.053.128.095.192.148m-.34-.265c-.022-.022-.054-.043-.075-.064.02.02.053.042.074.063m-34.573-17.19c-.01 0-.032-.012-.043-.012.022 0 .032.01.043.01m-.298-.073c-.107-.03-.214-.063-.32-.085-8.117-2.117-16.277-3.117-24.298-3.127 8.02 0 16.17 1.01 24.298 3.127.106.022.213.054.32.086m-24.82-3.212h.17-.17"/><path fill="#BE3E42" d="M881.47 1215.78v-.012.01m.064-.35c0-.01.01-.022.01-.043 0 .022-.01.032-.01.043m.075-.362v-.032.032m.148-.745c0-.01 0-.03.01-.04-.01.01-.01.03-.01.04m.063-.318c.012-.042.023-.085.023-.117-.01.032-.01.075-.022.117m.076-.35c.01-.043.01-.075.02-.118-.01.043-.01.075-.02.117m.074-.35c0-.032.01-.074.022-.106-.01.032-.01.074-.022.106m.075-.372c.01-.022.01-.053.02-.075-.01.022-.01.053-.02.075m.096-.404c.01-.043.01-.075.022-.117-.01.042-.01.074-.02.117m.073-.34l.032-.14c-.01.054-.02.097-.032.14m.075-.32c.01-.064.02-.117.042-.17-.02.053-.032.117-.042.17m.074-.34c.01-.054.032-.107.043-.16-.01.053-.032.106-.043.16m.096-.394c.01-.043.02-.096.032-.138l-.032.138m.106-.426l.032-.138c-.01.043-.02.096-.032.138m.075-.33c.01-.053.033-.095.043-.148-.01.053-.032.095-.042.15m.086-.352c.01-.043.032-.086.042-.14-.01.054-.032.097-.042.14m.095-.352c.012-.03.023-.074.033-.117-.01.043-.02.086-.032.117m.448-1.69c1.436-5.246 3.277-10.267 5.48-15.044-2.203 4.777-4.044 9.798-5.48 15.043"/><path fill="#AD3942" d="M888.747 1192.938c15.777-34.18 50.16-55.946 87.383-56.01-37.223.074-71.606 21.83-87.383 56.01"/><path fill="#BE3E42" d="M1036.204 1157.704c-.01-.01-.02-.02-.042-.032.02.01.032.022.042.032m-.234-.18c-.053-.043-.095-.075-.15-.117.055.042.097.074.15.117m-.223-.18c-1.65-1.278-3.34-2.512-5.075-3.693 1.735 1.182 3.426 2.416 5.075 3.693"/><path fill="#AD3942" d="M1030.672 1153.65c-8.744-5.956-18.627-10.552-29.425-13.435 10.798 2.872 20.68 7.48 29.425 13.436m-29.468-13.446l-.255-.063.254.064m-24.872-3.276h-.032.032"/><path fill="#9E2F3D" d="M901.81 1294.78c-17.584-21.437-25.755-50.13-20.34-79v-.012c.022-.117.043-.223.064-.34 0-.01.01-.022.01-.043l.065-.32v-.03c.052-.235.094-.47.148-.714 0-.01 0-.03.01-.04.01-.097.032-.193.053-.278.012-.042.012-.085.023-.117.02-.085.032-.16.053-.234.01-.04.01-.073.02-.116.022-.074.033-.15.054-.234.01-.032.01-.074.022-.106.02-.085.042-.17.053-.266.01-.022.01-.053.02-.075.022-.117.054-.223.076-.33.01-.042.01-.074.022-.116.02-.075.032-.15.053-.224l.032-.138c.01-.064.032-.128.043-.18.01-.054.02-.118.042-.17.01-.065.02-.118.032-.17.01-.055.032-.108.043-.16.02-.076.03-.15.053-.235.01-.043.02-.096.032-.138.02-.096.042-.192.074-.288.01-.042.02-.095.032-.138.01-.064.032-.128.043-.19.01-.055.033-.097.043-.15.01-.064.032-.14.043-.202.01-.043.032-.086.042-.14.01-.063.032-.137.053-.212.012-.03.023-.074.033-.117.022-.117.054-.223.085-.33.107-.414.213-.83.33-1.244 1.436-5.244 3.277-10.265 5.48-15.042 15.776-34.18 50.16-55.936 87.382-56.01h.202c8.02.01 16.18 1.01 24.298 3.127.106.022.213.054.32.086l.254.064c.01 0 .032.01.043.01 10.798 2.884 20.68 7.48 29.425 13.437 1.735 1.182 3.426 2.416 5.075 3.693.02.02.053.042.074.063.055.043.097.075.15.118.064.053.128.095.192.148.02.01.032.022.042.032 14.65 11.596 25.575 27.192 31.543 44.703-12.5-15.235-29.745-26.798-50.287-32.14-8.14-2.105-16.288-3.116-24.33-3.116-42.904 0-82.085 28.83-93.362 72.288-4.936 18.968-3.84 38.086 2.043 55.34"/><path fill="#B13544" d="M1258.672 944.992c-4.595 0-9.265-.575-13.914-1.788-26.724-6.946-43.777-32.287-41.107-58.925.246-2.373.64-4.767 1.203-7.16-4.074 17.36.554 34.818 11.117 47.68-3.36-9.872-3.99-20.808-1.17-31.66 6.458-24.872 28.862-41.372 53.415-41.372 4.606 0 9.277.575 13.936 1.787 11.767 3.043 21.63 9.67 28.788 18.383-4.16-12.18-12.51-22.766-23.797-29.553 20.437 12.287 31.277 36.968 24.98 61.224-6.47 24.882-28.894 41.382-53.447 41.382m-53.798-67.968c.02-.086.042-.17.053-.256-.01.085-.032.17-.053.256m.095-.405l.032-.128c-.01.042-.02.085-.032.127m.096-.394c.01-.032.01-.064.02-.085-.01.022-.01.054-.02.086m81.936-33.926c-.032-.02-.064-.032-.095-.053.03.02.063.032.095.053m-.35-.202c-.01-.01-.022-.01-.022-.02l.02.02m-14.414-5.915c-4.553-1.16-9.117-1.713-13.606-1.713 4.49 0 9.053.554 13.606 1.713m-13.776-1.713h.138-.138"/><path fill="#BE3E42" d="M1204.853 877.12c0-.033.01-.065.022-.096-.01.03-.022.063-.022.095m.075-.352c.02-.053.032-.106.042-.15-.01.044-.02.097-.042.15m.074-.276c.022-.085.043-.18.064-.266-.02.085-.042.18-.064.266m.085-.35c.022-.108.054-.204.075-.3-.02.096-.053.192-.075.3m.075-.3c6.457-24.83 28.798-41.308 53.298-41.372-24.5.064-46.84 16.543-53.298 41.373"/><path fill="#AD3942" d="M1287.14 842.385c-.042-.032-.095-.053-.138-.085.043.032.096.053.14.085m-.235-.138c-.086-.053-.17-.106-.256-.15.086.044.17.097.257.15"/><path fill="#BE3E42" d="M1283.832 840.545c-3.425-1.745-7.085-3.16-10.957-4.192 3.872 1.022 7.532 2.447 10.957 4.192"/><path fill="#AD3942" d="M1286.63 842.077c-.915-.532-1.85-1.043-2.798-1.532.947.49 1.883 1 2.798 1.532"/><path fill="#BE3E42" d="M1272.875 836.353c-.117-.032-.234-.064-.34-.095l.34.095m-.34-.095c-.107-.022-.203-.054-.3-.075.097.02.193.053.3.075m-13.905-1.788h-.032.032"/><path fill="#9E2F3D" d="M1215.97 924.8c-10.563-12.862-15.19-30.32-11.117-47.68 0-.033.01-.065.022-.096.02-.086.042-.17.053-.256.02-.053.032-.106.042-.15l.032-.126c.022-.085.043-.18.064-.266.01-.032.01-.064.02-.085.023-.106.055-.202.076-.297 6.457-24.83 28.798-41.31 53.298-41.373h.17c4.49 0 9.053.554 13.606 1.713.096.02.192.053.298.075l.34.095c3.873 1.032 7.533 2.447 10.958 4.192.947.49 1.883 1 2.798 1.532 0 .01.01.01.02.02.086.044.17.097.257.15.03.02.063.032.095.053.043.032.096.053.14.085 11.286 6.787 19.637 17.373 23.796 29.553-7.16-8.712-17.02-15.34-28.787-18.383-4.658-1.212-9.33-1.787-13.935-1.787-24.553 0-46.957 16.5-53.415 41.373-2.82 10.852-2.19 21.788 1.17 31.66"/><path fill="#B13544" d="M1421.024 751.492c-2.415 0-4.862-.31-7.31-.947-15.286-3.968-24.542-19.415-20.956-34.702-2.14 9.117.297 18.276 5.84 25.042-1.766-5.19-2.096-10.925-.617-16.627 3.395-13.064 15.17-21.734 28.065-21.734 2.415 0 4.872.308 7.32.946 6.17 1.596 11.35 5.064 15.116 9.65-1.903-5.575-5.478-10.51-10.276-14.043 9.277 6.82 13.958 18.84 10.883 30.67-.82 3.18-2.138 6.085-3.84 8.68-4.15 6.288-10.585 10.692-17.84 12.34-2.075.48-4.213.725-6.383.725m-28.256-35.703c.01-.054.032-.107.043-.16-.01.053-.03.106-.042.16m.053-.213c.012-.053.023-.107.044-.16-.02.053-.032.107-.043.16m.055-.202c.01-.075.032-.14.053-.213-.02.074-.043.138-.053.213m.234-.883c.04-.16.094-.33.148-.49-.054.16-.107.33-.15.49m45.075-15.426c-.042-.042-.096-.074-.15-.106.054.032.108.064.15.106m-.19-.138c-.044-.032-.076-.064-.118-.085.042.02.074.053.117.085m-.17-.128c-.043-.032-.086-.064-.128-.085.042.02.085.053.127.085m-.265-.18c-.01-.01-.03-.022-.042-.043.01.02.032.032.042.042m-.17-.118c-.01-.01-.02-.02-.032-.02.01 0 .022.01.032.02m-8.52-3.978h-.022.02m-.17-.043c-.02-.01-.052-.01-.074-.02.02.01.053.01.074.02m-.192-.052c-.064-.02-.127-.032-.19-.053.063.02.126.032.19.053m-.883-.224c-2.203-.51-4.416-.766-6.586-.766 2.17 0 4.383.256 6.585.766m-6.777-.766h.15-.15"/><path fill="#BE3E42" d="M1392.758 715.843c0-.022.01-.032.01-.054 0 .02-.01.03-.01.053m.053-.213c0-.01.01-.032.01-.053 0 .02-.01.042-.01.053m.054-.213c0-.01 0-.032.01-.042-.01.01-.01.032-.01.042m.064-.255c.053-.224.117-.447.18-.67-.063.223-.127.446-.18.67m.33-1.16c3.755-12.35 15.127-20.5 27.585-20.564-12.458.064-23.83 8.213-27.585 20.564m44.946-14.925c-.01-.01-.01-.01-.02-.01.01 0 .01 0 .02.01m-.17-.117c-.01-.01-.02-.022-.042-.032.02.01.032.02.042.032m-.16-.117c-.02-.022-.042-.032-.053-.043.012.01.033.02.055.043m-.18-.128c-.044-.032-.086-.064-.14-.096.054.03.096.063.14.095m-.182-.138c-.043-.022-.085-.053-.128-.075.043.022.085.053.128.075m-.16-.096c-2.532-1.733-5.383-3.084-8.49-3.956 3.107.872 5.958 2.223 8.49 3.957m-8.51-3.956c-.053-.022-.096-.032-.15-.043.054.012.097.022.15.044m-.224-.064c-.033-.01-.075-.022-.118-.032.043.01.075.02.117.032m-.31-.085c-.233-.054-.467-.117-.69-.17.223.053.457.116.69.17m-7.276-.937h-.042.042"/><path fill="#9E2F3D" d="M1398.598 740.885c-5.543-6.766-7.98-15.925-5.84-25.042 0-.022.01-.032.01-.054.01-.054.032-.107.043-.16 0-.01.01-.032.01-.053.012-.053.023-.107.044-.16 0-.01 0-.032.01-.042.01-.075.033-.14.054-.213.053-.224.117-.447.18-.67.043-.16.096-.33.15-.49 3.755-12.35 15.127-20.5 27.585-20.564h.19c2.17 0 4.384.256 6.586.766.223.054.457.117.69.17.065.022.128.033.192.054.043.01.085.02.117.032.02.01.053.01.074.02.053.012.096.022.15.044h.02c3.106.872 5.957 2.223 8.49 3.957.01 0 .02.012.03.022.044.022.086.053.13.075.01.02.03.032.04.042.055.03.097.063.14.095.042.02.085.053.127.085.012.01.033.02.055.043.042.02.074.053.117.085.02.01.032.02.042.032.053.032.107.064.15.106.01 0 .01 0 .02.01 4.798 3.533 8.373 8.47 10.277 14.043-3.765-4.586-8.946-8.054-15.116-9.65-2.447-.638-4.904-.946-7.32-.946-12.893 0-24.67 8.67-28.063 21.734-1.478 5.702-1.148 11.436.618 16.627"/><path fill="#B13544" d="M403.502 1269.907c-2.404 0-4.86-.31-7.298-.937-13.468-3.5-22.255-15.904-21.712-29.255-.288 7.234 2.15 14.18 6.595 19.596-1.776-5.19-2.095-10.946-.617-16.638 3.394-13.074 15.17-21.734 28.075-21.734 2.404 0 4.862.31 7.308.937 6.16 1.617 11.35 5.085 15.107 9.66-1.99-5.852-5.83-10.99-10.99-14.554 9.756 6.724 14.766 19.054 11.617 31.192-3.404 13.064-15.18 21.735-28.085 21.735m-29-30.235v-.148.148m.01-.223v-.13.13m.012-.214v-.127.126m.01-.202c0-.064.01-.128.01-.19 0 .063-.01.126-.01.19m.02-.287v-.096.097m.012-.202c0-.032.01-.064.01-.096 0 .03-.01.063-.01.095m.02-.202v-.085.085m.023-.202v-.063.064m.052-.52v-.043.042m.02-.192v-.043.043m.022-.192c0-.01 0-.032.01-.042-.01.01-.01.032-.01.042m.022-.19c0-.012.01-.012.01-.012s-.01 0-.01.01m.106-.712c0-.01.01-.02.01-.032 0 .01-.01.02-.01.032m.032-.19v-.023.02m.128-.712c0-.01.01-.022.01-.032 0 .01-.01.02-.01.032m.032-.17c.01-.022.01-.043.01-.064 0 .02 0 .042-.01.064m.042-.203c0-.02.01-.03.01-.042 0 .01-.01.032-.01.042m.043-.19v-.022.02m.073-.33c0-.02 0-.03.01-.04-.01.01-.01.02-.01.04m.032-.17c.01-.02.01-.042.02-.074-.01.03-.01.053-.02.074m.043-.18c.01-.033.02-.075.032-.107-.01.032-.022.064-.032.106m.053-.202c.01-.042.022-.073.033-.116-.01.043-.022.085-.032.117m.054-.19c.01-.075.032-.14.043-.203.053-.19.095-.372.148-.553-.053.18-.095.362-.148.553-.01.064-.032.128-.043.202m44.553-16.84c-.032-.022-.074-.054-.106-.075.033.02.075.053.107.074m-.19-.13c-.023-.01-.044-.03-.065-.04.02.01.042.03.064.04m-8.394-3.87s0-.012-.01-.012c.01 0 .01.01.01.01m-.16-.052c-.02 0-.042-.01-.063-.01.02 0 .04.01.063.01m-.192-.043c-.063-.02-.127-.042-.19-.053l-.362-.096.362.096c.063.01.127.032.19.053m-.882-.223c-2.202-.52-4.404-.766-6.585-.777 2.18.01 4.383.256 6.585.777m-6.777-.777h.15-.15"/><path fill="#AD3942" d="M374.492 1239.715c0-.01 0-.02.01-.043-.01.022-.01.032-.01.043m.01-.19c0-.033 0-.055.01-.076-.01.02-.01.042-.01.074m.01-.203c0-.03 0-.052.012-.084-.01.032-.01.064-.01.085m.01-.21c0-.023.01-.044.01-.076 0 .032-.01.053-.01.075m.02-.267c0-.032 0-.064.01-.096-.01.032-.01.064-.01.096m.01-.192c.012-.03.012-.073.012-.105 0 .032 0 .074-.01.106m.02-.2c0-.033.01-.075.01-.107 0 .032-.01.074-.01.106m.01-.192c.012-.032.012-.075.023-.117-.012.043-.012.086-.023.118m.022-.18c.01-.15.03-.31.052-.46-.02.15-.043.31-.053.46m.052-.5c.01-.054.01-.097.02-.15-.01.053-.01.096-.02.15m.02-.193c.012-.053.012-.096.022-.15-.01.044-.01.097-.02.15m.03-.19c0-.054.012-.108.012-.15 0 .042-.01.096-.01.15m.02-.16c.032-.246.064-.47.096-.703l-.096.702m.107-.734c.01-.053.01-.106.02-.16-.01.054-.01.107-.02.16m.02-.18l.13-.692-.13.69m.14-.722c.01-.053.02-.096.02-.138 0 .042-.01.085-.02.138m.03-.202c.012-.043.022-.096.033-.14-.01.044-.02.097-.032.14m.043-.18c.01-.054.02-.107.032-.15-.012.043-.023.096-.033.15m.032-.17c.02-.108.052-.214.073-.31-.02.096-.053.202-.074.31m.084-.352c0-.043.01-.085.02-.128-.01.043-.02.085-.02.128m.042-.203c.01-.032.022-.075.022-.107 0 .032-.01.075-.022.106m.054-.213c0-.032.01-.064.02-.096-.01.033-.02.065-.02.097m.053-.213c0-.02.01-.053.02-.075-.01.02-.02.053-.02.074m.212-.83c3.564-12.702 15.107-21.106 27.766-21.18-12.658.074-24.2 8.478-27.765 21.18m44.415-16.053c-.02-.01-.042-.02-.053-.03.01.01.032.02.053.03m-.16-.105c-.03-.022-.052-.032-.084-.054.032.023.053.033.085.055m-.148-.096c-2.49-1.67-5.287-2.98-8.33-3.83 3.043.85 5.84 2.16 8.33 3.83m-8.34-3.842c-.043-.01-.096-.02-.15-.042.054.02.107.032.15.042m-.213-.053c-.044-.01-.086-.02-.13-.032l.13.032m-.682-.18c-.107-.022-.224-.054-.33-.075.106.02.223.053.33.074m-6.915-.85h-.043.043"/><path fill="#9E2F3D" d="M381.087 1259.31c-4.446-5.414-6.883-12.36-6.595-19.595 0-.01 0-.02.01-.043v-.148c0-.032 0-.054.01-.075v-.13c0-.02 0-.052.012-.084v-.127c0-.023.01-.044.01-.076 0-.064.01-.128.01-.19 0-.033 0-.065.01-.097v-.096c.012-.03.012-.073.012-.105s.01-.064.01-.096c0-.033.01-.075.01-.107v-.085c.012-.032.012-.075.023-.117v-.063c.01-.15.03-.31.052-.458v-.043c.01-.053.01-.096.02-.15v-.042c.012-.053.012-.106.022-.15 0-.01 0-.03.01-.04 0-.054.012-.108.012-.15 0-.01.01-.01.01-.01l.096-.703c0-.01.01-.02.01-.032.01-.053.01-.106.022-.16v-.02l.128-.692c0-.01.01-.022.01-.032.01-.053.022-.096.022-.138.01-.022.01-.043.01-.064.01-.043.02-.096.032-.14 0-.01.01-.03.01-.04.01-.054.022-.107.033-.15v-.02c.02-.108.052-.214.073-.31 0-.02 0-.032.01-.042 0-.043.01-.085.022-.128.01-.02.01-.043.02-.075.012-.032.023-.075.023-.107.01-.042.02-.074.032-.106 0-.032.01-.064.02-.096.01-.03.022-.073.033-.116 0-.02.01-.053.02-.075.012-.075.033-.14.044-.203.053-.19.095-.372.148-.553 3.564-12.702 15.107-21.106 27.766-21.18h.193c2.18.01 4.383.255 6.585.776.106.02.223.053.33.074l.362.096c.063.01.127.032.19.053l.13.032c.02 0 .04.01.063.01.053.022.106.033.148.043.012 0 .012.01.012.01 3.043.852 5.84 2.16 8.33 3.83.02.01.042.033.064.043.032.023.053.033.085.055.033.02.075.053.107.074.01.01.032.02.053.03 5.16 3.565 9 8.703 10.99 14.554-3.756-4.574-8.947-8.042-15.107-9.66-2.446-.627-4.904-.936-7.308-.936-12.904 0-24.68 8.66-28.075 21.734-1.478 5.692-1.16 11.447.617 16.64"/></g></g></g></svg>