<svg xmlns="http://www.w3.org/2000/svg" viewBox="0 0 733 732"><g fill="none" fill-rule="evenodd"><g><g><path fill="#5FA0CA" d="M727.935 419.147c-29.39 199.925-215.288 338.174-415.213 308.788C112.797 698.545-25.452 512.652 3.94 312.722 33.324 112.797 219.216-25.452 419.146 3.94 619.072 33.324 757.32 219.216 727.935 419.146"/><path fill="#5FA0CA" d="M727.935 419.147c-29.39 199.925-215.288 338.174-415.213 308.788C112.797 698.545-25.452 512.652 3.94 312.722 33.324 112.797 219.216-25.452 419.146 3.94 619.072 33.324 757.32 219.216 727.935 419.146"/><path fill="#41839F" d="M729.586 354.496c-.17-6.99-.508-13.946-1.068-20.86l-9.917 4.707 10.986 16.153M206.9 125.293c6.047 2.64 11.6 4.45 16.647 5.498l7.237-7.72-22.236-30.678-18.632 8.844 16.143 23.74.84.317M461.898 372.142c-1.607 23.252-19.5 27.214-46.92 15.265-27.42-11.95-67.595 16.84-72.78 37.506 0 0-1.01 20.87-3.325 46.94-2.315 26.065 34.703 18.992 50.225.92 15.517-18.08 25.557-34.586 42.685-36.203 17.134-1.617 38.01 5.143 57.883 10.127 19.87 4.99 5.513-57.34-6.698-77.722-12.206-20.383-19.46-20.09-21.07 3.167M660.384 465.715c-3.095 44.717-37.5 52.334-90.225 29.36-33.79-14.727-77.625 2.735-107.396 27.62l-1.412-1.7-69.252 36.48-53.33 54.62 37.413 57.77 25.52 29.077-15.655 28.924c66.245-3.712 128.78-25.398 181.96-60.84l-41.14-15.486c26.296-31.624 45.118-59.05 75.613-61.928 14.46-1.366 30.31.38 46.776 3.567 26.65-32.75 47.86-70.393 62.02-111.754-3.402-8.556-6.934-16.045-10.373-21.794-23.477-39.19-37.43-38.63-40.52 6.083M492.953 131.342c5.65-22.528-51.58-64.818-71.152-76.947-19.57-12.13-49.27 15.193-53.35 21.77-17.863 28.773 29.37 52.6 34.062 60.423 4.686 7.827 84.79 17.282 90.44-5.246M442.894 247.817c-9.86 14.398 33.194 24.577 33.194 24.577s32.77 13.843 45.56 2.68c12.796-11.16.036-39.976-22.15-51.17-22.183-11.185-46.75 9.516-56.604 23.913M247.994 413.82c-22.184-11.185-46.75 9.516-56.61 23.913-9.86 14.398 33.2 24.577 33.2 24.577s32.767 13.838 45.563 2.68c12.797-11.16.03-39.98-22.153-51.17"/><path fill="#41839F" d="M586.758 403.554c-22.184-11.185-46.75 9.516-56.605 23.914-9.86 14.397 33.2 24.576 33.2 24.576s32.762 13.838 45.558 2.68c12.798-11.16.037-39.98-22.152-51.17M619.176 192.944c12.8-11.158.036-39.98-22.148-51.164-22.185-11.19-46.75 9.51-56.61 23.91-9.856 14.397 33.2 24.575 33.2 24.575s32.762 13.838 45.558 2.68M304.454 285.498c-22.184-11.185-46.75 9.516-56.61 23.914-9.855 14.397 33.2 24.576 33.2 24.576s32.762 13.838 45.564 2.68c12.796-11.16.03-39.98-22.154-51.17M111.47 282.312c-47.668.483-71.28 57.422-75.39 90.647-4.117 33.224 78.23 12.61 78.23 12.61s68.04-5.287 80.016-35.586c11.97-30.3-35.186-68.16-82.855-67.672M195.152 638.606l42.685 10.707 10.003-12.935 31.578-6.56 9.84 10.795 17.415-15.548-15.865-40.668-17.478-11.138-37.038 20.633-50.4-26.157-13.643 23.61-16.103-35.898 33.615-3.15 32.24 17.738 17.046-10.204 45.19 4.578-26.08-46.13-40.873-10.254-22.96 22.24-11.107-24.992-38.872-12.52C110.856 506.6 79.508 525.232 51.33 548c27.08 46.997 64.442 87.757 109.493 118.852l3.188-4.194 31.142-24.052M687.363 237.354l27.686 28.185-4.102 16.352-51.56 1.545-4.11 35.658-23.068-23.53-31.665 14.624 10.877 29.765 25.428 10.24 53.397-24.258 8.613 19.536s-12.96 17.025-6.38 25.433c5.96 7.617 32.614 23.586 37.614 26.542 1.222-13.787 1.653-27.47 1.334-41.027l-10.984-16.152 9.917-4.707c-3.418-42.104-14.1-82.587-30.93-119.98l-12.067 21.774M206.613 91.18l22.236 30.68-7.238 7.72c-5.046-1.048-10.6-2.86-16.646-5.498l-.842-.318-16.143-23.74 18.633-8.844zm-48.83-5.492l8.62 19.54s-12.96 17.027-6.38 25.434l.04.052c-14.038 8.284-25.294 20.588-27.876 30.88 0 0-1.01 20.87-3.326 46.934-2.314 26.065 34.704 18.997 50.226.92 15.516-18.074 25.556-34.58 42.685-36.198 17.134-1.617 38.01 5.143 57.884 10.127 19.87 4.984 5.513-57.34-6.698-77.722-1.047-1.75-2.043-3.29-3.02-4.733-.83-3.16-1.764-6.292-2.673-9.43 25.31 2.958 59.305 1.628 62.914-12.764 4.696-18.73-34.046-51.103-58.505-68.462-64.602 17.113-123 51.642-169.015 98.982l1.735.698 53.392-24.258z"/><path fill="#1D2533" d="M370.49 733.056c160.572-2.428 302.177-110.583 346.08-265.965-43.903 155.393-185.493 263.553-346.08 265.966m-59.156-3.896l-.518-.077c.17.025.35.05.518.077m-.688-.103c-.128-.02-.25-.036-.38-.056.124.02.257.037.38.057m-.544-.082c-.35-.05-.698-.103-1.047-.16.344.052.708.11 1.047.16m-1.21-.185c-.13-.02-.263-.04-.39-.056.132.02.255.036.39.056m-.535-.082l-1.068-.164 1.067.164m-1.2-.19l-.407-.06c.15.02.262.04.406.06m-.554-.087c-.175-.025-.35-.056-.52-.08.17.024.35.055.52.08m-.524-.08c-.18-.032-.354-.058-.54-.09.18.032.36.058.54.09m-.662-.11c-.144-.025-.288-.045-.43-.07.142.025.286.045.43.07m-.55-.09c-.36-.058-.728-.12-1.088-.18.365.06.724.122 1.09.18m-1.177-.197c-.148-.025-.296-.05-.44-.07.144.02.292.045.44.07m-.58-.097l-1.066-.185c.35.063.718.124 1.067.186m-1.174-.2l-.442-.077.442.076m-.555-.098l-.517-.092c.18.03.34.06.518.092m-.532-.092c-.18-.03-.375-.067-.555-.098.18.03.375.067.555.098m-.632-.113c-.143-.026-.308-.057-.457-.082.16.032.302.057.456.083m-.58-.103c-.17-.03-.333-.06-.503-.092.17.03.334.06.503.092m-.523-.097c-.195-.03-.365-.067-.555-.098.18.03.37.067.555.098m-.627-.113l-.472-.087c.16.03.313.056.472.087m-.58-.108c-.16-.026-.333-.062-.492-.087.164.03.328.056.492.087m-.533-.097l-.55-.103.55.103m-.616-.113c-.154-.03-.313-.062-.467-.088.16.026.313.057.467.088m-.585-.113c-.154-.032-.334-.063-.488-.094l.488.093m-.53-.1l-.543-.107.543.108m-.637-.122c-.143-.03-.292-.057-.436-.087.144.03.293.057.436.088m-.574-.113l-.427-.082c.144.026.283.056.427.082m-.534-.103l-.514-.102c.165.03.35.066.514.102m-.642-.128l-.395-.077c.134.026.268.05.396.077m-.565-.113c-.132-.025-.27-.05-.41-.08.145.03.268.055.41.08m-.512-.102c-.18-.035-.344-.066-.523-.102.164.03.354.072.523.102m-.626-.123c-.144-.03-.287-.06-.43-.087.143.026.29.056.43.087m-.565-.118c-.143-.025-.277-.056-.42-.087.138.03.277.062.42.087m-.533-.108l-.52-.108c.165.036.35.072.52.107m-.622-.13c-.138-.03-.277-.055-.41-.086l.41.087m-.59-.122c-.123-.026-.246-.05-.37-.077.12.027.252.052.37.078m-.513-.108l-.504-.108.503.108m-.638-.133c-.128-.03-.256-.057-.385-.082.134.025.252.05.385.082m-.564-.124c-.13-.025-.24-.05-.37-.076.118.025.252.05.37.076m-.513-.107c-.175-.04-.33-.072-.498-.108l.498.108m-.657-.144l-.355-.077c.108.026.252.056.355.077m-.555-.123c-.118-.027-.22-.047-.333-.073l.333.072m-.508-.11c-.164-.035-.328-.076-.488-.107.165.036.32.067.488.108m-.642-.143c-.123-.025-.236-.05-.364-.082.132.03.235.05.363.082m-.554-.123c-.11-.026-.222-.05-.33-.077.108.026.22.05.33.077m-.524-.118l-.473-.108c.15.036.32.072.473.108m-.647-.15l-.33-.07c.108.02.22.05.33.07m-.566-.127c-.087-.022-.18-.042-.267-.063.082.02.185.04.267.062m-.503-.12l-.312-.066c.108.02.205.046.313.067m-.697-.158c-.077-.02-.174-.04-.25-.057.08.016.168.036.25.057m-.513-.118c-.082-.02-.16-.04-.24-.057.08.016.153.036.24.057m-.498-.118c-.087-.02-.175-.04-.262-.062.093.02.17.04.262.062m-.73-.175l-.2-.045c.073.015.13.03.2.046m-.497-.117l-.19-.046c.062.015.13.03.19.046m-.482-.118c-.062-.015-.124-.026-.185-.04.056.01.123.03.185.04m-.75-.18c-.05-.01-.108-.025-.16-.036.058.01.104.02.16.035m-.472-.113c-.05-.015-.112-.03-.168-.04.06.015.113.025.17.04m-.49-.123l-.117-.026.118.025m-.805-.196l-.072-.02c.02.005.046.01.072.02m-.432-.108c-.03-.01-.077-.02-.113-.03.047.015.067.015.113.03m-.467-.118c-.016-.005-.042-.01-.057-.015.01.005.046.01.056.015m-1.238-.313c-.036-.01-.046-.01-.082-.02.026.005.062.015.082.02m-.457-.118c-.01 0-.025-.005-.035-.01.01.005.02.01.035.01m-1.252-.323c-.02-.005-.026-.005-.04-.01.01.005.03.01.04.01"/><path fill="#548FB5" d="M365.393 728.857c-17.703 0-35.632-1.288-53.67-3.937-.168-.026-.348-.05-.517-.077-.057-.01-.113-.015-.17-.026-.123-.02-.256-.036-.38-.056-.056-.01-.107-.015-.164-.025-.34-.05-.703-.108-1.047-.16-.05-.004-.108-.014-.164-.025l-.39-.056c-.045-.01-.097-.015-.143-.026l-1.068-.164c-.042-.01-.088-.015-.134-.026-.144-.02-.257-.04-.405-.06-.046-.006-.102-.017-.148-.027-.17-.025-.35-.055-.52-.08h-.004c-.18-.032-.36-.057-.54-.088-.035-.005-.086-.016-.122-.02-.144-.026-.287-.047-.43-.073-.047-.006-.073-.01-.12-.02-.364-.058-.723-.12-1.087-.18l-.09-.016c-.148-.026-.296-.052-.44-.072-.046-.01-.093-.016-.14-.026-.348-.06-.717-.123-1.066-.185l-.108-.014c-.15-.026-.298-.05-.442-.077-.035-.006-.077-.016-.112-.02-.18-.032-.34-.063-.52-.094h-.014c-.18-.03-.375-.067-.555-.097-.025-.007-.046-.012-.077-.017-.154-.025-.297-.05-.456-.082-.047-.004-.077-.014-.124-.02-.17-.03-.333-.06-.503-.092l-.02-.005c-.185-.03-.375-.067-.555-.098-.02-.005-.056-.01-.07-.015-.16-.03-.315-.056-.474-.087-.036-.005-.066-.01-.107-.02-.165-.032-.33-.057-.493-.088-.01-.005-.03-.01-.04-.01l-.55-.103c-.02-.005-.047-.01-.067-.01-.154-.03-.308-.062-.467-.087-.04-.01-.077-.016-.118-.026-.16-.032-.33-.063-.488-.093-.015-.006-.026-.006-.04-.006l-.545-.106-.093-.016c-.144-.03-.293-.056-.437-.087-.046-.004-.092-.014-.138-.025-.144-.025-.283-.056-.426-.082-.036-.005-.072-.015-.108-.02-.164-.036-.35-.072-.513-.103-.036-.005-.093-.015-.13-.026l-.394-.077-.168-.036c-.144-.024-.267-.05-.41-.08-.037-.006-.068-.01-.104-.02-.17-.032-.36-.073-.523-.104-.026-.005-.072-.015-.103-.02-.14-.03-.287-.062-.43-.088l-.135-.03c-.143-.026-.282-.057-.42-.088-.036-.005-.077-.015-.113-.02-.17-.036-.355-.072-.52-.108-.035-.005-.065-.015-.1-.02l-.412-.088c-.062-.01-.118-.02-.18-.036-.118-.025-.25-.05-.37-.077-.045-.01-.102-.02-.143-.03-.17-.036-.34-.07-.504-.107-.046-.01-.092-.016-.133-.026-.134-.03-.252-.057-.385-.082-.062-.016-.118-.026-.18-.04-.118-.027-.252-.053-.37-.078-.04-.01-.102-.02-.143-.03l-.498-.11-.16-.035c-.102-.02-.246-.05-.354-.077-.06-.015-.138-.03-.2-.046-.118-.027-.215-.047-.333-.073-.057-.01-.124-.025-.175-.036-.17-.04-.323-.07-.488-.107-.056-.015-.097-.025-.153-.035l-.365-.083c-.063-.015-.13-.03-.19-.04l-.33-.078c-.06-.01-.128-.025-.194-.04-.154-.037-.324-.073-.473-.108-.056-.017-.118-.027-.174-.043-.11-.02-.222-.05-.33-.07-.077-.022-.154-.037-.236-.058l-.267-.062c-.082-.016-.16-.036-.236-.057-.107-.02-.204-.045-.312-.066-.133-.03-.25-.06-.385-.092-.082-.02-.17-.04-.25-.057-.09-.025-.176-.04-.263-.06-.087-.022-.16-.042-.24-.058l-.258-.06c-.092-.022-.17-.042-.262-.063-.154-.036-.318-.077-.467-.113-.072-.014-.128-.03-.2-.045-.103-.026-.19-.046-.298-.072l-.19-.046c-.097-.02-.195-.046-.292-.072-.062-.01-.13-.03-.185-.04-.19-.047-.38-.093-.565-.14-.056-.015-.102-.025-.16-.035-.107-.03-.204-.052-.312-.077-.055-.016-.107-.026-.168-.04-.103-.027-.21-.058-.32-.084l-.117-.026-.687-.17c-.026-.01-.052-.015-.072-.02l-.36-.087c-.046-.016-.066-.016-.112-.03-.124-.032-.23-.058-.355-.088-.01-.007-.047-.012-.057-.017-.39-.097-.79-.2-1.18-.298-.02-.005-.057-.015-.083-.02-.123-.03-.25-.067-.374-.098-.016 0-.026-.005-.036-.01-.406-.103-.81-.205-1.217-.313-.01 0-.03-.005-.04-.01-84.637-22.005-155.794-72.81-204.28-140.06 24.377 33.794 54.476 63.43 89.133 87.35l3.188-4.193L191.614 636l42.686 10.707 10.004-12.934 31.577-6.56 9.84 10.795 17.417-15.547-15.866-40.668-2.073-1.32c.97.006 1.95.01 2.92.01 32.138 0 63.56-4.24 93.625-12.256l-43.245 44.29 37.414 57.772 25.52 29.077-15.654 28.924c66.245-3.71 128.78-25.397 181.96-60.84l-41.14-15.486c26.296-31.622 45.118-59.047 75.613-61.927 3.386-.318 6.856-.467 10.387-.467 11.534 0 23.78 1.59 36.387 4.035 26.65-32.747 47.86-70.39 62.02-111.752-3.402-8.557-6.934-16.045-10.373-21.794-11.27-18.817-20.35-28.472-27.08-28.472-7.288 0-11.83 11.313-13.438 34.554-1.976 28.55-16.712 41.972-40.826 41.977-13.664 0-30.33-4.312-49.4-12.617-8.56-3.73-17.774-5.4-27.234-5.4-5.272 0-10.62.52-15.98 1.484 14.373-12.39 27.806-25.906 40.14-40.432 6.155 2.023 15.548 4.548 24.058 4.548 5.723 0 11.046-1.14 14.72-4.348 9.877-8.613 4.528-27.748-8.627-41.175 12.9-20.368 23.868-42.157 32.63-65.193l6.58 2.65 53.397-24.26 8.613 19.536s-12.96 17.026-6.38 25.434c5.96 7.617 32.614 23.585 37.613 26.542 1.222-13.787 1.653-27.47 1.335-41.027l-10.983-16.153 10.984 16.153c-.143-6.03-.415-12.032-.85-18.006 1.924 26.264 1.025 53.144-2.963 80.282-2.35 15.984-5.702 31.577-9.978 46.72-43.903 155.38-185.508 263.536-346.08 265.964-1.827.025-3.654.04-5.487.04m-132.638-137.57l-50.4-26.157-13.643 23.61-15.096-33.66c25.51 10.018 52.556 17.307 80.833 21.464 6.82 1 13.627 1.807 20.412 2.428l-22.107 12.314M67.99 576.662l-.092-.123c.03.045.06.08.092.122m-20.193-31.27c-16.538-28.697-29.237-59.705-37.53-92.257 21.577 25.11 46.574 47.35 74.425 65.936-12.8 8.024-25.125 16.812-36.895 26.323"/><path fill="#3C768F" d="M729.586 354.496L718.6 338.343l9.913-4.707c.077.955.154 1.9.22 2.854.437 5.975.71 11.975.853 18.006M386.048 727.866l15.655-28.923-25.52-29.078-37.414-57.77 43.244-44.292c53.823-14.346 103.33-40.78 144.93-76.644 5.36-.966 10.708-1.484 15.98-1.484 9.46 0 18.673 1.668 27.235 5.4 19.067 8.304 35.734 12.616 49.398 12.616 24.114-.005 38.85-13.428 40.826-41.977 1.607-23.24 6.15-34.554 13.438-34.554 6.73 0 15.81 9.656 27.08 28.473 3.44 5.75 6.972 13.238 10.375 21.794-14.162 41.36-35.37 79.005-62.02 111.753-12.607-2.443-24.854-4.035-36.388-4.035-3.532 0-7.002.15-10.39.467-30.494 2.88-49.316 30.305-75.612 61.928l41.14 15.486c-53.18 35.443-115.715 57.13-181.96 60.84M593.806 456.153c-8.51 0-17.903-2.526-24.058-4.548 10.938-12.883 21.03-26.578 30.15-40.976 13.156 13.427 18.505 32.562 8.63 41.175-3.676 3.208-9 4.348-14.722 4.348M160.818 663.592c-34.657-23.92-64.756-53.556-89.132-87.35-.057-.078-.113-.155-.165-.232-.03-.04-.06-.077-.09-.123-7.213-10.024-13.926-20.434-20.1-31.146 11.768-9.51 24.092-18.298 36.894-26.32 21.383 14.28 44.45 26.398 68.924 36.007l15.096 33.66 13.643-23.61 50.4 26.157 22.107-12.314c10.178.924 20.27 1.417 30.335 1.5l2.073 1.318 15.865 40.668-17.416 15.547-9.84-10.794-31.577 6.56-10.004 12.933-42.684-10.707-31.14 24.053-3.188 4.192"/><path fill="#548FB5" d="M653.876 320.522l-12.16-12.4c2.988-11.88 5.4-24.002 7.222-36.373 7.258-49.384 4.276-97.905-7.33-143.428 22.898 26.644 41.94 56.523 56.42 88.685l-12.067 21.774 27.688 28.186-4.1 16.353-51.56 1.544-4.112 35.658m64.808-44.666c0-.005 0-.016-.006-.02.006.01.006.01.006.02m-.303-1.165c-.004-.035-.015-.066-.02-.097.005.03.016.067.02.098m-.138-.528l-.046-.19c.015.067.03.123.046.19m-.138-.53c-.016-.07-.036-.153-.057-.225.02.072.04.15.057.226m-.13-.503c-.06-.22-.122-.452-.184-.672.062.226.124.446.185.672m-.195-.718l-.108-.4c.036.127.072.27.108.4m-.133-.498l-.108-.406c.035.134.07.272.107.406m-.13-.478c-4.3-15.886-9.664-31.403-16.003-46.437 6.344 15.04 11.703 30.545 16.004 46.436m-16.035-46.503c-.036-.088-.072-.18-.113-.267.04.087.077.18.113.267m-.226-.534c-.025-.068-.05-.13-.082-.196.03.066.057.123.082.195m-.246-.592l-.04-.092.04.092"/><path fill="#3C768F" d="M731.167 397.448c-5-2.956-31.655-18.925-37.614-26.542-6.58-8.408 6.38-25.433 6.38-25.433l-8.613-19.536-53.397 24.258-6.58-2.65c5.03-13.216 9.336-26.87 12.847-40.85l12.16 12.4 4.11-35.658 51.56-1.545 4.102-16.353-27.686-28.186 12.067-21.774c1 2.223 1.98 4.466 2.94 6.71l.042.09c.05.13.113.268.164.397.03.066.056.128.08.195.037.087.078.18.114.267.04.086.077.178.113.266.01.025.02.04.03.066 6.34 15.034 11.704 30.55 16.005 46.437.006.025.01.046.02.07l.11.407.024.097.108.4c.005.02.01.026.01.047.062.22.124.452.185.673.02.093.045.185.07.277.022.072.042.154.058.226.03.108.06.23.092.34l.046.19c.04.137.077.29.118.43.005.03.016.062.02.098.103.385.2.76.298 1.144.006.005.006.016.006.02 5.112 19.855 8.582 40.304 10.27 61.133l-9.91 4.708L732.5 356.42c.32 13.557-.112 27.24-1.333 41.028"/></g></g></g></svg>