<svg xmlns="http://www.w3.org/2000/svg" viewBox="0 0 804 793"><g fill="none" fill-rule="evenodd"><g><g><path fill="#D2ECF2" d="M803.882 396.397c0 218.932-179.96 396.404-401.944 396.404C179.952 792.8 0 615.33 0 396.398 0 177.47 179.952 0 401.938 0c221.985 0 401.944 177.47 401.944 396.397"/><path fill="#1C2432" d="M401.045 792.865h-.235.235m-.7 0h-.28.28m-.702-.006h-.287.287m-.7 0c-.103 0-.198 0-.294-.008.088.007.197.007.292.007m-.72-.008c-.09 0-.18 0-.274-.006.095.006.178.006.274.006m-.76-.006c-.07 0-.14 0-.21-.006.084.006.135.006.21.006m-1.617-.02c-.07-.005-.128-.005-.198-.005.07 0 .134 0 .198.007m-.702-.012c-.076 0-.16-.007-.235-.007.076 0 .16.007.235.007m-.707-.013c-.083 0-.153 0-.236-.006.083.006.153.006.236.006m-.727-.013c-.07 0-.147-.007-.21-.007.063 0 .14.006.21.006m-.72-.013c-.07-.006-.135-.006-.205-.006.07 0 .14 0 .204.007m-.785-.02c-.038 0-.076 0-.114-.005.04.006.077.006.115.006m-1.56-.038c-.02 0-.04-.006-.052-.006.012 0 .038.006.05.006m-.7-.02c-.045-.005-.102-.005-.147-.005.05 0 .09 0 .147.006m-.727-.024h-.127.126m-.733-.02c-.038-.005-.076-.005-.115-.005.026 0 .09 0 .115.007m-.758-.025c-.026-.006-.04-.006-.058-.006.026 0 .032 0 .058.006m415.965-396.17c0-.202 0-.384-.006-.585.006.195.006.39.006.584m-.006-.772v-.402.402m0-.61v-.42.42m0-.59c0-.176 0-.352-.006-.522.006.182.006.34.006.522m-.006-.598v-.578.578m-.007-.766v-.41.41m-.005-.61v-.41.41m-.006-.604v-.452.452m-.008-.59c0-.19 0-.39-.006-.58.006.196.006.385.006.58m-.006-.748c-.007-.15-.007-.277-.007-.422 0 .14 0 .277.006.422m-.013-.623c0-.133 0-.27-.006-.403.006.138.006.264.006.402m-.006-.598c-.007-.15-.007-.29-.013-.434.006.14.006.296.013.434m-.013-.597c-.006-.19-.006-.383-.013-.572.008.195.008.377.014.572m-.02-.754c0-.13 0-.263-.006-.395.007.132.007.27.007.396m-.013-.634c0-.12-.006-.226-.006-.346 0 .113.006.233.006.346m-.013-.597c0-.108-.007-.228-.007-.334 0 .12.006.213.006.333m-.013-.592c-.007-.182-.013-.346-.013-.534 0 .176.006.364.013.534m-.026-.798c0-.1-.005-.202-.005-.308 0 .094.006.213.006.308m-.012-.598c-.006-.106-.006-.194-.012-.3.006.106.006.194.012.3m-.02-.578c0-.094-.005-.2-.01-.295.005.106.005.187.01.294m-.018-.59c-.006-.145-.006-.296-.013-.44 0 .138.007.3.013.44m-.025-.805c-.007-.096-.007-.196-.013-.284.006.094.006.188.013.283m-.02-.586c-.006-.094-.006-.188-.012-.276.006.094.006.176.013.276m-.026-.584c0-.095-.006-.158-.006-.252 0 .076.006.176.006.252m-.02-.585c-.005-.063-.005-.113-.005-.182 0 .056 0 .132.006.182m-.03-.817c-.007-.076-.014-.182-.014-.258.007.094.007.164.013.258m-.026-.585c-.007-.07-.007-.17-.013-.24.007.077.007.165.014.24m-.026-.584c-.006-.07-.006-.12-.006-.184 0 .063 0 .12.006.183m-.07-1.522c0-.038 0-.05-.006-.088 0 .018.006.07.006.088m-.026-.497c0-.05 0-.093-.006-.144.006.05.006.095.006.145m-.025-.552c0-.044-.006-.082-.006-.12 0 .032.007.088.007.12m-.108-2.03c0-.038 0-.044-.008-.088.007.03.007.056.007.088m-.033-.528v-.082.082m-.115-2.03c-.006-.026-.006-.038-.006-.064 0 .026 0 .044.006.063m-.038-.548v-.006.006"/><path fill="#BBD8DC" d="M401.89 792.858h-1.682c-.14 0-.28-.007-.42-.007h-.702c-.096 0-.204 0-.293-.005h-.427c-.096 0-.18 0-.274-.006h-.485c-.076 0-.127 0-.21-.007-.465 0-.943-.007-1.408-.013-.065-.006-.13-.006-.2-.006-.165 0-.33-.007-.503-.007-.076 0-.16-.006-.235-.006-.153 0-.32-.005-.472-.005-.083 0-.153 0-.236-.006-.16 0-.33-.008-.49-.008-.07 0-.147-.006-.21-.006-.173 0-.34-.006-.51-.006-.065-.007-.135-.007-.205-.007-.192-.006-.39-.012-.58-.012-.04 0-.077 0-.116-.005-.484-.007-.962-.02-1.446-.032-.013 0-.04-.006-.05-.006-.218 0-.435-.006-.65-.013-.06-.006-.097-.006-.148-.006l-.58-.02h-.128c-.203-.005-.4-.01-.605-.018-.025-.006-.09-.006-.115-.006l-.643-.02c-.027-.005-.033-.005-.06-.005-121.116-4.112-228.613-61.098-299.538-148.256 39.09 12.508 80.79 19.29 124.106 19.29 221.992 0 401.944-177.477 401.944-396.403 28.503-.276 51.518-23.137 51.518-51.31 0-27.424-21.817-49.827-49.274-51.247h-.02c-.203-.006-.407-.02-.61-.025h-.033c-.05-.007-.11-.007-.166-.007-.013 0-.025-.005-.038-.005-.065 0-.13 0-.2-.006-.062 0-.133 0-.203-.007h-.192c-.018-.007-.037-.007-.056-.007H614.844c-.064 0-.12-.006-.185-.006h-.261c-.046 0-.09-.006-.135-.006h-.458c-4.372 0-8.624.534-12.684 1.533-14.506-54.39-40.446-104.205-75.12-146.816 153.522 49.112 266.57 186.84 277.036 352.01v.005c.012.164.02.327.032.484 0 .024 0 .037.006.062l.115 1.95v.08c.013.145.02.296.026.44.007.044.007.05.007.088.038.64.07 1.27.102 1.91 0 .04.006.077.006.12l.02.41c.006.05.006.093.006.144l.02.408c.006.038.006.05.006.088.02.453.045.893.064 1.34 0 .062 0 .112.006.182.006.12.006.232.013.345.006.07.006.17.013.24.006.106.006.22.012.326 0 .075.007.182.013.258.006.214.013.428.025.636 0 .07 0 .12.007.182.006.12.006.22.013.333 0 .095.006.158.006.252.006.107.006.202.013.308.006.088.006.183.012.277 0 .094.006.2.006.302.006.087.006.187.013.282 0 .125.005.238.01.364.008.145.008.296.014.44.006.1.006.2.006.296.007.094.013.2.013.295 0 .088.007.195.007.277.006.106.006.194.012.3 0 .102.007.19.007.29 0 .107.005.208.005.308.006.1.006.17.013.264 0 .19.006.352.013.535 0 .09 0 .177.007.258 0 .107.006.227.006.334 0 .075.007.176.007.25 0 .12.006.227.006.347.006.087.006.15.006.238.007.132.007.264.007.396.005.062.005.12.005.182.007.188.007.383.013.572v.163c.006.146.006.284.013.435v.195c.007.132.007.27.007.402 0 .063.006.138.006.2 0 .146 0 .272.007.422v.17c.006.19.006.39.006.578 0 .05.007.088.007.14v.45c.006.064.006.133.006.196v.41c.005.074.005.124.005.2v.408c0 .063.007.12.007.19V393.958c.006.168.006.344.006.52v1.39c.006.2.006.383.006.584 0 218.932-179.958 396.404-401.944 396.404m-127.165-95.003c.497 8.07 7.297 14.47 15.61 14.47 8.635 0 15.64-6.908 15.64-15.425 0-6.08-3.564-11.34-8.745-13.848-.07-.037-.147-.07-.217-.107H297c-.025-.018-.057-.03-.083-.044-.012-.005-.02-.005-.03-.01-.027-.014-.046-.02-.072-.033-.012-.006-.025-.012-.03-.012l-.078-.038c-.013-.006-.025-.006-.038-.012-.027-.013-.052-.026-.084-.038-.013-.006-.032-.013-.045-.02-.018-.005-.03-.018-.05-.024l-.057-.02c-.013-.005-.025-.012-.038-.018-.02-.006-.038-.02-.058-.025-.012 0-.02-.006-.025-.006-.045-.02-.09-.038-.14-.057-.007-.006-.013-.006-.02-.012-.025-.007-.05-.02-.07-.026-.012-.007-.02-.007-.025-.013-.025-.006-.05-.02-.076-.025 0 0-.006-.007-.012-.007-.115-.044-.23-.088-.344-.125 0 0-.007 0-.007-.007-.72-.25-1.466-.458-2.224-.603h-.007c-.127-.025-.248-.05-.376-.07 0 0-.006-.005-.012-.005-.026 0-.058-.007-.083-.013h-.02c-.025-.006-.057-.013-.082-.013-.007-.007-.007-.007-.013-.007l-.26-.038c-.014 0-.02 0-.033-.006-.026 0-.05-.007-.077-.007-.006 0-.02-.006-.03-.006-.027 0-.052-.007-.072-.007-.012-.006-.025-.006-.038-.006-.044-.006-.083-.013-.12-.013-.014-.005-.033-.005-.052-.005-.02-.006-.038-.006-.057-.006-.018-.007-.037-.007-.05-.007-.026-.007-.045-.007-.064-.007-.02-.006-.032-.006-.05-.006-.02 0-.04-.006-.058-.006-.032 0-.058-.007-.09-.007-.02-.006-.044-.006-.063-.006-.026 0-.045-.005-.064-.005-.018 0-.037 0-.056-.006h-.058c-.02-.008-.032-.008-.05-.008-.026 0-.052 0-.077-.006h-.04c-.038-.006-.076-.006-.114-.006-.007 0-.02 0-.032-.007h-.127c-.02-.006-.045-.006-.07-.006h-.045c-.032 0-.064-.006-.096-.006h-.127c-.02 0-.033-.005-.046-.005H290.334c-8.637 0-15.64 6.9-15.64 15.425v.257c0 .026 0 .057.005.082v.145c0 .074.005.15.012.225V697.73s.006.006.006.012c0 .038 0 .075.007.107v.005M536.24 619.14c1.37 27.134 24.11 48.72 51.963 48.72 28.74 0 52.034-22.975 52.034-51.317 0-27.356-21.708-49.72-49.07-51.235h-.006c-.063 0-.12-.006-.184-.006h-.04c-.062-.007-.126-.013-.19-.013-.07-.007-.14-.007-.21-.014h-.006c-.064 0-.128 0-.192-.006h-.038c-.05 0-.108-.006-.16-.006h-.044c-.064-.006-.12-.006-.185-.006h-.01c-.065-.007-.135-.007-.2-.007h-.044c-.05-.005-.095-.005-.146-.005h-.064c-.05 0-.09-.006-.14-.006h-.249c-.07-.008-.134-.008-.197-.008h-.402c-.02 0-.038-.006-.057-.006h-.197c-28.732 0-52.034 22.98-52.034 51.317v.239c.006.044.006.088.006.125v.448c.006.056.006.12.006.182v.19c.006.018.006.03.006.05v.188c.007.05.007.095.007.145v.044c.006.05.006.107.006.157v.03l.02.378v.037c0 .05.007.1.007.158v.03c.006.05.006.108.006.164 0 .007.006.02.006.032M750.97 493.78c.503 8.078 7.298 14.47 15.615 14.47 8.636 0 15.64-6.908 15.64-15.425 0-7.342-5.2-13.483-12.166-15.042l-.35-.075c-.006 0-.013-.006-.02-.006l-.1-.02h-.014c-.076-.018-.16-.03-.235-.043h-.012l-.102-.018c-.007-.006-.013-.006-.026-.006-.032-.007-.063-.013-.095-.013-.007-.006-.013-.006-.02-.006-.076-.013-.152-.025-.23-.032-.005-.006-.018-.006-.024-.006-.03-.007-.057-.007-.09-.014-.01 0-.024 0-.03-.006-.032 0-.064-.006-.09-.012h-.025c-.077-.013-.153-.02-.23-.026-.012-.006-.025-.006-.03-.006-.027 0-.06-.006-.084-.006-.012-.006-.025-.006-.044-.006-.025 0-.05-.007-.076-.007-.013-.006-.026-.006-.032-.006-.04 0-.077-.005-.115-.005-.006-.007-.013-.007-.025-.007-.032 0-.058-.006-.09-.006h-.038c-.025-.006-.05-.006-.076-.006-.013-.006-.026-.006-.04-.006-.03 0-.062-.007-.094-.007h-.02c-.044 0-.082-.006-.12-.006h-.026c-.026-.006-.057-.006-.09-.006h-.037c-.026-.006-.05-.006-.077-.006h-.038c-.038 0-.07-.006-.11-.006h-.125c-.014 0-.02 0-.033-.006H766.588c-8.642 0-15.64 6.902-15.64 15.425v.378c.006.025.006.057.006.082v.025c0 .076.006.152.006.227v.025c.006.026.006.057.006.088v.026c.006.03.006.062.006.1v.006m-91.576-87.774c2 14.3 14.45 25.32 29.497 25.32 16.45 0 29.778-13.15 29.778-29.368 0-12.452-7.852-23.093-18.935-27.368-.007 0-.013 0-.02-.006l-.3-.113c-.012 0-.025-.006-.037-.013-.05-.02-.096-.037-.147-.05-.018-.013-.037-.02-.056-.025-.026-.006-.05-.02-.083-.025-.018-.013-.044-.02-.07-.032l-.108-.037c-.025-.006-.05-.018-.076-.025-.026-.006-.05-.018-.07-.025-.045-.012-.083-.025-.128-.044-.02-.006-.038-.012-.057-.02-.03-.01-.063-.017-.095-.03l-.057-.02c-.045-.01-.09-.03-.134-.043l-.05-.02c-.04-.01-.077-.024-.116-.036-.012 0-.025-.007-.044-.013-.045-.013-.09-.03-.134-.044-.02-.006-.032-.006-.045-.013-.05-.012-.102-.03-.153-.044 0-.006-.006-.006-.012-.006-.05-.012-.096-.03-.147-.044-.006-.006-.02-.006-.025-.006-.05-.02-.102-.032-.16-.05-.006 0-.012-.007-.025-.007-.05-.012-.102-.03-.147-.044h-.013c-.057-.02-.108-.03-.165-.05-.007 0-.013 0-.02-.006-.114-.032-.222-.063-.33-.088-.007-.007-.014-.007-.02-.007-.057-.012-.115-.03-.172-.044h-.006c-.115-.03-.23-.06-.35-.087v-.006c-.122-.025-.237-.056-.358-.082h-.006c-.115-.03-.236-.056-.35-.08h-.007c-.3-.07-.6-.133-.906-.19-.185-.03-.364-.07-.548-.1l-.37-.057c-.12-.02-.242-.038-.363-.057h-.013l-.542-.074h-.02c-.114-.02-.235-.03-.356-.044h-.013l-.364-.038s-.006 0-.006-.006c-.064 0-.12-.006-.18-.013h-.018l-.172-.018h-.006c-.058-.007-.115-.013-.18-.013-.005-.006-.012-.006-.024-.006-.115-.007-.23-.02-.344-.025h-.032c-.058-.007-.115-.007-.172-.013h-.02c-.05-.006-.108-.006-.16-.013h-.018c-.057 0-.12-.006-.178-.006-.007 0-.013-.005-.026-.005-.057 0-.115 0-.172-.006-.057 0-.12-.008-.178-.008h-.026c-.057-.006-.115-.006-.172-.006h-.02c-.05 0-.108-.006-.165-.006h-.025c-.05 0-.115 0-.166-.007H689.073c-.06 0-.123-.006-.18-.006-16.444 0-29.777 13.15-29.777 29.373 0 .07.006.14.006.208V402.463c0 .044 0 .088.006.14V402.826c.007.02.007.04.007.057 0 .07 0 .145.006.214v.013c0 .07.008.133.008.202 0 .02.006.038.006.056 0 .05.006.1.006.15 0 .026 0 .052.007.077 0 .044 0 .094.006.144v.062c.006.057.013.113.013.17 0 .012.006.025.006.038.007.144.02.29.032.427v.044l.02.17c0 .02 0 .038.006.05 0 .058.006.114.012.17 0 .013.007.032.007.045.005.07.01.132.018.2v.007c.02.145.032.296.05.44v.013c.014.07.02.132.033.2v.02c.007.075.02.144.026.213m75.93-110.974c.44 8.134 7.265 14.59 15.62 14.59 8.637 0 15.64-6.903 15.64-15.426 0-7.166-4.964-13.194-11.688-14.923-.115-.03-.236-.062-.35-.088-.007 0-.013 0-.02-.006-.032-.005-.063-.01-.095-.018-.007 0-.013-.006-.02-.006l-.095-.02c-.006 0-.013-.005-.02-.005-.037-.005-.076-.012-.114-.024h-.02l-.088-.02c-.013-.005-.026-.005-.038-.005l-.077-.018c-.012 0-.024 0-.03-.007-.033-.006-.065-.012-.09-.012-.013-.006-.02-.006-.025-.006l-.11-.02c-.012-.006-.018-.006-.03-.006-.026-.005-.058-.01-.084-.01-.01-.007-.024-.007-.037-.007-.025-.007-.05-.013-.076-.013-.013-.006-.026-.006-.04-.006-.024-.007-.056-.013-.088-.013-.007-.005-.02-.005-.033-.005l-.102-.02c-.012 0-.025 0-.038-.005-.02 0-.044-.007-.07-.007-.02 0-.032-.006-.045-.006-.025-.006-.05-.006-.076-.012h-.038c-.032-.007-.07-.013-.11-.02h-.018c-.032-.006-.064-.006-.095-.012h-.045c-.02-.006-.045-.006-.064-.012h-.05c-.026-.006-.045-.006-.07-.006-.014-.006-.026-.006-.045-.006-.03-.006-.07-.006-.108-.013h-.032c-.025-.006-.057-.006-.083-.006-.012 0-.025-.007-.044-.007-.02 0-.045 0-.07-.006h-.045c-.025 0-.057-.007-.09-.007h-.025c-.038-.006-.076-.006-.114-.006-.008-.006-.02-.006-.027-.006h-.09c-.012 0-.025-.007-.037-.007h-.122c-.032-.005-.064-.005-.096-.005h-.02c-.038 0-.077 0-.115-.006H750.945c-8.642 0-15.647 6.907-15.647 15.418v.153c.006.024.006.05.006.074v.15c0 .032 0 .064.006.095v.012c0 .082 0 .157.006.232v.007c0 .038.007.076.007.114"/><path fill="#A4C7D0" d="M507.067 342.4c0 41.56-34.162 75.252-76.31 75.252-42.143 0-76.305-33.692-76.305-75.253 0-41.562 34.162-75.26 76.304-75.26 42.15 0 76.31 33.698 76.31 75.26"/><path fill="#BBD8DC" d="M354.547 346.19v-.007.006m-.02-.284v-.012.012m-.03-.88v-.006.006m-.014-.27v-.05.05m-.006-.27v-.076.076m-.006-.29v-.062.063m-.012-.61v-.07.07m0-.27c-.006-.032-.006-.063-.006-.095 0 .032 0 .063.006.095m-.006-.277v-.094.094m0-.29v-.08.08m80.345-75.503h-.006.007m-.918-.044h-.04.04m-.294-.013h-.05.05m-.644-.02h-.038.038m-.28-.005h-.083.082m-.293-.006h-.084.083m-.358-.008H432h.012m-.3-.006h-.076.076m-.287 0h-.095.095m-.293-.006h-.09.09"/><path fill="#92B1B8" d="M385.893 403.257c-18.082-12.986-30.167-33.61-31.346-57.068v-.007l-.02-.277v-.012c-.012-.29-.024-.58-.03-.868v-.006c-.007-.088-.007-.176-.014-.264v-.05c0-.076-.006-.145-.006-.22v-.076c0-.07-.006-.138-.006-.213v-.063c-.006-.088-.006-.176-.006-.27 0-.095-.006-.19-.006-.277v-.07-.2c-.006-.032-.006-.063-.006-.095v-.182-.094-.195-.08-.27c0-41.562 34.162-75.26 76.304-75.26h.377c.063 0 .133.006.197.006h.382c.096 0 .19.006.287.006h.012c.09 0 .185 0 .274.007h.083c.07 0 .14 0 .21.005h.082c.076 0 .16.006.242.006h.038l.593.02h.05c.084.006.167.006.256.013h.04c.305.012.605.025.91.044h.007c24.965 1.282 46.75 14.42 59.7 33.798-12.593-9.045-28.087-14.394-44.862-14.394-42.142 0-76.305 33.692-76.305 75.253 0 15.28 4.627 29.487 12.563 41.354"/><path fill="#A4C7D0" d="M665.776 215.833c0 28.336-23.296 51.31-52.034 51.31-28.74 0-52.034-22.974-52.034-51.31 0-28.342 23.295-51.317 52.034-51.317 28.738 0 52.034 22.975 52.034 51.317"/><path fill="#BBD8DC" d="M561.765 218.148v-.006.006m-.032-.786v-.03.03m-.006-.182v-.05.05m-.006-.195v-.044.045m-.006-.207v-.025.025m0-.214v-.05.05m-.006-.176v-.075.075m0-.19v-.074.075m0-.202v-.056.056"/><path fill="#92B1B8" d="M583.15 257.33c-12.38-8.893-20.64-23.03-21.385-39.108v-.007c-.006-.063-.006-.132-.012-.195l-.02-.584v-.032c-.006-.05-.006-.1-.006-.15v-.05c0-.05-.006-.095-.006-.145v-.045c0-.057 0-.113-.006-.164v-.024-.188-.05c0-.045 0-.082-.006-.126v-.076-.113-.075-.126-.057-.182c0-28.342 23.295-51.317 52.034-51.317h.459c.045 0 .09.006.135.006h.261c.064 0 .12.007.185.007H614.986c.02 0 .038 0 .057.005h.19c.07.006.142.006.205.006.07.008.134.008.198.008.013 0 .025.006.038.006.058 0 .115 0 .166.006h.03c.205.006.41.02.613.025h.02c17.023.88 31.88 9.838 40.707 23.05-8.585-6.172-19.153-9.818-30.587-9.818-28.74 0-52.04 22.974-52.04 51.317 0 10.42 3.155 20.1 8.566 28.197"/><path fill="#A4C7D0" d="M494 75.227c0 18.423-15.145 33.358-33.826 33.358-18.687 0-33.83-14.935-33.83-33.358 0-18.424 15.143-33.358 33.83-33.358 18.68 0 33.825 14.933 33.825 33.357"/><path fill="#BBD8DC" d="M426.72 80.212v-.026.026m-.033-.246c-.006-.006-.006-.012-.006-.018 0 .006 0 .012.007.018m-.02-.132c-.005-.018-.005-.03-.005-.05 0 .02 0 .032.006.05m-.032-.226c-.006-.02-.006-.044-.013-.063.007.02.007.044.013.063m-.025-.2c-.006-.032-.012-.064-.012-.095 0 .03.006.063.013.094m-.025-.19c-.006-.03-.006-.068-.013-.1.007.032.007.07.013.1m-.025-.212c-.007-.038-.007-.076-.013-.107.006.038.006.07.013.107m-.02-.183l-.02-.157.02.157m-.025-.22c-.006-.05-.006-.1-.013-.15.007.05.007.1.013.15m-.02-.213c-.005-.045-.005-.09-.012-.133.007.044.007.088.013.132m-.02-.19c-.006-.056-.006-.113-.012-.163.006.05.006.107.013.163m-.02-.226c-.006-.057-.006-.113-.012-.164.006.057.006.107.013.164m-.02-.208c0-.05-.006-.1-.006-.15 0 .05.007.1.007.15m-.014-.2c0-.057-.007-.114-.013-.177.006.056.013.12.013.175m-.013-.226c-.006-.058-.006-.12-.013-.177.007.057.007.12.013.176m-.013-.196c-.006-.063-.006-.12-.012-.182.006.063.006.12.012.182m-.012-.214c0-.056-.007-.12-.007-.182 0 .063.008.126.008.182m-.013-.226c0-.063 0-.12-.007-.182.007.063.007.12.007.182m-.007-.195c0-.064 0-.12-.006-.183.006.063.006.12.006.182m-.006-.22c0-.064-.006-.126-.006-.19 0 .064.006.126.006.19m-.006-.22c-.007-.133-.007-.258-.007-.39 0 .132 0 .257.006.39m-.007-.428c0-.057 0-.12-.007-.182.006.062.006.125.006.182m-.007-.22v-.195.195m36.572-33.44h-.007.007m-.243-.02c-.012 0-.03-.005-.044-.005.013 0 .032.006.044.006m-.16-.013c-.018 0-.037 0-.056-.006.02.006.038.006.057.006m-.236-.012c-.025-.007-.057-.007-.083-.007.026 0 .05 0 .083.008m-.178-.013c-.052-.006-.103-.006-.154-.006.05 0 .102 0 .153.005m-.23-.012c-.045 0-.084-.007-.122-.007.038 0 .083.007.12.007m-.203-.013h-.153.153m-.216-.006c-.06 0-.116-.007-.173-.007.057 0 .114.007.172.007m-.224-.007c-.05 0-.096 0-.147-.006.05.007.1.007.146.007m-.198-.006c-.064 0-.12 0-.185-.005.064.006.12.006.185.006m-.23-.005h-.165.166m-.2 0h-.19.19m-.235-.006h-.19.19"/><path fill="#92B1B8" d="M440.288 102.205c-7.164-5.14-12.2-12.973-13.57-21.993v-.026c-.012-.07-.024-.144-.03-.22-.007-.006-.007-.012-.007-.018-.006-.038-.012-.076-.012-.114-.006-.018-.006-.03-.006-.05-.013-.056-.02-.113-.026-.176-.006-.02-.006-.044-.013-.063-.006-.05-.006-.094-.012-.138-.006-.03-.012-.063-.012-.094-.006-.032-.006-.063-.013-.095-.006-.03-.006-.07-.013-.1-.006-.038-.006-.076-.012-.113-.007-.038-.007-.07-.013-.107 0-.025-.006-.05-.006-.076l-.02-.157c0-.02 0-.037-.005-.063-.006-.05-.006-.1-.013-.15-.006-.02-.006-.044-.006-.063-.006-.045-.006-.09-.013-.133 0-.02-.006-.038-.006-.057-.007-.056-.007-.113-.013-.163 0-.025-.006-.044-.006-.063-.007-.057-.007-.107-.013-.164 0-.018 0-.03-.006-.044 0-.05-.008-.1-.008-.15 0-.02-.006-.038-.006-.05 0-.057-.007-.12-.013-.177v-.05c-.006-.058-.006-.12-.013-.177v-.02c-.006-.062-.006-.118-.012-.18v-.033c0-.056-.007-.12-.007-.182 0-.012 0-.03-.005-.044 0-.063 0-.12-.007-.182v-.013c0-.064 0-.12-.006-.183v-.038c0-.064-.006-.126-.006-.19v-.03c-.007-.133-.007-.258-.007-.39v-.038c0-.057 0-.12-.007-.182v-.038-.195c0-18.424 15.144-33.358 33.83-33.358h.192c.02 0 .032.005.045.005h.432c.064.006.12.006.185.006h.05c.052.007.097.007.148.007h.05c.058 0 .115.007.173.007.018 0 .043 0 .062.006h.153c.026.006.058.006.083.006.038 0 .077.007.12.007.027 0 .052 0 .078.006.05 0 .102 0 .153.005.03 0 .063 0 .094.006.026 0 .058 0 .083.008.058 0 .12.006.18.006.018.006.037.006.056.006.038 0 .077.007.115.007.013 0 .032.006.044.006.077.006.16.012.236.02h.007c10.67.84 19.936 6.574 25.507 14.915-5.584-4.01-12.448-6.38-19.886-6.38-18.675 0-33.818 14.935-33.818 33.358 0 6.77 2.046 13.068 5.57 18.33"/><path fill="#A4C7D0" d="M394.357 582.41c0 28.343-23.295 51.317-52.034 51.317-28.732 0-52.028-22.974-52.028-51.316 0-28.336 23.296-51.316 52.028-51.316 28.74 0 52.034 22.98 52.034 51.317"/><path fill="#92B1B8" d="M311.73 623.91c-12.327-8.85-20.568-22.913-21.37-38.91v-.02c-.007-.055-.007-.118-.014-.175v-.018c0-.057-.006-.114-.006-.176v-.018c-.006-.132-.013-.258-.013-.384 0-.012 0-.012-.006-.02v-.175c0-.012-.005-.018-.005-.03v-.152-.05c-.007-.05-.007-.093-.007-.144v-.044c0-.056-.006-.113-.006-.176v-.012-.19-.043c-.007-.043-.007-.087-.007-.13v-.07-.12-.075-.126-.05-.19c0-28.336 23.296-51.316 52.028-51.316H342.923c.02.006.038.006.057.006h.197c.064 0 .128 0 .185.006h.26c.06.007.116.007.173.007h.02c.133.006.274.012.407.012h.026c.064.007.127.007.19.013h.007c17.292.685 32.404 9.7 41.346 23.075-8.584-6.167-19.158-9.812-30.592-9.812-28.732 0-52.028 22.97-52.028 51.31 0 10.417 3.155 20.103 8.56 28.2"/><path fill="#A4C7D0" d="M640.068 616.543c0 28.342-23.296 51.316-52.034 51.316-28.732 0-52.034-22.975-52.034-51.317 0-28.337 23.302-51.317 52.034-51.317 28.738 0 52.034 22.98 52.034 51.317"/><path fill="#A6BEC1" d="M536.07 619.14c0-.014-.006-.027-.006-.033 0 .006.006.02.006.032m-.013-.196v-.032.032m-.006-.19v-.037.038m-.018-.415v-.03.03m-.007-.188v-.044.044m-.006-.19v-.05.05m0-.187c0-.02 0-.032-.007-.05.006.012.006.03.006.05m-.007-.214v-.024.025m-.007-.207v-.056.056m0-.182v-.074.075m0-.187v-.076.076m-.006-.202v-.055.056m54.998-51.472h-.007.008m-.192-.007h-.038.038m-.44-.024h-.006.007m-.198-.006h-.04.04m-.198-.006h-.045.045m-.23-.007h-.013.012m-.21-.006h-.045.045m-.19-.005h-.065.064m-.203-.007h-.064.064m-.243 0h-.006.006m-.204-.006h-.063.063m-.197 0h-.07.07m-.204 0c-.02 0-.04-.006-.058-.006.02 0 .038.006.057.006"/><path fill="#92B1B8" d="M557.447 658.04c-12.333-8.856-20.567-22.91-21.377-38.9 0-.014-.006-.027-.006-.033 0-.056 0-.107-.007-.163v-.032c0-.05-.006-.107-.006-.157v-.038l-.018-.377v-.03c0-.05 0-.108-.007-.158v-.044c0-.044 0-.095-.006-.145v-.05-.138c0-.02 0-.038-.007-.05v-.164-.024c0-.063 0-.126-.007-.183v-.056-.126-.074-.113-.076c0-.038 0-.082-.006-.126v-.055-.182c0-28.337 23.302-51.317 52.034-51.317h.198c.02 0 .038.006.057.006h.4c.064 0 .128 0 .198.006h.249c.05 0 .09.007.14.007h.064c.052 0 .096 0 .147.006h.045c.064 0 .134 0 .197.007h.012c.057 0 .12 0 .185.007h.045c.05 0 .108.006.16.006h.037c.063.006.127.006.19.006h.007c.07.006.14.006.21.013.064 0 .134.005.19.01h.04c.063 0 .12.008.184.008H591c16.94.942 31.715 9.88 40.504 23.037-8.592-6.167-19.153-9.812-30.587-9.812-28.745 0-52.034 22.968-52.034 51.316 0 10.41 3.156 20.1 8.567 28.19"/><path fill="#A6BEC1" d="M616.596 164.585h-.02.02m-.63-.025h-.033.032m-.197-.006c-.013 0-.026-.006-.04-.006.014 0 .027.006.04.006m-.44-.02h-.032.032m-.19 0c-.02-.005-.04-.005-.06-.005.02 0 .04 0 .06.005m-.2-.006h-.063.064m-.25-.008h-.006.006m-.197 0h-.064.063m-.198-.006h-.07.07m-.204 0h-.056.057"/><path fill="#A4C7D0" d="M718.635 401.867c0 16.217-13.328 29.367-29.778 29.367-16.444 0-29.777-13.15-29.777-29.367 0-16.223 13.333-29.373 29.777-29.373 16.45 0 29.778 13.15 29.778 29.373"/><path fill="#A6BEC1" d="M659.328 405.7v-.017.018m-.032-.22v-.01.01m-.05-.45v-.007.006m-.02-.21c0-.01-.006-.03-.006-.043 0 .013.006.032.006.044m-.02-.212c-.005-.013-.005-.032-.005-.05 0 .018 0 .037.007.05m-.025-.22v-.044.044m-.032-.472c0-.012-.006-.025-.006-.037 0 .01.006.024.006.036m-.02-.207v-.064.063m-.006-.21c-.006-.024-.006-.05-.006-.074 0 .025 0 .05.006.075m-.012-.225c0-.02-.007-.038-.007-.056 0 .017.007.036.007.055m-.013-.258v-.012.012m-.007-.226c0-.018 0-.037-.007-.055.007.018.007.037.007.056m-.007-.206v-.076.076m-.006-.214v-.082.082m0-.22v-.075.075m40.612-27.65c-.006 0-.012 0-.02-.007.008.006.014.006.02.006m-.318-.12c-.013 0-.026-.007-.04-.013.014.006.027.013.04.013m-.185-.063c-.02-.013-.04-.02-.06-.025.02.006.04.012.06.025m-.14-.05c-.02-.013-.046-.02-.072-.032.026.013.05.02.07.03m-.178-.068c-.025-.006-.05-.02-.076-.025.025.006.05.02.076.025m-.146-.05c-.045-.013-.083-.025-.128-.044.045.02.083.03.128.044m-.185-.063c-.033-.012-.065-.02-.097-.03.032.01.064.018.096.03m-.154-.05c-.045-.013-.09-.032-.134-.044.044.012.09.03.134.044m-.185-.063l-.114-.037.115.038m-.158-.05c-.045-.012-.09-.03-.134-.043.044.012.09.03.134.044m-.18-.056c-.05-.012-.1-.03-.152-.044.05.013.102.032.153.044m-.166-.05c-.05-.013-.095-.032-.146-.044.052.012.096.03.147.044m-.172-.05c-.05-.02-.102-.032-.16-.05.058.018.11.03.16.05m-.185-.057c-.05-.013-.102-.03-.146-.044.044.013.095.03.146.044m-.16-.044c-.056-.02-.107-.03-.165-.05.058.02.11.03.166.05m-.184-.057c-.114-.03-.223-.062-.33-.088.107.026.216.057.33.088m-.35-.094c-.058-.012-.115-.03-.172-.044.057.013.114.032.172.044m-.18-.044c-.113-.03-.228-.063-.35-.088.122.025.237.057.35.088m-.35-.094c-.12-.025-.235-.057-.356-.082.12.025.236.057.357.082m-.364-.082c-.114-.03-.235-.056-.35-.082.115.026.236.05.35.082m-.356-.082c-.3-.07-.6-.132-.906-.188.307.056.607.12.907.188m-.906-.188c-.183-.032-.362-.07-.547-.1.185.03.364.068.548.1m-.547-.1l-.37-.057c.122.02.243.037.37.056m-.37-.055c-.12-.02-.242-.038-.363-.057.12.02.243.038.364.057m-.376-.057l-.542-.075.542.075m-.56-.075c-.116-.02-.237-.032-.358-.044.12.01.242.024.357.043m-.37-.044l-.363-.04.363.04m-.37-.045c-.063 0-.12-.007-.178-.013.056.006.114.013.177.013m-.197-.013c-.058-.006-.115-.012-.172-.02.057.008.114.014.172.02m-.18-.02c-.056-.005-.113-.01-.177-.01.064 0 .12.005.178.01m-.203-.018c-.114-.006-.23-.018-.344-.025.115.006.23.018.344.024m-.376-.025c-.056-.007-.113-.007-.17-.013.057.006.114.006.17.012m-.19-.013c-.05-.007-.108-.007-.16-.013.052.006.11.006.16.013m-.178-.013c-.058 0-.115-.006-.18-.006.06 0 .122.006.18.006m-.204-.012c-.058 0-.115 0-.172-.007.057.007.114.007.172.007m-.172-.007c-.058 0-.12-.006-.18-.006.06 0 .122.005.18.005m-.204-.006c-.058-.007-.115-.007-.172-.007.057 0 .114 0 .172.006m-.192-.007c-.057 0-.108-.007-.165-.007.057 0 .115.007.165.007m-.19-.007c-.058 0-.11 0-.166-.006.05.006.114.006.165.006m-.198-.006h-.16.16m-.18 0h-.17.17m-.203 0c-.064 0-.115-.006-.18-.006.058 0 .122.006.18.006"/><path fill="#92B1B8" d="M671.35 425.615c-6.387-4.59-10.855-11.616-11.99-19.7-.006-.07-.02-.138-.025-.214v-.017c-.013-.07-.02-.132-.032-.202v-.01c-.02-.146-.032-.29-.05-.44v-.007l-.02-.202c0-.01-.007-.03-.007-.043-.006-.056-.012-.113-.012-.17-.007-.012-.007-.03-.007-.05-.006-.056-.012-.113-.02-.17v-.043c-.012-.14-.024-.283-.03-.428 0-.012-.007-.025-.007-.037 0-.058-.006-.115-.013-.17v-.064c-.006-.05-.006-.1-.006-.145-.006-.024-.006-.05-.006-.074 0-.05-.006-.1-.006-.15 0-.02-.006-.04-.006-.057 0-.07-.007-.133-.007-.203v-.012c-.006-.07-.006-.145-.006-.214 0-.018 0-.037-.007-.055v-.15-.077c-.007-.05-.007-.094-.007-.138v-.082-.138-.075c0-.07-.006-.14-.006-.208 0-16.223 13.333-29.373 29.777-29.373.064 0 .115.006.18.006H689.45c.057.006.108.006.166.006h.025c.06 0 .11.007.167.007h.02c.056 0 .114 0 .17.006h.027c.057 0 .12.005.178.005.057.007.115.007.172.007.013 0 .02.006.026.006.063 0 .12.006.178.006h.02c.05.006.108.006.16.013h.018c.057.006.114.006.172.012h.032c.114.006.23.018.344.024.013 0 .02 0 .025.007.063 0 .12.007.178.013h.006l.172.02h.02c.057.005.114.012.178.012 0 .006.006.006.006.006l.363.04h.013c.12.01.242.024.357.043h.02l.54.075h.014c.12.02.242.038.363.057.12.02.242.037.37.056.185.033.363.07.548.102.306.056.605.12.905.188h.006c.114.026.235.05.35.082h.006c.12.025.236.057.357.082v.006c.12.025.236.057.35.088h.007c.057.013.115.032.172.044.006 0 .013 0 .02.006.108.026.216.057.33.088.007.007.013.007.02.007.057.02.108.03.165.05h.013c.045.013.096.03.147.044.006 0 .02.006.025.006.058.02.11.032.16.05.006 0 .02 0 .025.007.05.012.096.03.147.044.006 0 .012 0 .012.006.05.013.102.032.153.044.012.006.03.013.044.013.045.012.09.03.134.044.02.007.032.013.045.013l.114.038c.02.007.038.014.05.02.046.012.09.03.135.044.02.006.038.012.057.02.03.01.063.018.095.03l.057.02c.045.018.083.03.128.043.02.006.045.02.07.025.025.006.05.02.076.025l.11.038c.024.013.05.02.07.03.03.008.056.02.082.027.02.006.038.012.057.025.05.012.096.03.147.05.013.006.025.013.038.013.102.037.198.075.3.113.006.006.012.006.02.006 5.773 2.23 10.674 6.184 14.04 11.225-4.914-3.526-10.963-5.62-17.515-5.62-16.444 0-29.77 13.15-29.77 29.374 0 5.958 1.803 11.508 4.894 16.135"/><path fill="#A4C7D0" d="M212.354 456.805c0 28.342-23.296 51.317-52.028 51.317-28.74 0-52.034-22.975-52.034-51.317 0-28.343 23.295-51.317 52.034-51.317 28.732 0 52.028 22.974 52.028 51.317"/><path fill="#BBD8DC" d="M108.318 458.408v-.025.025m-.007-.183v-.044.045m-.005-.194v-.037.038m0-.22v-.012.013m-.007-.2v-.038.037m0-.177v-.07.07m-.006-.188v-.07.07m0-.2v-.052.05m54.15-51.51v-.007.006m-.198-.012h-.02.02m-.433-.013h-.018.02m-.192-.006h-.05.05m-.198 0c-.02 0-.038 0-.057-.006.02.007.038.007.057.007m-.242-.006h-.006.006m-.204 0c-.02 0-.038-.006-.057-.006.018 0 .037.006.056.006m-.197-.006h-.065.064m-.205 0h-.058.058"/><path fill="#92B1B8" d="M129.733 498.303c-12.537-9-20.842-23.383-21.41-39.707 0-.063-.005-.125-.005-.188v-.025c0-.05-.007-.107-.007-.158v-.044c0-.05 0-.1-.005-.15v-.037-.182-.012c-.007-.057-.007-.126-.007-.19v-.036-.14-.068c-.006-.037-.006-.08-.006-.12v-.068-.132-.05-.19c0-28.342 23.295-51.316 52.034-51.316h.593c.018 0 .037.006.056.006h.389c.02.007.038.007.057.007h.197c.057.007.115.007.172.007h.02c.14.006.273.006.413.013h.02c.063.006.127.006.197.006v.006c17.298.685 32.41 9.7 41.345 23.075-8.585-6.166-19.152-9.818-30.586-9.818-28.738 0-52.033 22.973-52.033 51.315 0 10.416 3.155 20.11 8.566 28.198"/><path fill="#A4C7D0" d="M95.21 248.205c0 8.518-7.004 15.426-15.64 15.426-8.637 0-15.64-6.907-15.64-15.425 0-8.517 7.003-15.425 15.64-15.425 8.636 0 15.64 6.908 15.64 15.425"/><path fill="#BBD8DC" d="M64.86 253.454c0 .006 0 0 0 0m-.147-.42c0-.007-.007-.014-.007-.014s.007.007.007.013m-.04-.1v-.02.02m-.03-.114c0-.007-.007-.007-.007-.013 0 .006.007.006.007.012m-.07-.227s-.007-.013-.007-.02c0 .007.006.014.006.02m-.03-.1c0-.007-.008-.02-.008-.026 0 .006.007.02.007.025m-.03-.107c0-.006 0-.018-.008-.025.007.007.007.02.007.025m-.033-.113v-.012.012m-.058-.226c0-.006-.007-.02-.007-.025 0 .007.006.02.006.026m-.026-.1c-.006-.013-.006-.026-.013-.038.008.012.008.025.014.037m-.026-.106c-.006-.014-.006-.027-.012-.04.006.013.006.026.012.04m-.03-.115c0-.012 0-.018-.008-.025.007.007.007.013.007.025m-.026-.132c-.005-.006-.005-.012-.005-.025 0 .013 0 .02.006.025m-.024-.1c0-.02-.007-.032-.007-.044 0 .01.006.024.006.043m-.02-.107c-.006-.013-.012-.03-.012-.05 0 .02.006.037.012.05m-.025-.1c0-.02-.005-.032-.005-.05 0 .018.006.03.006.05m-.024-.12c0-.013 0-.025-.007-.038.006.013.006.025.006.038m-.026-.138v-.025.025m-.02-.1c0-.02-.005-.032-.005-.045 0 .013.006.025.006.044m-.018-.113c0-.013-.007-.025-.007-.038 0 .013.007.025.007.038m-.02-.107c0-.012 0-.025-.006-.038.007.012.007.025.007.037m-.02-.113v-.03.03m-.02-.138c0-.013 0-.025-.005-.038.006.013.006.025.006.038m-.012-.107c-.007-.014-.007-.033-.007-.045 0 .012 0 .03.007.044m-.02-.108v-.044.044m-.012-.12c0-.006 0-.018-.007-.03.007.012.007.024.007.03m-.013-.12c0-.005-.006-.01-.006-.018 0 .007.007.013.007.02m-.02-.127v-.037.037m-.005-.106c0-.018-.007-.03-.007-.043 0 .012.007.025.007.044m-.013-.113c0-.012 0-.025-.008-.044.007.02.007.032.007.044m-.014-.113v-.037.037m-.006-.125c0-.008 0-.02-.007-.027.007.007.007.013.007.026m-.013-.133v-.032.032m-.006-.107v-.038.038m-.006-.113v-.044.044m-.006-.114v-.037.037m-.007-.138v-.012.012m0-.12c-.005-.012-.005-.024-.005-.03 0 .012 0 .018.006.03m-.005-.112v-.038.038m0-.114v-.038.037m-.006-.114v-.037.036m16.908-15.526h-.007.008m-.12-.006h-.014.013m-.37-.025h-.032.032m-.12 0c-.014-.007-.02-.007-.033-.007.013 0 .02 0 .032.006m-.268-.014h-.032.032m-.114 0h-.04.04m-.122 0c-.012 0-.025-.006-.038-.006.013 0 .026.006.038.006"/><path fill="#92B1B8" d="M70.372 260.683c-2.498-1.798-4.442-4.306-5.513-7.23 0 0 0 .007 0 0-.04-.106-.077-.213-.115-.32-.013-.03-.02-.07-.032-.1 0-.006-.007-.013-.007-.013-.012-.03-.02-.063-.032-.088v-.02c-.012-.03-.025-.06-.03-.093 0-.007-.008-.007-.008-.013-.02-.07-.044-.14-.064-.214 0-.006-.006-.013-.006-.02-.006-.024-.013-.05-.025-.08 0-.007-.006-.02-.006-.026-.006-.025-.013-.056-.025-.082 0-.006 0-.018-.008-.025-.006-.03-.012-.056-.025-.088v-.012c-.02-.076-.038-.145-.058-.214 0-.006-.007-.02-.007-.025-.006-.03-.013-.05-.02-.075-.005-.012-.005-.025-.012-.037-.005-.025-.005-.05-.012-.07-.006-.012-.006-.025-.012-.037l-.02-.075c0-.012 0-.018-.006-.025l-.02-.107c-.005-.006-.005-.012-.005-.025l-.02-.075c0-.02-.006-.032-.006-.044-.007-.02-.014-.04-.014-.064-.006-.013-.012-.03-.012-.05-.007-.02-.007-.032-.013-.05 0-.02-.005-.032-.005-.05l-.02-.07c0-.013 0-.025-.006-.038l-.02-.1v-.025l-.02-.076c0-.02-.005-.03-.005-.044-.007-.025-.007-.044-.013-.07 0-.012-.007-.024-.007-.037 0-.025-.006-.05-.012-.07 0-.01 0-.024-.007-.037 0-.026-.006-.05-.012-.076v-.03l-.02-.108c0-.013 0-.025-.006-.038 0-.025-.006-.044-.006-.07-.007-.012-.007-.03-.007-.043-.006-.02-.006-.044-.012-.063v-.044c-.007-.025-.007-.05-.013-.075 0-.007 0-.02-.007-.032 0-.03-.006-.055-.006-.087 0-.006-.006-.012-.006-.02 0-.036-.006-.074-.012-.106v-.037c-.006-.025-.006-.05-.006-.07 0-.018-.007-.03-.007-.043 0-.026-.006-.05-.006-.07 0-.012 0-.025-.008-.044 0-.018 0-.044-.006-.07v-.036c-.006-.032-.006-.063-.006-.088 0-.014 0-.02-.007-.027 0-.03 0-.07-.006-.106v-.032c0-.025-.006-.05-.006-.075v-.038c0-.025-.006-.05-.006-.075v-.044c0-.02-.006-.044-.006-.07v-.037c0-.032-.007-.07-.007-.1v-.013-.107c-.005-.013-.005-.02-.005-.032v-.08-.04-.075-.038c-.006-.025-.006-.05-.006-.076v-.037-.115c0-8.517 7.003-15.425 15.64-15.425h.114c.013 0 .026.006.038.006H79.958c.077 0 .16.007.236.007.013 0 .02 0 .032.006h.12c.033.005.07.005.11.005l.248.02h.013c.038 0 .076.005.114.005h.008c4.933.396 9.216 3.043 11.797 6.902-2.58-1.854-5.755-2.948-9.197-2.948-8.636 0-15.64 6.902-15.64 15.425 0 3.13.95 6.04 2.574 8.473"/><path fill="#A4C7D0" d="M782.273 492.818c0 8.517-7.004 15.425-15.64 15.425-8.643 0-15.64-6.908-15.64-15.425 0-8.523 6.997-15.425 15.64-15.425 8.636 0 15.64 6.902 15.64 15.425"/><path fill="#A6BEC1" d="M751.017 493.773v-.006.006m-.006-.106v-.026.027m-.006-.114v-.025.025m-.006-.25v-.026.025m-.006-.107v-.038.038m0-.113v-.044.044m0-.12v-.03.03m18.763-15.26c-.006 0-.012-.007-.02-.007.008 0 .014.006.02.006m-.12-.024h-.013.012m-.248-.044h-.013.013m-.115-.02c-.005-.005-.012-.005-.025-.005.013 0 .02 0 .026.006m-.12-.02c-.007-.005-.013-.005-.02-.005.007 0 .013 0 .02.006m-.25-.038c-.01-.006-.018-.006-.024-.006.006 0 .02 0 .025.006m-.113-.02c-.013 0-.02 0-.032-.005.006.007.02.007.032.007m-.122-.018h-.025.025m-.254-.027c-.012-.006-.025-.006-.03-.006.005 0 .018 0 .03.006m-.114-.012c-.013-.005-.026-.005-.045-.005.02 0 .033 0 .046.006m-.12-.012c-.014-.006-.027-.006-.033-.006.006 0 .02 0 .032.006m-.147-.012c-.006-.007-.013-.007-.025-.007.012 0 .02 0 .025.006m-.115-.013h-.038.038m-.114-.006c-.014-.006-.027-.006-.04-.006.013 0 .026 0 .04.007m-.135-.013h-.02.02m-.14-.006h-.026.025m-.115-.006h-.038.038m-.115-.007h-.038.038m-.146-.006h-.008.007m-.13 0c-.012 0-.018 0-.03-.007.012.006.018.006.03.006m-.114-.007h-.038.038m-.12 0h-.04.04"/><path fill="#92B1B8" d="M757.435 505.29c-3.658-2.63-6.118-6.783-6.418-11.517v-.006c0-.038 0-.07-.006-.1v-.026c0-.03 0-.06-.006-.087v-.025c0-.075-.006-.15-.006-.226v-.025c0-.025 0-.057-.006-.082v-.038-.075-.044-.075-.032-.112c0-8.523 6.998-15.425 15.64-15.425h.357c.012.006.018.006.03.006h.129c.037 0 .07.005.107.005h.038c.026 0 .05 0 .077.007h.038c.032 0 .064 0 .09.006h.025c.038 0 .076.006.12.006h.02c.032 0 .064.007.095.007.013 0 .026 0 .04.007.024 0 .05 0 .075.006h.038c.032 0 .064.006.09.006.012 0 .02 0 .025.006.038 0 .077.006.115.006.006 0 .02 0 .032.006.025 0 .05.007.076.007.02 0 .033 0 .046.006.025 0 .05.007.083.007.005 0 .018 0 .03.006.077.007.153.013.23.026h.025c.026.005.058.01.09.01.012.007.02.007.032.007.03.007.057.007.09.013.005 0 .012 0 .024.006.078.007.154.02.23.032.007 0 .013 0 .02.006.032 0 .064.006.095.013.013 0 .02 0 .026.006.033.006.07.012.103.02h.013c.076.01.16.024.236.043h.012c.032.006.07.012.102.02.007 0 .013.005.02.005.114.026.235.05.35.076 3.996.893 7.406 3.294 9.586 6.563-2.582-1.856-5.756-2.95-9.19-2.95-8.637 0-15.642 6.902-15.642 15.426 0 3.13.95 6.04 2.575 8.473"/><path fill="#A4C7D0" d="M766.582 294.164c0 8.523-7.005 15.425-15.64 15.425-8.644 0-15.648-6.903-15.648-15.426 0-8.51 7.004-15.42 15.647-15.42 8.637 0 15.642 6.91 15.642 15.42"/><path fill="#A6BEC1" d="M735.313 294.886v-.006.006m-.007-.238v-.013.013m-.006-.107v-.03.03m0-.112v-.038.038m-.006-.114v-.037.037m19.248-15.16c-.006 0-.013 0-.02-.007.007.006.014.006.02.006m-.115-.025c-.006 0-.013-.006-.02-.006.007 0 .014.006.02.006m-.114-.025c-.007 0-.013-.006-.02-.006.007 0 .013.006.02.006m-.134-.032h-.02.02m-.11-.017c-.012-.007-.025-.007-.038-.007.013 0 .026 0 .038.007m-.114-.026c-.013 0-.026 0-.032-.006.006.007.02.007.032.007m-.122-.018c-.012-.008-.02-.008-.025-.008.005 0 .012 0 .024.007m-.133-.027c-.012-.006-.018-.006-.03-.006.012 0 .018 0 .03.006m-.114-.018c-.013-.007-.026-.007-.038-.007.012 0 .025 0 .038.007m-.115-.02c-.012-.006-.024-.006-.037-.006.013 0 .025 0 .038.006m-.126-.02c-.007-.005-.02-.005-.032-.005.013 0 .025 0 .032.007m-.134-.025c-.013 0-.026 0-.038-.007.012.007.025.007.038.007m-.108-.013c-.02 0-.032-.007-.045-.007.013 0 .025.006.045.006m-.122-.02h-.038.038m-.146-.02h-.02.02m-.115-.01h-.046.045m-.11-.014h-.05.05m-.12-.006c-.013-.006-.026-.006-.045-.006.02 0 .032 0 .045.006m-.153-.02h-.032.032m-.115-.005c-.013 0-.026-.006-.045-.006.02 0 .032.005.045.005m-.115-.013h-.044.044m-.134-.006h-.025.025m-.14-.006c-.006-.007-.02-.007-.025-.007.006 0 .02 0 .025.007m-.115-.007c-.012 0-.025-.006-.038-.006.013 0 .026.006.038.006m-.114-.006h-.045.044m-.14-.006h-.02.02m-.134-.005h-.032.032m-.115 0h-.038.038m-.12 0h-.04.04"/><path fill="#92B1B8" d="M741.744 306.64c-3.69-2.652-6.163-6.85-6.425-11.64 0-.038-.007-.076-.007-.114v-.006c-.007-.075-.007-.15-.007-.232v-.013c-.006-.03-.006-.063-.006-.094v-.03-.082-.038c0-.025 0-.05-.006-.076v-.037-.113c0-8.51 7.004-15.42 15.647-15.42h.39c.038.007.076.007.114.007h.02c.03 0 .063 0 .095.007h.12c.013 0 .026.006.038.006h.09c.006 0 .02 0 .025.007.038 0 .077 0 .115.006h.025c.032 0 .064.006.09.006h.044c.026.007.05.007.07.007.02 0 .032.005.045.005.025 0 .05 0 .083.006h.032c.038.007.076.007.108.014.02 0 .032 0 .045.006.025 0 .044 0 .07.006h.05c.02.007.045.007.064.013h.045c.03.005.063.005.095.01h.02c.037.008.07.014.107.02h.038c.026.007.05.007.077.013.013 0 .025.006.045.006.025 0 .044.005.07.005.012.007.025.007.038.007.038.006.07.012.102.02.013 0 .025 0 .032.005.032 0 .063.006.09.012.012 0 .024 0 .037.006.027 0 .052.006.078.012.012 0 .025 0 .038.007.025 0 .057.006.083.012.012 0 .018 0 .03.006l.11.02c.005 0 .012 0 .024.006.026 0 .058.005.09.01.006.007.02.007.032.007l.076.02c.013 0 .026 0 .038.006l.09.018h.02c.037.014.075.02.113.027.007 0 .013.006.02.006.03.006.063.012.095.02.006 0 .013.005.02.005l.095.02c.006.005.013.005.02.005.114.025.235.057.35.088 3.785.975 7.01 3.314 9.107 6.45-2.575-1.854-5.755-2.948-9.19-2.948-8.637 0-15.64 6.902-15.64 15.426 0 3.13.95 6.04 2.574 8.473"/><path fill="#A4C7D0" d="M160.276 589.525c0 8.524-7.004 15.426-15.647 15.426-8.637 0-15.635-6.9-15.635-15.425 0-8.517 6.998-15.425 15.634-15.425 8.642 0 15.646 6.908 15.646 15.425"/><path fill="#BBD8DC" d="M129.345 592.806v-.025.026m-.02-.1c-.005-.013-.005-.032-.005-.044 0 .012 0 .03.006.044m-.025-.107c0-.014 0-.026-.006-.04.007.014.007.026.007.04m-.018-.12c0-.007-.007-.02-.007-.026 0 .007.007.02.007.026m-.026-.132c-.006-.007-.006-.02-.006-.026 0 .007.006.02.006.026m-.02-.1c-.005-.02-.005-.032-.005-.05 0 .018 0 .03.007.05m-.02-.108c-.005-.02-.005-.03-.005-.05 0 .02 0 .03.006.05m-.02-.107c0-.02-.006-.03-.006-.05 0 .02.007.03.007.05m-.02-.107c0-.018 0-.03-.007-.05.007.02.007.032.007.05m-.02-.144c-.006-.02-.006-.038-.006-.057 0 .02 0 .038.007.057m-.02-.107c0-.02 0-.038-.005-.057.006.02.006.038.006.057m-.01-.107c0-.02-.008-.038-.008-.056 0 .018.007.037.007.056m-.014-.113c0-.013-.006-.03-.006-.044 0 .014.006.032.006.045m-.013-.113c-.006-.02-.006-.032-.006-.044 0 .012 0 .025.006.044m-.02-.145c0-.012-.005-.03-.005-.05 0 .02.006.038.006.05m-.013-.107c0-.018 0-.03-.005-.05.006.02.006.032.006.05m-.005-.106c-.006-.02-.006-.038-.006-.05 0 .012 0 .03.005.05m-.013-.114c0-.018 0-.03-.006-.044.006.013.006.026.006.044m-.012-.12v-.037.038m-.007-.144c0-.012 0-.025-.006-.037.006.01.006.024.006.036m-.006-.106c0-.013-.007-.032-.007-.044 0 .012.007.03.007.044m-.007-.114c-.006-.012-.006-.03-.006-.044 0 .02 0 .032.006.044m-.006-.106c0-.02 0-.032-.006-.044 0 .012.006.03.006.044m-.006-.132v-.026.026m-.007-.132v-.032.032m0-.114c-.005-.012-.005-.025-.005-.037 0 .012 0 .025.006.037m-.005-.113v-.038.037m0-.114v-.038.038m19.235-15.16s0-.007-.006-.007c.006 0 .006.005.006.005m-.114-.025c-.007-.006-.007-.006-.013-.006.006 0 .006 0 .013.006m-.115-.032h-.012.013m-.127-.025h-.012.013m-.114-.02c-.008-.005-.02-.005-.033-.01.013.005.025.005.032.01m-.116-.024c-.006 0-.02-.007-.025-.007.005 0 .018.006.024.006m-.127-.026h-.013.013m-.128-.025h-.026.025m-.11-.02c-.012 0-.025 0-.038-.006.013.006.026.006.04.006m-.122-.02c-.007 0-.02 0-.032-.005.013.006.025.006.032.006m-.128-.018h-.02.02m-.127-.018c-.013 0-.026 0-.04-.007.014.007.027.007.04.007m-.115-.013c-.013-.005-.026-.005-.038-.005.012 0 .025 0 .038.006m-.115-.018c-.013 0-.025 0-.038-.006.013.006.025.006.038.006m-.153-.02h-.006.006m-.108-.01c-.013 0-.032 0-.045-.008.018.007.03.007.044.007m-.115-.012c-.014 0-.033 0-.045-.006.012.006.03.006.044.006m-.122-.012h-.038.038m-.146-.013H146h.032m-.115-.013h-.045.045m-.12-.006h-.04.04m-.13-.006c-.005 0-.018-.006-.024-.006.006 0 .02.006.025.006m-.14-.013h-.032.032m-.115-.006h-.044.043m-.12 0c-.014-.007-.026-.007-.04-.007.014 0 .026 0 .04.006m-.14-.007h-.014.012m-.128-.007h-.038.038m-.12 0h-.04.04m-.122-.006h-.038.038"/><path fill="#92B1B8" d="M135.44 602.003c-2.96-2.125-5.14-5.25-6.018-8.87-.026-.107-.05-.22-.077-.327v-.025c-.006-.024-.012-.05-.02-.074-.005-.013-.005-.032-.005-.044l-.02-.063c0-.014 0-.026-.006-.04-.006-.024-.006-.05-.012-.08 0-.007-.007-.02-.007-.026-.006-.037-.012-.07-.02-.106 0-.007-.005-.02-.005-.026-.007-.025-.007-.05-.013-.075-.006-.02-.006-.03-.006-.05-.006-.02-.012-.038-.012-.057-.006-.02-.006-.03-.006-.05-.007-.02-.007-.038-.013-.057 0-.02-.008-.03-.008-.05-.006-.02-.006-.038-.012-.057 0-.018 0-.03-.007-.05-.006-.03-.006-.063-.012-.094-.006-.02-.006-.038-.006-.057-.006-.02-.006-.037-.013-.05 0-.02 0-.038-.005-.057 0-.018-.006-.03-.006-.05 0-.02-.008-.038-.008-.056 0-.02-.006-.038-.006-.057 0-.013-.006-.03-.006-.044-.007-.024-.007-.05-.007-.068-.006-.02-.006-.032-.006-.044-.006-.032-.006-.063-.013-.1 0-.013-.006-.032-.006-.05 0-.02 0-.04-.007-.058 0-.018 0-.03-.005-.05v-.056c-.006-.02-.006-.038-.006-.05 0-.02-.008-.045-.008-.064 0-.018 0-.03-.006-.044 0-.025 0-.05-.006-.075v-.037c0-.037-.007-.07-.007-.107 0-.012 0-.025-.006-.037v-.07c0-.013-.007-.032-.007-.044v-.07c-.006-.012-.006-.025-.006-.044v-.062c0-.013-.006-.032-.006-.044v-.088-.026c-.007-.037-.007-.07-.007-.106v-.032-.082c-.005-.012-.005-.025-.005-.037v-.076-.038-.076-.038-.113c0-8.517 6.998-15.425 15.634-15.425h.152c.032.006.058.006.083.006h.159c.04 0 .077 0 .115.007H145.253c.013 0 .025 0 .038.006h.12c.032.005.058.005.083.005h.032c.038.007.076.007.115.007.006 0 .02.006.025.006.032 0 .058 0 .09.006h.038c.025 0 .05.006.076.006h.045c.025.007.057.007.083.013h.032c.038.006.07.006.108.013h.038c.026.006.05.006.077.006.012.006.03.006.044.006.025.006.05.006.07.006.012.007.03.007.044.007.032.007.064.007.102.013h.006c.04.007.077.013.115.013.013.006.025.006.038.006.026.006.05.006.077.013.012 0 .025 0 .038.006.025 0 .05.007.076.007.013.007.026.007.04.007l.107.018h.02c.03.007.063.013.095.013.013.006.025.006.032.006.032.008.057.014.082.014.013.006.026.006.04.006l.082.02h.025c.037.005.076.018.114.024h.013l.102.02c.005 0 .018.005.024.005.026.006.057.012.083.012.013.006.025.006.032.012l.1.02h.013c.04.006.077.018.115.024H148c.033.013.07.02.103.026.006 0 .006 0 .013.006.038.006.076.012.108.02.006 0 .006.005.006.005 3.94.91 7.305 3.3 9.472 6.537-2.588-1.854-5.762-2.948-9.198-2.948-8.642 0-15.64 6.908-15.64 15.42 0 3.136.95 6.046 2.575 8.48"/><path fill="#BBD8DC" d="M290.36 585v-.02.02m-.014-.195v-.018.018m-.006-.194v-.018.02m-.013-.404c0-.006 0-.012-.006-.02.007.008.007.008.007.02m-.006-.195c0-.006-.005-.018-.005-.03 0 .012.006.018.006.03m-.005-.182v-.05.05m-.007-.194v-.044.044m-.006-.22v-.012.012m0-.2v-.045.045m-.007-.176v-.07.07m0-.19v-.075.076m0-.2v-.05.05m54.15-51.512h-.006.005m-.197-.013h-.026.026m-.434-.012h-.02.02m-.19-.007h-.052.05m-.196 0h-.064.064m-.447-.006c-.02 0-.04 0-.058-.006.02.006.038.006.057.006m-.198-.006h-.07.07m-.204 0h-.057.058"/><path fill="#A4C7D0" d="M271.823 164.53c0 16.223-13.334 29.367-29.784 29.367-16.44 0-29.78-13.144-29.78-29.367 0-16.218 13.34-29.367 29.78-29.367 16.45 0 29.783 13.15 29.783 29.367"/><path fill="#BBD8DC" d="M212.516 168.364c0-.006-.006-.006-.006-.013 0 .008.006.008.006.014m-.102-.88c-.006-.013-.006-.025-.006-.044 0 .02 0 .03.006.044m-.025-.214v-.044.044m-.02-.22v-.037.037m-.038-.47v-.033.032m-.013-.21v-.055.056m-.014-.212v-.07.07m-.013-.22v-.057.058m-.02-.484v-.057.057m0-.208c-.005-.025-.005-.05-.005-.075 0 .026 0 .05.006.076m-.006-.213v-.076.076m-.007-.22v-.07.07m32.92-29.493h-.018.02m-.352-.032c-.012 0-.03 0-.044-.006.013.006.032.006.044.006m-.203-.018c-.02 0-.04 0-.064-.007.02.007.044.007.064.007m-.153-.013c-.026 0-.05 0-.083-.006.033.007.058.007.084.007m-.198-.013c-.025 0-.057-.006-.09-.006.033 0 .065.006.09.006m-.166-.012c-.044-.006-.09-.006-.134-.006.045 0 .09 0 .134.006m-.197-.013c-.04 0-.077-.007-.11-.007.033 0 .07.006.11.006m-.166-.013c-.05 0-.102-.007-.153-.007.05 0 .102.007.153.007m-.204-.007c-.045-.006-.09-.006-.14-.006.05 0 .095 0 .14.006m-.166-.012c-.05 0-.108 0-.16-.006.052.006.11.006.16.006m-.204-.006c-.057 0-.108 0-.165-.007.057.007.108.007.165.007m-.197-.007c-.045 0-.096 0-.147-.006.05.005.1.005.146.005m-.18-.006h-.164.165m-.204 0c-.044-.007-.102-.007-.146-.007.05 0 .095 0 .146.006m-.172-.007h-.17.17m-.203 0h-.178.177"/><path fill="#92B1B8" d="M224.53 188.277c-6.443-4.626-10.936-11.742-12.014-19.913 0-.006-.006-.006-.006-.013-.038-.288-.07-.577-.096-.866-.006-.013-.006-.025-.006-.044l-.02-.17v-.044c-.005-.063-.012-.12-.018-.176v-.037l-.038-.434v-.033c-.007-.056-.007-.12-.013-.176v-.055c-.008-.057-.008-.107-.014-.157v-.07c-.006-.05-.006-.1-.013-.15v-.057c-.006-.143-.012-.282-.02-.426v-.057-.15c-.005-.026-.005-.05-.005-.076v-.137-.076c0-.05-.007-.1-.007-.144v-.07-.213c0-16.218 13.34-29.367 29.78-29.367h.406c.044 0 .102 0 .146.006H242.83c.05.005.1.005.146.005h.032c.057.007.108.007.165.007h.045c.05.006.108.006.16.006.006.006.018.006.025.006.05 0 .095 0 .14.006h.05c.052 0 .103.007.154.007.02.006.038.006.057.006.032 0 .07.006.11.006.018 0 .037 0 .062.006.045 0 .09 0 .134.006.026 0 .05.006.077.006.032 0 .064.006.09.006.037 0 .075.007.114.007.033.007.058.007.084.007.03.006.057.006.09.006.024.007.043.007.063.007.05.006.102.012.16.012.012.006.03.006.043.006.115.013.224.02.332.032h.02c9.08.943 16.953 5.915 21.74 13.074-4.92-3.532-10.97-5.62-17.51-5.62-16.45 0-29.783 13.15-29.783 29.368 0 5.965 1.81 11.51 4.9 16.135"/><path fill="#A4C7D0" d="M305.88 696.927c0 8.518-7.005 15.426-15.642 15.426-8.636 0-15.64-6.908-15.64-15.426 0-8.523 7.004-15.425 15.64-15.425 8.637 0 15.64 6.902 15.64 15.425"/><path fill="#A6BEC1" d="M274.63 697.883v-.007.007m-.007-.113c0-.007-.006-.013-.006-.013s.006.006.006.013m-.006-.114v-.018.018m-.013-.245v-.018.02m0-.114v-.03.03m-.006-.113v-.038.038m0-.113v-.032.032m22.32-14.1h-.013.013m-.096-.043c-.012-.007-.02-.007-.032-.014.013.007.02.007.032.013m-.102-.045c-.012-.006-.02-.013-.032-.013.007 0 .02.007.032.013m-.108-.05c-.013-.007-.025-.007-.038-.013.013.006.025.006.038.013m-.12-.05c-.014-.007-.033-.013-.046-.02.013.007.032.013.045.02m-.095-.045l-.057-.018.057.018m-.095-.037c-.02-.007-.04-.02-.058-.025.02.006.04.018.058.025m-.083-.032l-.14-.055.14.056m-.16-.068c-.025-.006-.05-.02-.07-.025.02.006.045.02.07.025m-.095-.038c-.026-.006-.05-.018-.077-.025.026.006.05.018.077.024m-.09-.03c-.114-.045-.23-.09-.344-.127.115.038.23.082.345.126m-.35-.132c-.72-.25-1.467-.458-2.225-.602.758.144 1.504.352 2.224.603m-2.23-.602c-.128-.026-.25-.05-.377-.07.128.02.25.044.376.07m-.387-.076c-.026 0-.05-.006-.083-.012.025.006.057.012.083.012m-.102-.012c-.025-.007-.057-.013-.082-.013.025 0 .057.006.083.013m-.095-.02l-.26-.037.26.038m-.293-.043c-.026 0-.045-.007-.077-.007.026 0 .05.007.077.007m-.11-.013c-.024 0-.043-.006-.07-.006.02 0 .046.006.07.006m-.107-.012c-.045-.007-.083-.013-.12-.013.037 0 .075.005.12.012m-.172-.02c-.02-.006-.038-.006-.057-.006.02 0 .038 0 .057.007m-.108-.013c-.02-.006-.045-.006-.064-.006.02 0 .04 0 .065.006m-.115-.012c-.02 0-.038-.007-.057-.007.02 0 .038.008.057.008m-.147-.013c-.02-.006-.044-.006-.063-.006.02 0 .044 0 .063.005m-.127-.013c-.02 0-.038 0-.057-.006.018.006.037.006.056.006m-.115-.006c-.018-.006-.037-.006-.05-.006.02 0 .032 0 .05.006m-.126-.012h-.04.04m-.153-.007c-.006 0-.018 0-.03-.006.012.007.024.007.03.007m-.108-.006h-.05.05m-.12-.005h-.045.044m-.14-.007h-.018.02m-.128 0c-.02 0-.032-.006-.045-.006.012 0 .024.006.044.006m-.122-.006h-.044.044m-.12 0h-.04.04"/><path fill="#92B1B8" d="M281.04 709.398c-3.657-2.627-6.117-6.788-6.41-11.515v-.007c-.007-.03-.007-.07-.007-.106 0-.007-.006-.013-.006-.013v-.1-.02c-.007-.075-.013-.15-.013-.226v-.018-.094-.03c-.006-.026-.006-.058-.006-.083v-.038-.075-.032-.113c0-8.523 7.004-15.425 15.64-15.425h.352c.012 0 .024.006.044.006h.128c.03 0 .063.007.095.007h.044c.027 0 .052 0 .07.006h.129c.012.007.024.007.03.007.04 0 .077 0 .115.007h.04c.024.006.05.006.075.006.013 0 .032 0 .05.006h.06c.018.006.037.006.056.006.02 0 .038.007.064.007.02 0 .044 0 .063.005.032 0 .058.006.09.006.02 0 .038.008.057.008.02 0 .032 0 .05.006.02 0 .046 0 .065.006.012 0 .032 0 .05.006.02 0 .04 0 .058.007.02 0 .038 0 .05.006.04 0 .077.005.122.012.013 0 .026 0 .038.006.026 0 .045.006.07.006.013 0 .026.006.032.006.032 0 .05.007.077.007.013.006.02.006.032.006.09.013.178.025.26.038.007 0 .007 0 .014.007.025 0 .057.006.083.013h.02c.032.006.057.012.083.012.006 0 .012.006.012.006.128.02.25.044.376.07h.008c.758.144 1.504.352 2.224.603 0 .007.006.007.006.007.115.038.23.082.345.126.006 0 .012.006.012.006.026.006.05.018.077.024.006.007.013.007.025.013.02.006.045.02.07.025.007.006.013.006.02.013l.14.056c.006 0 .013.008.025.008.02.006.04.018.058.025.012.006.025.012.038.02.02.005.038.01.057.017.02.007.032.02.05.026l.046.018c.033.013.058.026.084.038.013.006.025.006.038.013l.076.037c.013 0 .02.007.032.013.026.013.045.02.07.03.013.008.02.008.032.014.026.012.058.024.083.043h.013c.07.038.147.07.217.107 2.51 1.213 4.64 3.08 6.17 5.368-2.582-1.854-5.756-2.948-9.198-2.948-8.636 0-15.64 6.902-15.64 15.42 0 3.135.95 6.046 2.574 8.478"/></g></g></g></svg>