<svg xmlns="http://www.w3.org/2000/svg" viewBox="0 0 183 119"><g fill="none" fill-rule="evenodd"><g><g><path fill="#ECBD85" d="M149.813 53.17c3.25 32.45-20.42 61.393-52.87 64.643-32.452 3.25-61.394-20.42-64.644-52.87C29.047 32.49 52.72 3.548 85.17.297c32.45-3.25 61.393 20.42 64.643 52.872"/><path fill="#E7B072" d="M69 55.996s34.318-2.192 66.204-36.39C130.59 14.502 125.114 10.23 119.03 7 112.306 20.87 98.166 38.31 69 55.996"/><path fill="#DFAC71" d="M149.957 66C121.534 92.54 89.04 106.434 68 113.238c1.815.782 3.673 1.475 5.57 2.074 12.98-3.034 35.12-10.057 51.286-24.918 0 0-6.893 16.364-32.275 27.623 1.532-.035 3.073-.128 4.622-.283 4.477-.448 8.786-1.388 12.88-2.756 5.267-3.065 10.4-6.684 15.04-10.948 0 0-.93 2.208-3.363 5.558 15.4-9.277 26.025-25.307 28.197-43.588"/><path fill="#FAE0BE" d="M85.585.297C59.855 2.875 39.648 21.607 34 45.427c20.29-10.95 47.475-26.978 68.626-44.372C97.146.003 91.423-.287 85.586.297"/><path fill="#E7B072" d="M106.372 56C91.875 70.428 62.027 82.345 40 89.69c1.29 2.17 2.714 4.246 4.26 6.22C90.354 78.584 106.37 56 106.37 56"/><path fill="#F5C285" d="M146.748 39C130.543 57.605 96.49 90.36 50 101.296c3.444 3.345 7.286 6.265 11.44 8.688 2.06 1.203 4.2 2.285 6.404 3.234 21.04-6.804 53.534-20.698 81.957-47.238.26-2.193.402-4.417.413-6.667.01-2.062-.085-4.144-.296-6.242-.49-4.913-1.576-9.622-3.17-14.07M124.285 91C108.118 105.86 85.98 112.884 73 115.918c6.016 1.898 12.415 2.853 19.01 2.705C117.392 107.363 124.285 91 124.285 91"/><path fill="#ECBD85" d="M110 114.948c4.127-1.38 8.035-3.195 11.676-5.39 2.434-3.35 3.364-5.558 3.364-5.558-4.64 4.264-9.774 7.883-15.04 10.948"/><path fill="#E7B072" d="M125 37.38s8.76-2.603 16.92-8.995c-.917-1.51-1.902-2.97-2.946-4.385-3.96 4.587-8.734 9.438-13.974 13.38"/><path fill="#B57D49" d="M182.44 14.032c-2.894-5.803-21.332-2.995-47.01 6.034 1.472 1.642 2.856 3.368 4.14 5.174 11.15-2.815 18.632-2.996 20.18.11 1.55 3.104-3.096 8.97-12.05 16.185-11.168 8.995-29.038 20.085-49.983 30.53-20.944 10.448-40.552 18.052-54.455 21.56-11.15 2.816-18.632 2.997-20.18-.108-1.55-3.105 3.096-8.972 12.05-16.186-.66-2.086-1.21-4.228-1.64-6.418-22.66 15.08-35.994 28.12-33.1 33.922 2.894 5.803 21.33 2.995 47.01-6.034 15.45-5.434 33.522-13.12 52.408-22.54 18.885-9.42 35.897-19.232 49.532-28.306 22.66-15.08 35.993-28.12 33.098-33.922"/></g></g></g></svg>