<svg xmlns="http://www.w3.org/2000/svg" viewBox="0 0 157 157"><g fill="none" fill-rule="evenodd"><g><g><path fill="#50B3D9" d="M156.335 78.17c0 43.174-34.998 78.17-78.167 78.17C34.998 156.34 0 121.345 0 78.17 0 35 34.998 0 78.168 0c43.17 0 78.167 34.998 78.167 78.17"/><path fill="#7AC08B" d="M154.204 59.98l-1.272-.475h-6.143l-4.54-3.654-9.5 7.02-7.895-7.02-13.454 2.486-8.617 1.024-1.466 16.228 3.506 15.497h14.337l7.964-1.17 3.438 6.288 3.656 7.31-6.44 5.41 5.408 12.28-.87 4.826 4.767 3.513c11.987-13.738 19.252-31.706 19.252-51.372 0-6.262-.733-12.35-2.13-18.19M10.325 70.86l5.077 1.17 5.065 3.314 6.82 2.145 3.517.876 3.312 1.462-1.753 3.51-5.467 8.77 6.05 7.213 8.573 5.46v4.874l5.65 8.576s-.586 5.46 0 7.214c.583 1.755 3.907 10.916 3.907 10.916l3.31 4.288 7.99.975-5.066-8.187s7.404-11.306 7.988-11.696c.585-.39-2.338-4.874-1.753-5.46.584-.584 5.26-5.65 5.26-5.65l5.077-6.435 2.143-8.38-6.43-10.14s-7.22-5.068-7.22-5.652c0-.586-4.675-5.654-4.675-5.654l-13.064-.39-7.403-2.34-2.727 4.874-6.246-3.118.195-5.15h-4.87l-2.728-4.207 4.09-3.122 8.39 4.29 5.26-3.314 5.65-13.256 5.076-6.434h9.157l1.363-3.12 6.04-2.922 2.544 1.682 2.727-4.02-5.27-7.41-4.092-1.364-1.513 1.418-4.917 4.625-11.506-2.73-1.56 5.46-5.064-6.434 6.624-2.34L51.27 27l2.924-2.924 9.35-1.366-7.597-7.992H47.17l-3.508 5.654-3.507-4.484-8.48-.56C15.242 27.507 3.76 45.972.768 67.17l6.245 1.077 3.312 2.616M125.245 29.73v3.507l-10.326 2.925.974 7.408-5.856-3.582-5.65 4.556 3.7 5.46 5.65.778 9.56-7.602 2.726 3.51s-1.753 4.092 0 5.457c1.753 1.364 9.122 3.51 9.122 3.51v-6.63l-5.03-4.483 3.323-2.73 6.038 5.07-1.948 3.508 11.3 5.264s1.248-1.436 3.047-3.555c-5.672-16.05-16.444-29.695-30.368-38.988l-3.28 12.33 7.015 4.287"/><path fill="#1C2432" d="M78.03 156.34h-.046.046m-.137 0h-.058.058m-.138 0h-.057.057m-.137 0h-.058.058m-.138 0c-.023 0-.034 0-.057-.002h.057m-.16 0c-.012-.002-.023-.002-.035-.002.012 0 .023 0 .035.002m-.172-.003h-.035.035m-.138-.002h-.046.046m-.137-.002h-.046.046m-.138-.002h-.046.045m-.137-.002h-.046.046m-.15-.003h-.034.035m-.31-.007h-.035.034m-.138-.004h-.046.046m-.138-.004h-.046.046m-.15-.004h-.033.035m-.137-.004h-.035.035m-.32-.012h-.013.012m-.138-.004h-.024.023m-.138-.006h-.035.035m-.138-.006h-.034.034m-.137-.005l-.035-.003c.012 0 .023 0 .035.003m-.16-.008h-.012.01m-.434-.022h-.022.023m-.148-.007h-.012.012m-.138-.007h-.01.01m-.722-.044h-.01.01m83.233-78.01v-.11.11m0-.152v-.026-.064.09m0-.102v-.022-.006.028m0-.05v-.018-.042.06m0-.093v-.022-.018.04m0-.044v-.016-.03.046m0-.067v-.057-.03-.02.108m0-.138v-.09.09m0-.115V77.3v.107m0-.14v-.085.084m0-.113v-.106.106m-.01-.138v-.086.085m0-.116v-.108.107m0-.138v-.082.082m0-.116v-.104.104m0-.138v-.08.08m-.013-.117v-.1.1m0-.136v-.076.076m0-.116v-.1.1m0-.136c0-.027 0-.05-.01-.075.01.027.01.048.01.075m-.01-.117v-.102.102m0-.133v-.077.077m0-.12c0-.034-.013-.063-.013-.098 0 .035.01.066.01.1m-.01-.133v-.078.08m0-.123v-.086.085m0-.133c-.012-.023-.012-.05-.012-.073 0 .026 0 .048.01.073m-.01-.122v-.07.07m0-.135c0-.024 0-.043-.01-.065 0 .02.01.043.01.065m-.01-.12v-.06.06m0-.137v-.056.056m-.013-.117v-.046.046m0-.144v-.047.047m-.01-.11v-.038.038m0-.162c0-.008-.013-.016-.013-.024 0 .01.012.015.012.024m-.012-.09v-.036.035m-.01-.26v-.02.02m-.013-.25v-.023.023m-.024-.25v-.028.03m-.01-.26v-.013.01"/><path fill="#459EC1" d="M78.168 156.34H77.48c-.023 0-.034 0-.057-.002h-.103c-.012-.002-.023-.002-.035-.002h-.137c-.012 0-.023 0-.035-.002h-.149l-.09-.003h-.047c-.035 0-.057 0-.092-.002h-.046l-.092-.002h-.046c-.035 0-.07-.002-.103-.003h-.036l-.275-.007h-.035l-.103-.004h-.046l-.092-.004h-.046l-.103-.004h-.034l-.102-.004h-.035c-.09-.005-.183-.008-.286-.012h-.012l-.126-.004h-.024c-.034-.003-.068-.005-.114-.006h-.035c-.034-.003-.068-.005-.103-.006h-.034c-.034-.003-.07-.004-.103-.005l-.035-.003c-.045 0-.09-.003-.126-.005h-.01l-.425-.022h-.022l-.126-.007h-.012l-.126-.007h-.01c-.196-.01-.38-.023-.574-.034-.046-.005-.092-.007-.138-.01h-.01l-.14-.01c-22.792-1.502-42.916-12.773-56.22-29.662 10.267 5.827 21.99 9.4 34.482 10.035l3.174 4.105 7.988.975-3.14-5.078c30.254-1.52 55.97-20.24 67.58-46.584l.308-.044 3.438 6.287 3.656 7.31-6.44 5.41 5.408 12.28-.87 4.826 4.767 3.513c11.288-12.93 18.38-29.608 19.184-47.925-1.81 41.575-36.076 74.723-78.1 74.723m78.1-74.734v-.1.1m0-.117c0-.032 0-.064.01-.095-.01.03-.01.063-.01.094m.01-.123v-.09.09m0-.114v-.092.093m0-.117c0-.03.012-.062.012-.093 0 .03-.012.06-.012.093m.01-.113v-.097.097m0-.103c0-.11.013-.22.013-.33 0 .11-.01.22-.01.33m.01-.34v-.084.085m0-.12c0-.026 0-.053.012-.08-.01.03-.01.052-.01.08m.01-.118v-.076.076m0-.12v-.074.073m0-.12v-.067.067m0-.124c0-.022 0-.04.012-.063-.012.02-.012.04-.012.063m.012-.12v-.062.062m0-.12v-.064.065m0-.127v-.056.056m0-.146v-.076.076m0-.15c0-.015.01-.034.01-.05 0 .02 0 .032-.01.05m.01-.12v-.052.052m0-.122v-.053.052m0-.118v-.06.06m0-.123v-.055.056m0-.12v-.055.055m0-.124v-.053.053m0-.124v-.05.05m0-.128v-.043.044m0-.163v-.133.133m0-.178v-.098.098m0-.144v-.097.098m0-.136v-.11.11m0-.138c-.045-6.053-.778-11.94-2.13-17.593l-1.272-.475h-6.143l-4.54-3.654-8.926 6.6c.057-1.317.092-2.642.092-3.976 0-1.13-.023-2.253-.07-3.37 1.067.336 1.8.552 1.8.552v-6.628l-2.613-2.33c-.183-1.216-.39-2.424-.63-3.622l1.536-1.26 6.038 5.067-1.948 3.51 11.3 5.263s1.248-1.436 3.047-3.555c-5.672-16.05-16.444-29.695-30.368-38.988l-.723 2.735c-1.284-1.967-2.647-3.87-4.103-5.708 22.22 12.606 37.657 35.78 39.48 62.692 0 .082 0 .165.01.247v.01c0 .078.012.156.012.232v.03c.012.074.012.15.023.225v.023c0 .075 0 .153.01.23v.02c0 .075.012.15.012.224v.101c0 .008.012.016.012.024v.162c0 .02 0 .043.01.063v.191c0 .02 0 .042.013.06v.248c.01.022.01.04.01.065v.184c0 .024 0 .05.012.073V75.533c0 .035.01.064.01.1v.293c.012.025.012.048.012.075v.387c0 .014.012.025.012.038v.586c0 .01 0 .022.01.032v.528"/><path fill="#66BA84" d="M137.083 129.543l-4.768-3.514.87-4.826-5.408-12.282 6.44-5.41-3.655-7.31-3.438-6.286-.31.045c3.737-8.485 6.017-17.763 6.51-27.51l8.927-6.6 4.54 3.655h6.142l1.272.476c1.352 5.653 2.085 11.54 2.13 17.594V79.265c0 .016-.01.035-.01.05V79.914c-.012.022-.012.04-.012.063v.407c-.01.025-.01.052-.01.08v.129c0 .11-.013.22-.013.33V81.043c0 .03-.012.062-.012.093v.26c-.01.03-.01.063-.01.094v.128c-.804 18.317-7.897 34.994-19.185 47.925M62.376 141.623l-7.988-.975-3.174-4.105c1.33.068 2.682.102 4.034.102 1.34 0 2.67-.033 3.988-.1l3.14 5.078M148.83 55.656l-11.3-5.264 1.948-3.51-6.04-5.067-1.535 1.26c-1.97-9.874-5.81-19.077-11.116-27.228l.722-2.735c13.923 9.293 24.695 22.937 30.367 38.99-1.8 2.118-3.048 3.554-3.048 3.554m-13.684 0s-.733-.216-1.8-.552c-.125-2.845-.39-5.65-.813-8.406l2.613 2.33v6.628"/><path fill="#7AC08B" d="M17.912 111.828l-1.18-1.184-3.278.67v3.225l-3.438 1.94c1.547 2.75 3.266 5.394 5.122 7.924l2.476-.465 4.882-3.492.275-3.178-4.858-2.33v-3.112"/></g></g></g></svg>