<svg xmlns="http://www.w3.org/2000/svg" viewBox="0 0 100 182"><g fill="none" fill-rule="evenodd"><g><g><path fill="#FFFFFE" d="M50.226 114.012h-11.06l-2.286 32.312h13.346v-32.312M50.226 114.012h11.06l2.286 32.312H50.226v-32.312"/><path fill="#FFFFFE" d="M52.448 130.517c0 3.435-2.785 6.22-6.222 6.22-3.435 0-6.22-2.785-6.22-6.22 0-3.437 2.785-6.222 6.22-6.222 3.437 0 6.222 2.785 6.222 6.222"/><path fill="#FFFFFE" d="M59.494 133.88c0 3.437-2.785 6.222-6.22 6.222-3.436 0-6.222-2.785-6.222-6.22 0-3.436 2.786-6.223 6.22-6.223 3.437 0 6.222 2.786 6.222 6.22"/><path fill="#FFFFFE" d="M52.448 140.102c0 3.435-2.785 6.222-6.222 6.222-3.435 0-6.22-2.787-6.22-6.222 0-3.436 2.785-6.22 6.22-6.22 3.437 0 6.222 2.784 6.222 6.22"/><path fill="#FFFFFE" d="M50.925 148.1c0 3.436-2.785 6.222-6.222 6.222-3.436 0-6.22-2.786-6.22-6.22 0-3.438 2.784-6.223 6.22-6.223 3.437 0 6.222 2.784 6.222 6.22"/><path fill="#FFFFFE" d="M61.97 148.1c0 3.436-2.786 6.222-6.22 6.222-3.437 0-6.222-2.786-6.222-6.22 0-3.438 2.785-6.223 6.22-6.223 3.436 0 6.222 2.784 6.222 6.22"/><path fill="#FFFFFE" d="M60.192 141.88c0 3.436-2.785 6.22-6.22 6.22-3.436 0-6.222-2.784-6.222-6.22s2.786-6.22 6.222-6.22c3.435 0 6.22 2.784 6.22 6.22"/><path fill="#FFFFFE" d="M60.192 153.306c0 3.436-2.785 6.22-6.22 6.22-3.436 0-6.222-2.784-6.222-6.22s2.786-6.22 6.222-6.22c3.435 0 6.22 2.784 6.22 6.22"/><path fill="#FFFFFE" d="M66.414 148.1c0 3.436-2.786 6.222-6.222 6.222-3.435 0-6.22-2.786-6.22-6.22 0-3.438 2.785-6.223 6.22-6.223 3.436 0 6.222 2.784 6.222 6.22M43.814 146.324c0 3.435-2.785 6.22-6.22 6.22-3.437 0-6.222-2.785-6.222-6.22 0-3.437 2.785-6.222 6.222-6.222 3.435 0 6.22 2.785 6.22 6.222"/><path fill="#FFFFFE" d="M43.1 156.353c0 3.436-2.784 6.222-6.22 6.222s-6.22-2.786-6.22-6.222c0-3.436 2.784-6.22 6.22-6.22s6.22 2.784 6.22 6.22"/><path fill="#FFFFFE" d="M38.807 164.848c0 2.79-2.263 5.054-5.054 5.054-2.79 0-5.053-2.263-5.053-5.054 0-2.79 2.262-5.054 5.053-5.054 2.79 0 5.054 2.263 5.054 5.054M52.448 157.242c0 3.435-2.785 6.22-6.222 6.22-3.435 0-6.22-2.785-6.22-6.22 0-3.436 2.785-6.22 6.22-6.22 3.437 0 6.222 2.784 6.222 6.22"/><path fill="#FFFFFE" d="M54.058 170.484c0 6.05-4.905 10.957-10.957 10.957-6.05 0-10.956-4.905-10.956-10.956 0-6.05 4.906-10.957 10.957-10.957 6.053 0 10.958 4.906 10.958 10.957"/><path fill="#FFFFFE" d="M73.348 163.463c0 6.775-5.493 12.266-12.267 12.266-6.773 0-12.265-5.492-12.265-12.267 0-6.774 5.492-12.266 12.266-12.266 6.775 0 12.268 5.492 12.268 12.266"/><path fill="#FADC47" d="M55.75 119.534c0 3.05-2.474 12.792-5.524 12.792s-5.523-9.742-5.523-12.792c0-3.05 2.474-5.522 5.523-5.522 3.05 0 5.523 2.473 5.523 5.522"/><path fill="#E8814E" d="M54.112 118.66c0 2.146-1.74 9-3.886 9s-3.885-6.854-3.885-9c0-2.147 1.74-3.886 3.886-3.886s3.886 1.74 3.886 3.885"/><path fill="#CE3642" d="M91.153 105.315H64.94V69.258l31.868 17.394-5.655 18.663M8.67 105.315H34.88V69.258L3.015 86.652l5.654 18.663"/><path fill="#FFFFFE" d="M30.66 109.332h39.133v-82.55H30.66"/><path fill="#DE4D52" d="M50.226 0S30.66 6.078 30.66 26.78H69.792C69.793 6.08 50.226 0 50.226 0"/><path fill="#10242F" d="M33.753 116.615H66.7v-7.283H33.752"/><path fill="#EEEEEA" d="M0 106.867h11.205V83.23H0"/><path fill="#DE4D52" d="M5.602 75.56S0 77.3 0 83.23h11.205c0-5.93-5.603-7.67-5.603-7.67"/><path fill="#10242F" d="M.886 108.95h9.433v-2.083H.885"/><path fill="#EEEEEA" d="M88.617 106.867h11.205V83.23H88.617"/><path fill="#DE4D52" d="M94.22 75.56s-5.603 1.74-5.603 7.67h11.205c0-5.93-5.602-7.67-5.602-7.67"/><path fill="#10242F" d="M89.503 108.95h9.433v-2.083h-9.433"/><path fill="#DE4D52" d="M61.843 45.707c0 6.415-5.2 11.616-11.617 11.616-6.416 0-11.617-5.2-11.617-11.616 0-6.416 5.2-11.617 11.616-11.617 6.416 0 11.617 5.2 11.617 11.617"/><path fill="#BDDFEC" d="M59.78 45.707c0 5.277-4.277 9.554-9.554 9.554-5.276 0-9.553-4.276-9.553-9.553 0-5.277 4.277-9.554 9.553-9.554 5.277 0 9.554 4.277 9.554 9.554"/><path fill="#FFFFFE" d="M49.686 41.247c0 1.254-1.015 2.27-2.27 2.27-1.252 0-2.27-1.016-2.27-2.27 0-1.253 1.018-2.27 2.27-2.27 1.255 0 2.27 1.017 2.27 2.27"/><path fill="#B7313C" d="M88.617 105.315H69.793V71.907l18.88 10.305c-.036.325-.056.664-.056 1.017v22.085"/><path fill="#E4E4DF" d="M69.793 109.332H50.226v-52.01c6.416 0 11.617-5.2 11.617-11.615 0-6.416-5.2-11.617-11.617-11.617v-7.31h19.567v82.552"/><path fill="#D44348" d="M69.793 26.78H50.226V0s19.567 6.078 19.567 26.78"/><path fill="#0F212A" d="M50.226 116.615H66.7v-7.283H50.225"/><path fill="#D1D0CB" d="M99.822 106.867H88.617V83.23h11.205v23.637"/><path fill="#D44348" d="M99.822 83.23H94.22h-5.603c0-.354.02-.693.057-1.018h.002c.59-5.112 5.544-6.65 5.544-6.65s5.602 1.74 5.602 7.667"/><path fill="#0F212A" d="M89.503 108.95h9.433v-2.083h-9.433"/><path fill="#D44348" d="M50.226 57.323V55.26c5.277 0 9.554-4.276 9.554-9.553 0-5.277-4.277-9.554-9.554-9.554V34.09c6.416 0 11.617 5.2 11.617 11.617 0 6.415-5.2 11.616-11.617 11.616"/><path fill="#A4C6D8" d="M50.226 55.26V36.154c5.277 0 9.554 4.277 9.554 9.554s-4.277 9.554-9.554 9.554"/></g></g></g></svg>