<?xml version="1.0" standalone="no"?>
<!DOCTYPE svg PUBLIC "-//W3C//DTD SVG 20010904//EN"
 "http://www.w3.org/TR/2001/REC-SVG-20010904/DTD/svg10.dtd">
<svg version="1.0" xmlns="http://www.w3.org/2000/svg"
 width="512.000000pt" height="512.000000pt" viewBox="0 0 512.000000 512.000000"
 preserveAspectRatio="xMidYMid meet">
<metadata>
Created by potrace 1.11, written by Peter Selinger 2001-2013
</metadata>
<g transform="translate(0.000000,512.000000) scale(0.100000,-0.100000)"
fill="#000000" stroke="none">
<path d="M2430 4254 c-148 -28 -200 -39 -227 -51 -18 -7 -33 -11 -33 -8 0 10
-192 -85 -258 -128 -270 -175 -458 -451 -522 -771 -12 -58 -20 -138 -20 -197
0 -114 18 -99 -150 -124 -475 -72 -848 -195 -998 -330 -83 -75 -100 -138 -63
-233 67 -169 256 -323 561 -455 101 -44 395 -129 525 -152 22 -4 50 -9 63 -11
12 -2 34 -6 49 -9 14 -2 29 -9 32 -14 3 -5 6 -142 6 -304 l0 -294 -37 -34
c-60 -57 -63 -131 -8 -184 52 -50 145 -40 183 19 28 42 29 91 1 131 l-24 36 0
310 0 309 43 -5 c23 -3 58 -7 77 -10 71 -9 127 -15 205 -20 44 -3 98 -7 120
-10 159 -17 647 -22 955 -11 202 8 241 10 350 20 151 13 195 18 243 26 29 4
54 6 56 4 2 -2 4 -138 4 -303 l0 -299 -26 -32 c-34 -39 -38 -75 -16 -132 22
-55 102 -82 161 -54 43 21 68 63 68 114 0 33 -7 48 -37 79 l-37 38 -1 290 c-1
160 3 298 7 308 5 9 18 17 29 17 38 0 347 70 456 104 223 68 386 144 527 245
143 102 250 241 264 343 20 153 -196 297 -609 406 -147 39 -351 81 -506 103
l-83 12 -1 91 c-1 112 -5 141 -25 236 -101 460 -457 812 -929 915 -68 16 -325
28 -375 19z"/>
</g>
</svg>
