<svg xmlns="http://www.w3.org/2000/svg" viewBox="0 0 1251 2708"><g fill="none" fill-rule="evenodd"><g><g><path fill="#FFFFFE" d="M630.62 1630.955h-178.2l-36.846 520.982H630.62v-520.982M630.867 1630.955h178.2l36.83 520.982h-215.03v-520.982"/><path fill="#FFFFFE" d="M662.192 1885.137c0 55.39-44.873 100.32-100.25 100.32-55.345 0-100.234-44.93-100.234-100.32 0-55.39 44.89-100.32 100.235-100.32 55.376 0 100.25 44.93 100.25 100.32"/><path fill="#FFFFFE" d="M769.838 1946.683c0 55.39-44.873 100.32-100.25 100.32-55.345 0-100.233-44.93-100.233-100.32 0-55.39 44.888-100.32 100.234-100.32 55.375 0 100.248 44.93 100.248 100.32"/><path fill="#FFFFFE" d="M662.192 2039c0 55.392-44.873 100.32-100.25 100.32-55.345 0-100.234-44.928-100.234-100.32 0-55.39 44.89-100.318 100.235-100.318 55.376 0 100.25 44.928 100.25 100.32"/><path fill="#FFFFFE" d="M631.436 2177.478c0 55.39-44.89 100.32-100.25 100.32s-100.234-44.93-100.234-100.32c0-55.39 44.873-100.32 100.234-100.32 55.36 0 100.25 44.93 100.25 100.32"/><path fill="#FFFFFE" d="M815.988 2177.478c0 55.39-44.89 100.32-100.25 100.32-55.376 0-100.25-44.93-100.25-100.32 0-55.39 44.874-100.32 100.25-100.32 55.36 0 100.25 44.93 100.25 100.32"/><path fill="#FFFFFE" d="M785.2 2069.62c0 55.39-44.872 100.32-100.218 100.32-55.376 0-100.25-44.93-100.25-100.32 0-55.39 44.874-100.165 100.25-100.165 55.346 0 100.22 44.774 100.22 100.165"/><path fill="#FFFFFE" d="M785.2 2254.41c0 55.39-44.872 100.165-100.218 100.165-55.376 0-100.25-44.774-100.25-100.165 0-55.39 44.874-100.32 100.25-100.32 55.346 0 100.22 44.93 100.22 100.32"/><path fill="#FFFFFE" d="M892.847 2177.478c0 55.39-44.873 100.32-100.25 100.32-55.345 0-100.218-44.93-100.218-100.32 0-55.39 44.872-100.32 100.218-100.32 55.376 0 100.25 44.93 100.25 100.32M523.79 2146.705c0 55.39-44.874 100.32-100.235 100.32-55.36 0-100.25-44.93-100.25-100.32 0-55.39 44.89-100.32 100.25-100.32s100.235 44.93 100.235 100.32"/><path fill="#FFFFFE" d="M508.412 2300.57c0 55.39-44.874 100.318-100.25 100.318-55.346 0-100.234-44.928-100.234-100.32 0-55.39 44.888-100.318 100.234-100.318 55.376 0 100.25 44.928 100.25 100.32"/><path fill="#FFFFFE" d="M440.025 2451.048c0 44.928-36.46 81.394-81.426 81.394-44.982 0-81.428-36.466-81.428-81.394 0-44.928 36.446-81.548 81.427-81.548 44.964 0 81.425 36.62 81.425 81.548M662.192 2315.955c0 55.39-44.873 100.32-100.25 100.32-55.345 0-100.234-44.93-100.234-100.32 0-55.39 44.89-100.32 100.235-100.32 55.376 0 100.25 44.93 100.25 100.32"/><path fill="#FFFFFE" d="M691.78 2530.903c0 97.55-79.044 176.635-176.54 176.635-97.513 0-176.556-79.086-176.556-176.635 0-97.703 79.043-176.79 176.555-176.79 97.496 0 176.54 79.087 176.54 176.79"/><path fill="#FFFFFE" d="M995.373 2428.738c0 109.243-88.47 197.714-197.623 197.714-109.154 0-197.64-88.47-197.64-197.715 0-109.243 88.486-197.714 197.64-197.714 109.153 0 197.623 88.47 197.623 197.715"/><path fill="#FADC47" d="M716.57 1720.042c0 49.236-39.846 206.177-88.994 206.177S538.6 1769.277 538.6 1720.04c0-49.237 39.828-89.087 88.976-89.087 49.148 0 88.993 39.85 88.993 89.087"/><path fill="#E8814E" d="M679.216 1693.577c0 34.62-28.035 145.093-62.62 145.093-34.57 0-62.62-110.474-62.62-145.093 0-34.465 28.05-62.622 62.62-62.622 34.585 0 62.62 28.157 62.62 62.622"/><path fill="#E5E6E3" d="M1217.632 1001.652l-212.08-180.482c-18.145-15.386-38.798-46.62-45.918-69.392l-81.01-258.953c-7.106-22.772-24.237-43.543-38.077-46.313l-2.415-.307h-22.728V1469.86c0 23.848 18.638 37.696 41.413 30.772l352.372-107.243c22.805-7.08 41.443-32.158 41.443-56.007v-264.338c0-23.85-14.855-56.006-33-71.393M412.868 446.205l-2.415.307c-13.84 2.77-30.97 23.54-38.076 46.313l-81.01 258.953c-7.12 22.772-27.774 54.006-45.92 69.392L33.353 1001.652C15.223 1017.04.367 1049.196.367 1073.045v264.338c0 23.85 18.654 48.928 41.444 56.006L394.17 1500.63c22.79 6.924 41.428-6.924 41.428-30.773V446.204h-22.728"/><path fill="#8B8E8D" d="M815.404 1471.09c0 23.85 18.638 37.697 41.413 30.773l352.372-107.243c22.805-7.078 41.443-32.157 41.443-56.006h-435.23v132.476M41.81 1394.62l352.358 107.243c22.79 6.924 41.428-6.924 41.428-30.773v-132.476H.366c0 23.85 18.655 48.928 41.445 56.006"/><path fill="#515251" d="M623.9 1604.952c0 11.847-9.734 21.54-21.652 21.54H452.605c-11.903 0-21.653-9.693-21.653-21.54v-90.78c0-12 9.75-21.695 21.653-21.695h149.643c11.918 0 21.653 9.694 21.653 21.695v90.78M823.83 1604.952c0 11.847-9.75 21.54-21.652 21.54h-149.66c-11.9 0-21.65-9.693-21.65-21.54v-90.78c0-12 9.75-21.695 21.65-21.695h149.66c11.903 0 21.653 9.694 21.653 21.695v90.78"/><path fill="#797C7A" d="M731.547 1604.952c0 11.847-9.734 21.54-21.652 21.54H560.25c-11.917 0-21.65-9.693-21.65-21.54v-90.78c0-12 9.733-21.695 21.65-21.695h149.645c11.918 0 21.652 9.694 21.652 21.695v90.78"/><path fill="#FFFFFE" d="M430.952 1513.71h385.912V276.955H430.952"/><path fill="#CE3642" d="M1192.95 1196.136l-40.12-5.847-17.948-36.313-17.93 36.312-40.122 5.846 29.034 28.31-6.86 40.005 35.878-18.924 35.877 18.925-6.844-40.003 29.034-28.31"/><path fill="#8B8E8D" d="M623.9 0C491.604 0 430.953 277.97 430.953 277.97h385.912S756.214 0 623.9 0"/><path fill="#A7D9EB" d="M636.31 338.5c-70.954 0-128.467 57.545-128.467 128.476h256.95c0-70.93-57.528-128.476-128.482-128.476"/><path fill="#5498C1" d="M165.204 1205.675c0 28.465-23.144 51.7-51.67 51.7-28.526 0-51.655-23.235-51.655-51.7 0-28.618 23.128-51.698 51.654-51.698 28.526 0 51.67 23.08 51.67 51.698"/><path fill="#F3F4F1" d="M507.843 1330.305h256.95V461.59h-256.95"/><path fill="#CDCECA" d="M661.623 1530.79c0 11.847 9.734 21.694 21.652 21.694h149.63c11.917 0 21.65-9.847 21.65-21.695v-147.402c0-11.848-8.61-26.157-19.145-31.696l-92.99-49.082c-10.535-5.693-28.896-10.155-40.8-10.155h-18.345c-11.918 0-21.652 9.693-21.652 21.694v216.64M593.16 1530.79c0 11.847-9.75 21.694-21.652 21.694H421.864c-11.918 0-21.668-9.847-21.668-21.695v-147.402c0-11.848 8.627-26.157 19.16-31.696l92.977-49.082c10.534-5.693 28.91-10.155 40.813-10.155h18.362c11.902 0 21.652 9.693 21.652 21.694v216.64"/></g></g></g></svg>