<svg width="3000" height="5720" viewBox="0 0 3000 5720" xmlns="http://www.w3.org/2000/svg"><title>Desktop</title><g fill="#FFFFFE" fill-rule="evenodd"><path d="M2067.086 792.543c-6.375 0-11.543-5.168-11.543-11.543 0 6.375-5.168 11.543-11.543 11.543 6.375 0 11.543 5.168 11.543 11.543 0-6.375 5.168-11.543 11.543-11.543M1098.467 287.733c-3.72 0-6.734-3.014-6.734-6.733 0 3.72-3.014 6.733-6.733 6.733 3.72 0 6.733 3.015 6.733 6.734 0-3.72 3.015-6.734 6.734-6.734M1925.467 1653.733c-3.72 0-6.734-3.014-6.734-6.733 0 3.72-3.014 6.733-6.733 6.733 3.72 0 6.733 3.015 6.733 6.734 0-3.72 3.015-6.734 6.734-6.734M1604.467 1769.733c-3.72 0-6.734-3.014-6.734-6.733 0 3.72-3.014 6.733-6.733 6.733 3.72 0 6.733 3.015 6.733 6.734 0-3.72 3.015-6.734 6.734-6.734M1445.467 331.733c-3.72 0-6.734-3.014-6.734-6.733 0 3.72-3.014 6.733-6.733 6.733 3.72 0 6.733 3.015 6.733 6.734 0-3.72 3.015-6.734 6.734-6.734"/><path d="M1263.467 1485.733c-3.72 0-6.734-3.014-6.734-6.733 0 3.72-3.014 6.733-6.733 6.733 3.72 0 6.733 3.015 6.733 6.734 0-3.72 3.015-6.734 6.734-6.734" opacity=".295"/><path d="M2352.467 1460.733c-3.72 0-6.734-3.014-6.734-6.733 0 3.72-3.014 6.733-6.733 6.733 3.72 0 6.733 3.015 6.733 6.734 0-3.72 3.015-6.734 6.734-6.734M2590.467 1307.733c-3.72 0-6.734-3.014-6.734-6.733 0 3.72-3.014 6.733-6.733 6.733 3.72 0 6.733 3.015 6.733 6.734 0-3.72 3.015-6.734 6.734-6.734M2702.467 1228.733c-3.72 0-6.734-3.014-6.734-6.733 0 3.72-3.014 6.733-6.733 6.733 3.72 0 6.733 3.015 6.733 6.734 0-3.72 3.015-6.734 6.734-6.734"/><path d="M1517.467 1453.733c-3.72 0-6.734-3.014-6.734-6.733 0 3.72-3.014 6.733-6.733 6.733 3.72 0 6.733 3.015 6.733 6.734 0-3.72 3.015-6.734 6.734-6.734" opacity=".295"/><path d="M1031.467 1321.733c-3.72 0-6.734-3.014-6.734-6.733 0 3.72-3.014 6.733-6.733 6.733 3.72 0 6.733 3.015 6.733 6.734 0-3.72 3.015-6.734 6.734-6.734" opacity=".238"/><path d="M1003.467 557.733c-3.72 0-6.734-3.014-6.734-6.733 0 3.72-3.014 6.733-6.733 6.733 3.72 0 6.733 3.015 6.733 6.734 0-3.72 3.015-6.734 6.734-6.734"/><path d="M1201.695 1131.848c-2.125 0-3.847-1.723-3.847-3.848 0 2.125-1.723 3.848-3.848 3.848 2.125 0 3.848 1.722 3.848 3.847 0-2.125 1.722-3.847 3.847-3.847" opacity=".295"/><path d="M2290.657 917.33c-2.39 0-4.328-1.94-4.328-4.33 0 2.39-1.94 4.33-4.33 4.33 2.39 0 4.33 1.937 4.33 4.327 0-2.39 1.937-4.328 4.327-4.328"/><path d="M1546.467 1242.733c-3.72 0-6.734-3.014-6.734-6.733 0 3.72-3.014 6.733-6.733 6.733 3.72 0 6.733 3.015 6.733 6.734 0-3.72 3.015-6.734 6.734-6.734" opacity=".295"/><path d="M1017.467 912.733c-3.72 0-6.734-3.014-6.734-6.733 0 3.72-3.014 6.733-6.733 6.733 3.72 0 6.733 3.015 6.733 6.734 0-3.72 3.015-6.734 6.734-6.734M1989.467 1036.733c-3.72 0-6.734-3.014-6.734-6.733 0 3.72-3.014 6.733-6.733 6.733 3.72 0 6.733 3.015 6.733 6.734 0-3.72 3.015-6.734 6.734-6.734M2899.467 1402.733c-3.72 0-6.734-3.014-6.734-6.733 0 3.72-3.014 6.733-6.733 6.733 3.72 0 6.733 3.015 6.733 6.734 0-3.72 3.015-6.734 6.734-6.734M2081.467 294.733c-3.72 0-6.734-3.014-6.734-6.733 0 3.72-3.014 6.733-6.733 6.733 3.72 0 6.733 3.015 6.733 6.734 0-3.72 3.015-6.734 6.734-6.734M1469.467 951.733c-3.72 0-6.734-3.014-6.734-6.733 0 3.72-3.014 6.733-6.733 6.733 3.72 0 6.733 3.015 6.733 6.734 0-3.72 3.015-6.734 6.734-6.734M1864.733 496.367c-1.86 0-3.366-1.508-3.366-3.367 0 1.86-1.508 3.367-3.367 3.367 1.86 0 3.367 1.507 3.367 3.366 0-1.86 1.507-3.366 3.366-3.366M875.467 674.733c-3.72 0-6.734-3.014-6.734-6.733 0 3.72-3.014 6.733-6.733 6.733 3.72 0 6.733 3.015 6.733 6.734 0-3.72 3.015-6.734 6.734-6.734M1552.885 2272.207c-3.558 1.787-7.89.35-9.677-3.207 1.787 3.558.35 7.89-3.208 9.677 3.56-1.787 7.89-.35 9.678 3.207-1.787-3.558-.35-7.89 3.207-9.677M1652.885 2107.207c-3.558 1.787-7.89.35-9.677-3.207 1.787 3.558.35 7.89-3.208 9.677 3.56-1.787 7.89-.35 9.678 3.207-1.787-3.558-.35-7.89 3.207-9.677M2050.885 1848.207c-3.558 1.787-7.89.35-9.677-3.207 1.787 3.558.35 7.89-3.208 9.677 3.56-1.787 7.89-.35 9.678 3.207-1.787-3.558-.35-7.89 3.207-9.677M800.805 1992.427c-6.02 3.024-13.352.594-16.376-5.427 3.023 6.02.593 13.352-5.43 16.376 6.023-3.024 13.354-.594 16.378 5.428-3.024-6.022-.594-13.353 5.427-16.377M472.805 2368.427c-6.02 3.024-13.352.594-16.376-5.427 3.023 6.02.593 13.352-5.43 16.376 6.023-3.024 13.354-.594 16.378 5.428-3.024-6.022-.594-13.353 5.427-16.377M944.858 2184.947c-4.38 2.2-9.71.432-11.91-3.947 2.2 4.38.432 9.71-3.948 11.91 4.38-2.2 9.712-.432 11.91 3.947-2.198-4.38-.43-9.71 3.948-11.91M205.858 2229.947c-4.38 2.2-9.71.432-11.91-3.947 2.2 4.38.432 9.71-3.948 11.91 4.38-2.2 9.712-.432 11.91 3.947-2.198-4.38-.43-9.71 3.948-11.91M818.894 2566.96c-3.284 1.65-7.283.324-8.933-2.96 1.65 3.284.325 7.283-2.96 8.933 3.285-1.65 7.284-.324 8.934 2.96-1.65-3.284-.324-7.283 2.96-8.933M111.894 2764.96c-3.284 1.65-7.283.324-8.933-2.96 1.65 3.284.325 7.283-2.96 8.933 3.285-1.65 7.284-.324 8.934 2.96-1.65-3.284-.324-7.283 2.96-8.933"/><path d="M1036.894 2992.96c-3.284 1.65-7.283.324-8.933-2.96 1.65 3.284.325 7.283-2.96 8.933 3.285-1.65 7.284-.324 8.934 2.96-1.65-3.284-.324-7.283 2.96-8.933" opacity=".5"/><path d="M833.086 2896.543c-6.375 0-11.543-5.168-11.543-11.543 0 6.375-5.168 11.543-11.543 11.543 6.375 0 11.543 5.168 11.543 11.543 0-6.375 5.168-11.543 11.543-11.543M157.086 3257.543c-6.375 0-11.543-5.168-11.543-11.543 0 6.375-5.168 11.543-11.543 11.543 6.375 0 11.543 5.168 11.543 11.543 0-6.375 5.168-11.543 11.543-11.543M977.858 1861.947c-4.38 2.2-9.71.432-11.91-3.947 2.2 4.38.432 9.71-3.948 11.91 4.38-2.2 9.712-.432 11.91 3.947-2.198-4.38-.43-9.71 3.948-11.91M952.938 1574.727c-1.916.962-4.248.19-5.21-1.727.962 1.916.188 4.248-1.728 5.21 1.916-.962 4.25-.188 5.21 1.728-.96-1.916-.188-4.25 1.728-5.21M1552.885 2272.207c-3.558 1.787-7.89.35-9.677-3.207 1.787 3.558.35 7.89-3.208 9.677 3.56-1.787 7.89-.35 9.678 3.207-1.787-3.558-.35-7.89 3.207-9.677M2091.885 2889.207c-3.558 1.787-7.89.35-9.677-3.207 1.787 3.558.35 7.89-3.208 9.677 3.56-1.787 7.89-.35 9.678 3.207-1.787-3.558-.35-7.89 3.207-9.677M2976.885 2315.207c-3.558 1.787-7.89.35-9.677-3.207 1.787 3.558.35 7.89-3.208 9.677 3.56-1.787 7.89-.35 9.678 3.207-1.787-3.558-.35-7.89 3.207-9.677M2049.885 2514.207c-3.558 1.787-7.89.35-9.677-3.207 1.787 3.558.35 7.89-3.208 9.677 3.56-1.787 7.89-.35 9.678 3.207-1.787-3.558-.35-7.89 3.207-9.677M496.885 2777.207c-3.558 1.787-7.89.35-9.677-3.207 1.787 3.558.35 7.89-3.208 9.677 3.56-1.787 7.89-.35 9.678 3.207-1.787-3.558-.35-7.89 3.207-9.677M2142.086 3143.543c-6.375 0-11.543-5.168-11.543-11.543 0 6.375-5.168 11.543-11.543 11.543 6.375 0 11.543 5.168 11.543 11.543 0-6.375 5.168-11.543 11.543-11.543M2892.086 2896.543c-6.375 0-11.543-5.168-11.543-11.543 0 6.375-5.168 11.543-11.543 11.543 6.375 0 11.543 5.168 11.543 11.543 0-6.375 5.168-11.543 11.543-11.543M2323.885 3051.207c-3.558 1.787-7.89.35-9.677-3.207 1.787 3.558.35 7.89-3.208 9.677 3.56-1.787 7.89-.35 9.678 3.207-1.787-3.558-.35-7.89 3.207-9.677M2081.805 3782.427c-6.02 3.024-13.352.594-16.376-5.427 3.023 6.02.593 13.352-5.43 16.376 6.023-3.024 13.354-.594 16.378 5.428-3.024-6.022-.594-13.353 5.427-16.377M2939.805 3771.427c-6.02 3.024-13.352.594-16.376-5.427 3.023 6.02.593 13.352-5.43 16.376 6.023-3.024 13.354-.594 16.378 5.428-3.024-6.022-.594-13.353 5.427-16.377M2576.805 2868.427c-6.02 3.024-13.352.594-16.376-5.427 3.023 6.02.593 13.352-5.43 16.376 6.023-3.024 13.354-.594 16.378 5.428-3.024-6.022-.594-13.353 5.427-16.377"/><path d="M2098.086 3337.543c-6.375 0-11.543-5.168-11.543-11.543 0 6.375-5.168 11.543-11.543 11.543 6.375 0 11.543 5.168 11.543 11.543 0-6.375 5.168-11.543 11.543-11.543M2695.086 3574.543c-6.375 0-11.543-5.168-11.543-11.543 0 6.375-5.168 11.543-11.543 11.543 6.375 0 11.543 5.168 11.543 11.543 0-6.375 5.168-11.543 11.543-11.543" opacity=".505"/><path d="M2216.805 3445.427c-6.02 3.024-13.352.594-16.376-5.427 3.023 6.02.593 13.352-5.43 16.376 6.023-3.024 13.354-.594 16.378 5.428-3.024-6.022-.594-13.353 5.427-16.377M2695.805 3251.427c-6.02 3.024-13.352.594-16.376-5.427 3.023 6.02.593 13.352-5.43 16.376 6.023-3.024 13.354-.594 16.378 5.428-3.024-6.022-.594-13.353 5.427-16.377M2180.086 1455.543c-6.375 0-11.543-5.168-11.543-11.543 0 6.375-5.168 11.543-11.543 11.543 6.375 0 11.543 5.168 11.543 11.543 0-6.375 5.168-11.543 11.543-11.543M2963.086 1648.543c-6.375 0-11.543-5.168-11.543-11.543 0 6.375-5.168 11.543-11.543 11.543 6.375 0 11.543 5.168 11.543 11.543 0-6.375 5.168-11.543 11.543-11.543M2709.086 1608.543c-6.375 0-11.543-5.168-11.543-11.543 0 6.375-5.168 11.543-11.543 11.543 6.375 0 11.543 5.168 11.543 11.543 0-6.375 5.168-11.543 11.543-11.543M2127.657 4498.33c-2.39 0-4.328-1.94-4.328-4.33 0 2.39-1.94 4.33-4.33 4.33 2.39 0 4.33 1.937 4.33 4.327 0-2.39 1.937-4.328 4.327-4.328M852.657 4987.33c-2.39 0-4.328-1.94-4.328-4.33 0 2.39-1.94 4.33-4.33 4.33 2.39 0 4.33 1.937 4.33 4.327 0-2.39 1.937-4.328 4.327-4.328M75.657 4787.33c-2.39 0-4.328-1.94-4.328-4.33 0 2.39-1.94 4.33-4.33 4.33 2.39 0 4.33 1.937 4.33 4.327 0-2.39 1.937-4.328 4.327-4.328M133.657 4111.33c-2.39 0-4.328-1.94-4.328-4.33 0 2.39-1.94 4.33-4.33 4.33 2.39 0 4.33 1.937 4.33 4.327 0-2.39 1.937-4.328 4.327-4.328M619.657 4651.33c-2.39 0-4.328-1.94-4.328-4.33 0 2.39-1.94 4.33-4.33 4.33 2.39 0 4.33 1.937 4.33 4.327 0-2.39 1.937-4.328 4.327-4.328M2277.657 4778.33c-2.39 0-4.328-1.94-4.328-4.33 0 2.39-1.94 4.33-4.33 4.33 2.39 0 4.33 1.937 4.33 4.327 0-2.39 1.937-4.328 4.327-4.328M2545.657 4115.33c-2.39 0-4.328-1.94-4.328-4.33 0 2.39-1.94 4.33-4.33 4.33 2.39 0 4.33 1.937 4.33 4.327 0-2.39 1.937-4.328 4.327-4.328M2554.657 3766.33c-2.39 0-4.328-1.94-4.328-4.33 0 2.39-1.94 4.33-4.33 4.33 2.39 0 4.33 1.937 4.33 4.327 0-2.39 1.937-4.328 4.327-4.328M903.885 4350.207c-3.558 1.787-7.89.35-9.677-3.207 1.787 3.558.35 7.89-3.208 9.677 3.56-1.787 7.89-.35 9.678 3.207-1.787-3.558-.35-7.89 3.207-9.677M450.885 4412.207c-3.558 1.787-7.89.35-9.677-3.207 1.787 3.558.35 7.89-3.208 9.677 3.56-1.787 7.89-.35 9.678 3.207-1.787-3.558-.35-7.89 3.207-9.677M112.885 5161.207c-3.558 1.787-7.89.35-9.677-3.207 1.787 3.558.35 7.89-3.208 9.677 3.56-1.787 7.89-.35 9.678 3.207-1.787-3.558-.35-7.89 3.207-9.677M1016.885 4132.207c-3.558 1.787-7.89.35-9.677-3.207 1.787 3.558.35 7.89-3.208 9.677 3.56-1.787 7.89-.35 9.678 3.207-1.787-3.558-.35-7.89 3.207-9.677M2251.086 4209.543c-6.375 0-11.543-5.168-11.543-11.543 0 6.375-5.168 11.543-11.543 11.543 6.375 0 11.543 5.168 11.543 11.543 0-6.375 5.168-11.543 11.543-11.543M2494.086 4433.543c-6.375 0-11.543-5.168-11.543-11.543 0 6.375-5.168 11.543-11.543 11.543 6.375 0 11.543 5.168 11.543 11.543 0-6.375 5.168-11.543 11.543-11.543M2917.086 5129.543c-6.375 0-11.543-5.168-11.543-11.543 0 6.375-5.168 11.543-11.543 11.543 6.375 0 11.543 5.168 11.543 11.543 0-6.375 5.168-11.543 11.543-11.543M2054.086 4087.543c-6.375 0-11.543-5.168-11.543-11.543 0 6.375-5.168 11.543-11.543 11.543 6.375 0 11.543 5.168 11.543 11.543 0-6.375 5.168-11.543 11.543-11.543M2299.39 3922.695c-4.25 0-7.695-3.445-7.695-7.695 0 4.25-3.445 7.695-7.695 7.695 4.25 0 7.695 3.446 7.695 7.696 0-4.25 3.446-7.695 7.696-7.695M2268.885 1764.207c-3.558 1.787-7.89.35-9.677-3.207 1.787 3.558.35 7.89-3.208 9.677 3.56-1.787 7.89-.35 9.678 3.207-1.787-3.558-.35-7.89 3.207-9.677M99.086 176.543c-6.375 0-11.543-5.168-11.543-11.543 0 6.375-5.168 11.543-11.543 11.543 6.375 0 11.543 5.168 11.543 11.543 0-6.375 5.168-11.543 11.543-11.543M309.086 373.543c-6.375 0-11.543-5.168-11.543-11.543 0 6.375-5.168 11.543-11.543 11.543 6.375 0 11.543 5.168 11.543 11.543 0-6.375 5.168-11.543 11.543-11.543M496.086 204.543c-6.375 0-11.543-5.168-11.543-11.543 0 6.375-5.168 11.543-11.543 11.543 6.375 0 11.543 5.168 11.543 11.543 0-6.375 5.168-11.543 11.543-11.543M705.885 395.207c-3.558 1.787-7.89.35-9.677-3.207 1.787 3.558.35 7.89-3.208 9.677 3.56-1.787 7.89-.35 9.678 3.207-1.787-3.558-.35-7.89 3.207-9.677M2394.947 166.48c-1.642.825-3.642.162-4.466-1.48.825 1.642.163 3.642-1.48 4.466 1.643-.824 3.642-.162 4.467 1.48-.825-1.642-.162-3.64 1.48-4.466M2338.62 413.81c-2.657 0-4.81-2.154-4.81-4.81 0 2.656-2.154 4.81-4.81 4.81 2.656 0 4.81 2.153 4.81 4.81 0-2.657 2.153-4.81 4.81-4.81M2310.62 468.81c-2.657 0-4.81-2.154-4.81-4.81 0 2.656-2.154 4.81-4.81 4.81 2.656 0 4.81 2.153 4.81 4.81 0-2.657 2.153-4.81 4.81-4.81M2776.885 207.207c-3.558 1.787-7.89.35-9.677-3.207 1.787 3.558.35 7.89-3.208 9.677 3.56-1.787 7.89-.35 9.678 3.207-1.787-3.558-.35-7.89 3.207-9.677M2715.885 432.207c-3.558 1.787-7.89.35-9.677-3.207 1.787 3.558.35 7.89-3.208 9.677 3.56-1.787 7.89-.35 9.678 3.207-1.787-3.558-.35-7.89 3.207-9.677M2503.885 634.207c-3.558 1.787-7.89.35-9.677-3.207 1.787 3.558.35 7.89-3.208 9.677 3.56-1.787 7.89-.35 9.678 3.207-1.787-3.558-.35-7.89 3.207-9.677M2885.086 28.543c-6.375 0-11.543-5.168-11.543-11.543 0 6.375-5.168 11.543-11.543 11.543 6.375 0 11.543 5.168 11.543 11.543 0-6.375 5.168-11.543 11.543-11.543M2140.885 1082.207c-3.558 1.787-7.89.35-9.677-3.207 1.787 3.558.35 7.89-3.208 9.677 3.56-1.787 7.89-.35 9.678 3.207-1.787-3.558-.35-7.89 3.207-9.677M2822.885 869.207c-3.558 1.787-7.89.35-9.677-3.207 1.787 3.558.35 7.89-3.208 9.677 3.56-1.787 7.89-.35 9.678 3.207-1.787-3.558-.35-7.89 3.207-9.677M2728.885 890.207c-3.558 1.787-7.89.35-9.677-3.207 1.787 3.558.35 7.89-3.208 9.677 3.56-1.787 7.89-.35 9.678 3.207-1.787-3.558-.35-7.89 3.207-9.677M876.086 97.543c-6.375 0-11.543-5.168-11.543-11.543 0 6.375-5.168 11.543-11.543 11.543 6.375 0 11.543 5.168 11.543 11.543 0-6.375 5.168-11.543 11.543-11.543M1808.885 18.207c-3.558 1.787-7.89.35-9.677-3.207 1.787 3.558.35 7.89-3.208 9.677 3.56-1.787 7.89-.35 9.678 3.207-1.787-3.558-.35-7.89 3.207-9.677M1871.885 314.207c-3.558 1.787-7.89.35-9.677-3.207 1.787 3.558.35 7.89-3.208 9.677 3.56-1.787 7.89-.35 9.678 3.207-1.787-3.558-.35-7.89 3.207-9.677M1889.885 432.207c-3.558 1.787-7.89.35-9.677-3.207 1.787 3.558.35 7.89-3.208 9.677 3.56-1.787 7.89-.35 9.678 3.207-1.787-3.558-.35-7.89 3.207-9.677M1241.086 561.543c-6.375 0-11.543-5.168-11.543-11.543 0 6.375-5.168 11.543-11.543 11.543 6.375 0 11.543 5.168 11.543 11.543 0-6.375 5.168-11.543 11.543-11.543M1865.086 604.543c-6.375 0-11.543-5.168-11.543-11.543 0 6.375-5.168 11.543-11.543 11.543 6.375 0 11.543 5.168 11.543 11.543 0-6.375 5.168-11.543 11.543-11.543"/></g></svg>