<svg xmlns="http://www.w3.org/2000/svg" viewBox="0 0 163 111"><g fill="none" fill-rule="evenodd"><g><g><g><path fill="#FFFFFE" d="M122.948 78.36l29.802-39.003L122.935 9.51 85.28 64.227 122.95 78.36zm35.4-39.37l-33.95 44.43-42.366-15.895.31-.84-28.093 5.89-29.84 6.707-16.655 25.63-3.53-2.322 17.592-27.067 31.534-7.086 27.937-5.86 41.044-59.64L158.35 38.99z"/><path fill="#E8816B" d="M7.987 97.4l-2.946 3.357-4.427-.545 2.27 3.863-1.872 4.063 4.352-.97 3.267 3.056.417-4.46 3.895-2.175-4.092-1.79-.863-4.4"/><path fill="#F4B766" d="M25.11 71.052l-2.945 3.356-4.428-.544 2.27 3.863-1.874 4.063 4.35-.97 3.27 3.056.418-4.462 3.894-2.173-4.09-1.787-.864-4.4"/><path fill="#E0576C" d="M55.595 63.773l-2.947 3.356-4.427-.545 2.27 3.86-1.873 4.065 4.35-.97 3.268 3.057.42-4.462 3.894-2.175-4.093-1.788-.862-4.4"/><path fill="#F4B766" d="M84.832 58.32l-2.948 3.356-4.427-.545 2.27 3.864-1.874 4.063 4.352-.97 3.267 3.056.42-4.462 3.894-2.173-4.093-1.787-.86-4.4"/><path fill="#E8816B" d="M124.92.065l-2.947 3.356-4.426-.544 2.27 3.863-1.873 4.062 4.35-.97 3.268 3.057.42-4.463 3.893-2.174-4.092-1.788-.862-4.4"/><path fill="#E0576C" d="M157.838 33.015l-2.95 3.356-4.424-.544 2.27 3.862-1.874 4.064 4.35-.968 3.27 3.055.417-4.463 3.894-2.174-4.09-1.79-.862-4.398"/><path fill="#F4B766" d="M125.962 74.73l-2.948 3.358-4.427-.545 2.27 3.863-1.873 4.063 4.35-.97 3.268 3.056.42-4.462 3.893-2.174-4.09-1.79-.863-4.4"/></g></g></g></g></svg>